<svg xmlns="http://www.w3.org/2000/svg" width="60" height="59" viewBox="0 0 60 59">
  <g id="Group_3599" data-name="Group 3599" transform="translate(-2 -2)">
    <g id="Group_3576" data-name="Group 3576">
      <path id="Path_7514" data-name="Path 7514" d="M11.259,34.14a1,1,0,0,1-.981-.809l-.028-.139a1,1,0,0,1,1.959-.4l.032.161a1,1,0,0,1-.791,1.172A1.037,1.037,0,0,1,11.259,34.14Z" fill="#00598d"/>
    </g>
    <g id="Group_3577" data-name="Group 3577">
      <path id="Path_7515" data-name="Path 7515" d="M23.66,61a5.21,5.21,0,0,1-5.09-4.15c-.59-2.837-1.44-6.979-2.12-10.31A16.725,16.725,0,0,0,13.1,39.226a12.918,12.918,0,0,1-1.286-1.849,1,1,0,1,1,1.735-.994,11.117,11.117,0,0,0,1.092,1.568,18.714,18.714,0,0,1,3.769,8.184c.68,3.334,1.53,7.472,2.12,10.312a3.2,3.2,0,0,0,5.11,1.869,3.137,3.137,0,0,0,1.13-1.754l1.809-7.409a3.523,3.523,0,0,1,6.843,0l.4,1.619a1,1,0,0,1-1.942.48l-.4-1.62a1.523,1.523,0,0,0-2.958,0l-1.809,7.408A5.2,5.2,0,0,1,23.66,61Z" fill="#00598d"/>
    </g>
    <g id="Group_3578" data-name="Group 3578">
      <path id="Path_7516" data-name="Path 7516" d="M40.34,61a5.187,5.187,0,0,1-5.051-3.962l-.48-1.96a1,1,0,1,1,1.942-.476l.48,1.96a3.2,3.2,0,0,0,6.239-.112c.591-2.843,1.441-6.981,2.12-10.31a18.712,18.712,0,0,1,3.768-8.186,11.523,11.523,0,0,0,2.614-8.177A5.414,5.414,0,0,0,51.5,32a1,1,0,0,1-2,0A5.506,5.506,0,0,0,44,26.5a1,1,0,0,1,0-2,5.5,5.5,0,0,0,3.9-1.61,5.4,5.4,0,0,0,.537-.63,11.53,11.53,0,0,0-11.785-2.635,14.117,14.117,0,0,1-9.294,0,11.469,11.469,0,0,0-4.8-.579A11.642,11.642,0,0,0,12.092,29.125a1,1,0,1,1-1.984-.25A13.653,13.653,0,0,1,22.382,17.054a13.466,13.466,0,0,1,5.627.682,12.132,12.132,0,0,0,7.985,0,13.541,13.541,0,0,1,14.445,3.721,1,1,0,0,1,.135,1.16,7.436,7.436,0,0,1-2.83,2.887A7.555,7.555,0,0,1,50.5,28.256,7.592,7.592,0,0,1,51.69,26.7a3.058,3.058,0,0,1,.233-.2A1,1,0,0,1,53.512,27a13.236,13.236,0,0,1,.434,2.368A13.526,13.526,0,0,1,50.9,39.226a16.721,16.721,0,0,0-3.353,7.319c-.679,3.326-1.529,7.468-2.12,10.308A5.187,5.187,0,0,1,40.34,61Z" fill="#00598d"/>
    </g>
    <g id="Group_3579" data-name="Group 3579">
      <path id="Path_7517" data-name="Path 7517" d="M32,25.72a20.594,20.594,0,0,1-9.76-2.666,1,1,0,0,1,1.039-1.708A18.9,18.9,0,0,0,32,23.72a18.9,18.9,0,0,0,8.721-2.374,1,1,0,0,1,1.039,1.708A20.594,20.594,0,0,1,32,25.72Z" fill="#00598d"/>
    </g>
    <g id="Group_3580" data-name="Group 3580">
      <path id="Path_7518" data-name="Path 7518" d="M6,33H3a1,1,0,0,1,0-2H6a1,1,0,0,1,0,2Z" fill="#00598d"/>
    </g>
    <g id="Group_3581" data-name="Group 3581">
      <path id="Path_7519" data-name="Path 7519" d="M61,33H58a1,1,0,0,1,0-2h3a1,1,0,0,1,0,2Z" fill="#00598d"/>
    </g>
    <g id="Group_3582" data-name="Group 3582">
      <path id="Path_7520" data-name="Path 7520" d="M32,7a1,1,0,0,1-1-1V3a1,1,0,0,1,2,0V6A1,1,0,0,1,32,7Z" fill="#00598d"/>
    </g>
    <g id="Group_3583" data-name="Group 3583">
      <path id="Path_7521" data-name="Path 7521" d="M6.886,47.5a1,1,0,0,1-.5-1.866l2.6-1.5a1,1,0,1,1,1,1.732l-2.6,1.5A.992.992,0,0,1,6.886,47.5Z" fill="#00598d"/>
    </g>
    <g id="Group_3584" data-name="Group 3584">
      <path id="Path_7522" data-name="Path 7522" d="M54.518,20a1,1,0,0,1-.5-1.866l2.6-1.5a1,1,0,0,1,1,1.732l-2.6,1.5A1,1,0,0,1,54.518,20Z" fill="#00598d"/>
    </g>
    <g id="Group_3585" data-name="Group 3585">
      <path id="Path_7523" data-name="Path 7523" d="M19,10.483a1,1,0,0,1-.867-.5l-1.5-2.6a1,1,0,1,1,1.732-1l1.5,2.6a1,1,0,0,1-.865,1.5Z" fill="#00598d"/>
    </g>
    <g id="Group_3586" data-name="Group 3586">
      <path id="Path_7524" data-name="Path 7524" d="M45,10.483a1,1,0,0,1-.865-1.5l1.5-2.6a1,1,0,0,1,1.732,1l-1.5,2.6A1,1,0,0,1,45,10.483Z" fill="#00598d"/>
    </g>
    <g id="Group_3587" data-name="Group 3587">
      <path id="Path_7525" data-name="Path 7525" d="M9.482,20a1,1,0,0,1-.5-.134l-2.6-1.5a1,1,0,1,1,1-1.732l2.6,1.5A1,1,0,0,1,9.482,20Z" fill="#00598d"/>
    </g>
    <g id="Group_3588" data-name="Group 3588">
      <path id="Path_7526" data-name="Path 7526" d="M57.114,47.5a.992.992,0,0,1-.5-.134l-2.6-1.5a1,1,0,1,1,1-1.732l2.6,1.5a1,1,0,0,1-.5,1.866Z" fill="#00598d"/>
    </g>
    <g id="Group_3589" data-name="Group 3589">
      <path id="Path_7527" data-name="Path 7527" d="M6,33H3a1,1,0,0,1,0-2H6a1,1,0,0,1,0,2Z" fill="#00598d"/>
    </g>
    <g id="Group_3590" data-name="Group 3590">
      <path id="Path_7528" data-name="Path 7528" d="M61,33H58a1,1,0,0,1,0-2h3a1,1,0,0,1,0,2Z" fill="#00598d"/>
    </g>
    <g id="Group_3591" data-name="Group 3591">
      <path id="Path_7529" data-name="Path 7529" d="M32,7a1,1,0,0,1-1-1V3a1,1,0,0,1,2,0V6A1,1,0,0,1,32,7Z" fill="#00598d"/>
    </g>
    <g id="Group_3592" data-name="Group 3592">
      <path id="Path_7530" data-name="Path 7530" d="M6.886,47.5a1,1,0,0,1-.5-1.866l2.6-1.5a1,1,0,1,1,1,1.732l-2.6,1.5A.992.992,0,0,1,6.886,47.5Z" fill="#00598d"/>
    </g>
    <g id="Group_3593" data-name="Group 3593">
      <path id="Path_7531" data-name="Path 7531" d="M54.518,20a1,1,0,0,1-.5-1.866l2.6-1.5a1,1,0,0,1,1,1.732l-2.6,1.5A1,1,0,0,1,54.518,20Z" fill="#00598d"/>
    </g>
    <g id="Group_3594" data-name="Group 3594">
      <path id="Path_7532" data-name="Path 7532" d="M19,10.483a1,1,0,0,1-.867-.5l-1.5-2.6a1,1,0,1,1,1.732-1l1.5,2.6a1,1,0,0,1-.865,1.5Z" fill="#00598d"/>
    </g>
    <g id="Group_3595" data-name="Group 3595">
      <path id="Path_7533" data-name="Path 7533" d="M45,10.483a1,1,0,0,1-.865-1.5l1.5-2.6a1,1,0,0,1,1.732,1l-1.5,2.6A1,1,0,0,1,45,10.483Z" fill="#00598d"/>
    </g>
    <g id="Group_3596" data-name="Group 3596">
      <path id="Path_7534" data-name="Path 7534" d="M9.482,20a1,1,0,0,1-.5-.134l-2.6-1.5a1,1,0,1,1,1-1.732l2.6,1.5A1,1,0,0,1,9.482,20Z" fill="#00598d"/>
    </g>
    <g id="Group_3597" data-name="Group 3597">
      <path id="Path_7535" data-name="Path 7535" d="M57.114,47.5a.992.992,0,0,1-.5-.134l-2.6-1.5a1,1,0,1,1,1-1.732l2.6,1.5a1,1,0,0,1-.5,1.866Z" fill="#00598d"/>
    </g>
    <g id="Group_3598" data-name="Group 3598">
      <path id="Path_7536" data-name="Path 7536" d="M50.5,33a1,1,0,0,1-1-1A5.506,5.506,0,0,0,44,26.5a1,1,0,0,1,0-2,5.5,5.5,0,0,0,3.9-1.61,5.64,5.64,0,0,0,.93-1.246A5.516,5.516,0,0,0,49.5,19a1,1,0,0,1,2,0A5.487,5.487,0,0,0,57,24.5a1,1,0,0,1,0,2,5.475,5.475,0,0,0-3.691,1.42.9.9,0,0,1-.133.129A5.517,5.517,0,0,0,51.5,32,1,1,0,0,1,50.5,33Zm-2.756-7.5A7.555,7.555,0,0,1,50.5,28.256,7.592,7.592,0,0,1,51.69,26.7c.046-.046.089-.085.132-.121a.592.592,0,0,1,.043-.044A7.568,7.568,0,0,1,53.251,25.5,7.445,7.445,0,0,1,50.5,22.747,7.447,7.447,0,0,1,47.744,25.5Z" fill="#00598d"/>
    </g>
  </g>
</svg>
