<svg xmlns="http://www.w3.org/2000/svg" width="15.094" height="15.094" viewBox="0 0 15.094 15.094">
  <path id="icon_globe" data-name="icon / globe" d="M7.547,15.094A7.525,7.525,0,0,1,0,7.547,7.525,7.525,0,0,1,7.547,0a7.525,7.525,0,0,1,7.547,7.547,7.525,7.525,0,0,1-7.547,7.547Zm3.431-6.861a11.9,11.9,0,0,1-1.852,5.283,6.328,6.328,0,0,0,4.6-5.283H10.978Zm-9.537,0a6.144,6.144,0,0,0,4.6,5.283A10.424,10.424,0,0,1,4.185,8.233Zm4.117,0a8.724,8.724,0,0,0,2.058,5.078,10.23,10.23,0,0,0,1.99-5.078Zm3.5-6.655a10.43,10.43,0,0,1,1.852,5.283h2.744A6.142,6.142,0,0,0,9.057,1.578Zm-1.51.206h0a10.217,10.217,0,0,0-1.99,5.077H9.537a9.624,9.624,0,0,0-1.99-5.077ZM5.969,1.578A6.009,6.009,0,0,0,2.907,3.5,6.148,6.148,0,0,0,1.441,6.861H4.185A11,11,0,0,1,5.969,1.578Z" fill="#bababa"/>
</svg>
