<svg xmlns="http://www.w3.org/2000/svg" width="136.333" height="36.087" viewBox="0 0 136.333 36.087">
  <g id="Group_3085" data-name="Group 3085" transform="translate(-45.346 -555.696)">
    <g id="Group_3084" data-name="Group 3084" transform="translate(45.346 555.696)">
      <path id="Path_5108" data-name="Path 5108" d="M214.128,623.575a1.09,1.09,0,1,0-1.09,1.083A1.086,1.086,0,0,0,214.128,623.575Z" transform="translate(-179.477 -609.473)" fill="#bababa"/>
      <path id="Path_5109" data-name="Path 5109" d="M98.342,559.587a.745.745,0,0,0-.168.02v0c-19.147,4.681-30.844-9.991-51.523-.838v0a2.068,2.068,0,0,0-1.3,1.9h0v19.952h0v.011h0a.751.751,0,0,0,.75.74.731.731,0,0,0,.1-.011v0a23.765,23.765,0,0,0,7.346-2.1c10.492-4.88,16.963-14.077,23.146-14.077s8.512,7.566,8.512,7.566c-3.153-1.51-6.448,2.537-3.546,6.493,2.718,3.7,9.449,5.433,15.729,3.838.047-.008.092-.021.138-.032l.088-.02v-.007a2.064,2.064,0,0,0,1.479-1.966h0v-20.7h0c0-.01,0-.019,0-.029A.751.751,0,0,0,98.342,559.587Z" transform="translate(-45.346 -555.696)" fill="#bababa"/>
      <path id="Path_5110" data-name="Path 5110" d="M98.854,694.333a.238.238,0,0,0-.078.016l0-.005c-20.548,7.53-29.945-12.114-53.334,2.157l0,0a.2.2,0,0,0-.094.168.2.2,0,0,0,.2.2.2.2,0,0,0,.1-.028l0,.005c22.1-11.762,34.281,7.553,53.286-2.056a.239.239,0,0,0-.083-.464Z" transform="translate(-45.347 -664.748)" fill="#bababa"/>
      <path id="Path_5111" data-name="Path 5111" d="M98.786,712.542a.3.3,0,0,0-.093.019l0-.008c-20.41,7.727-32.012-9.59-53.185,1.65a.247.247,0,0,0,.09.478.243.243,0,0,0,.1-.025l0,.005c20.856-8.655,34.4,8.145,53.2-1.526a.307.307,0,0,0-.112-.593Z" transform="translate(-45.347 -680.154)" fill="#bababa"/>
      <path id="Path_5112" data-name="Path 5112" d="M371.623,591.888h3.518c.158,0,.226-.071.226-.237v-5.009q0-.142.135-.142h2.255a5.654,5.654,0,0,0,4.194-1.5,5.292,5.292,0,0,0,1.488-3.893c0-3.228-2.052-5.365-5.682-5.365h-6.134c-.158,0-.225.072-.225.238v15.667C371.4,591.817,371.465,591.888,371.623,591.888Zm3.744-12.463c0-.095.045-.142.135-.142h2.03a1.723,1.723,0,0,1,1.939,1.828,1.74,1.74,0,0,1-1.939,1.852H375.5q-.134,0-.135-.143Z" transform="translate(-307.848 -571.838)" fill="#bababa"/>
      <path id="Path_5113" data-name="Path 5113" d="M450.15,575.746H440.116c-.158,0-.225.072-.225.238v15.667c0,.166.067.237.225.237H450.15c.158,0,.226-.071.226-.237v-3.062c0-.166-.068-.237-.226-.237h-6.156c-.09,0-.135-.048-.135-.143v-2.588c0-.095.045-.142.135-.142h5.051c.158,0,.225-.071.225-.237V582.25c0-.166-.067-.237-.225-.237h-5.051c-.09,0-.135-.048-.135-.143v-2.445c0-.095.045-.142.135-.142h6.156c.158,0,.226-.072.226-.238v-3.062C450.376,575.818,450.308,575.746,450.15,575.746Z" transform="translate(-362.992 -571.838)" fill="#bababa"/>
      <path id="Path_5114" data-name="Path 5114" d="M502.246,591.888H505.4c.158,0,.225-.071.225-.237v-9.115h.135l4.577,9.115a.358.358,0,0,0,.383.237h3.314c.158,0,.226-.071.226-.237V575.984c0-.166-.067-.238-.226-.238h-3.156c-.158,0-.226.072-.226.238v9.139h-.09l-4.622-9.139a.359.359,0,0,0-.384-.238h-3.315c-.158,0-.225.072-.225.238v15.667C502.021,591.817,502.088,591.888,502.246,591.888Z" transform="translate(-413.012 -571.838)" fill="#bababa"/>
      <path id="Path_5115" data-name="Path 5115" d="M575.48,591.888h5.931c2.886,0,4.712-1.234,5.456-3.679a21.616,21.616,0,0,0,0-8.783c-.744-2.445-2.57-3.679-5.456-3.679H575.48c-.158,0-.225.072-.225.238v15.667C575.255,591.817,575.322,591.888,575.48,591.888Zm3.744-12.3q0-.142.135-.142h1.2c1.421,0,2.165.427,2.526,1.543a17.8,17.8,0,0,1,0,5.65c-.361,1.116-1.1,1.543-2.526,1.543h-1.2q-.134,0-.135-.142Z" transform="translate(-471.972 -571.838)" fill="#bababa"/>
      <path id="Path_5116" data-name="Path 5116" d="M649.916,609.9v-11.25c0-.166-.068-.238-.226-.238h-3.518c-.158,0-.225.072-.225.238V609.9c0,.166.067.237.225.237h3.518C649.848,610.133,649.916,610.062,649.916,609.9Z" transform="translate(-528.886 -590.083)" fill="#bababa"/>
      <path id="Path_5117" data-name="Path 5117" d="M676.947,591.888h3.518c.158,0,.226-.071.226-.237V587.9l1.646-2.3,2.976,6.077a.358.358,0,0,0,.361.214h4.036c.158,0,.2-.143.135-.261L685,582.3l4.577-6.243c.09-.166.045-.309-.135-.309h-3.968a.5.5,0,0,0-.384.214l-4.4,6.338v-6.314c0-.166-.068-.238-.226-.238h-3.518c-.158,0-.225.072-.225.238v15.667C676.722,591.817,676.789,591.888,676.947,591.888Z" transform="translate(-553.663 -571.838)" fill="#bababa"/>
      <path id="Path_5118" data-name="Path 5118" d="M646.172,578.76h3.518c.158,0,.226-.071.226-.237v-2.539c0-.166-.068-.238-.226-.238h-3.518c-.158,0-.225.072-.225.238v2.539C645.947,578.689,646.014,578.76,646.172,578.76Z" transform="translate(-528.886 -571.838)" fill="#bababa"/>
      <path id="Path_5119" data-name="Path 5119" d="M376.8,680.857v-.031a2.189,2.189,0,0,0,1.346-2.269c0-1.718-1.036-2.745-3.034-2.745h-3.566c-.1,0-.148.046-.148.153v10.12c0,.107.045.153.148.153h3.492c2.116,0,3.285-1.028,3.285-2.975A2.4,2.4,0,0,0,376.8,680.857Zm-4.084-3.711a.08.08,0,0,1,.089-.092h2.279a1.638,1.638,0,1,1,0,3.266H372.8c-.059,0-.089-.031-.089-.092ZM375.157,685H372.8a.08.08,0,0,1-.089-.092v-3.251c0-.061.029-.092.089-.092h2.353a1.722,1.722,0,1,1,0,3.435Z" transform="translate(-307.848 -652.401)" fill="#bababa"/>
      <path id="Path_5120" data-name="Path 5120" d="M423.469,675.812h-6.052c-.1,0-.148.046-.148.153v10.12c0,.107.045.153.148.153h6.052c.1,0,.148-.046.148-.153v-.966c0-.107-.044-.154-.148-.154h-4.795c-.059,0-.089-.03-.089-.092V681.7c0-.061.029-.092.089-.092h4.07c.1,0,.148-.046.148-.153v-.966c0-.107-.044-.154-.148-.154h-4.07c-.059,0-.089-.031-.089-.092v-3.067c0-.062.029-.092.089-.092h4.795c.1,0,.148-.046.148-.153v-.966C423.616,675.858,423.572,675.812,423.469,675.812Z" transform="translate(-344.778 -652.401)" fill="#bababa"/>
      <path id="Path_5121" data-name="Path 5121" d="M466.225,684.966H461.43c-.059,0-.089-.03-.089-.092v-8.909c0-.107-.044-.153-.148-.153h-1.021c-.1,0-.148.046-.148.153v10.12c0,.107.045.153.148.153h6.052c.1,0,.148-.046.148-.153v-.966C466.372,685.012,466.328,684.966,466.225,684.966Z" transform="translate(-379.201 -652.401)" fill="#bababa"/>
      <path id="Path_5122" data-name="Path 5122" d="M507.086,675.812h-6.052c-.1,0-.148.046-.148.153v10.12c0,.107.045.153.148.153h6.052c.1,0,.148-.046.148-.153v-.966c0-.107-.044-.154-.148-.154h-4.795c-.059,0-.089-.03-.089-.092V681.7a.08.08,0,0,1,.089-.092h4.069c.1,0,.148-.046.148-.153v-.966c0-.107-.044-.154-.148-.154h-4.069a.08.08,0,0,1-.089-.092v-3.067c0-.062.029-.092.089-.092h4.795c.1,0,.148-.046.148-.153v-.966C507.233,675.858,507.189,675.812,507.086,675.812Z" transform="translate(-412.098 -652.401)" fill="#bababa"/>
      <path id="Path_5123" data-name="Path 5123" d="M547.176,675.812h-3.388c-.1,0-.148.046-.148.153v10.12c0,.107.045.153.148.153h3.388a3.057,3.057,0,0,0,3.285-2.223,16.9,16.9,0,0,0,0-5.98A3.058,3.058,0,0,0,547.176,675.812Zm2.013,7.728a2.116,2.116,0,0,1-2.293,1.426h-1.85c-.059,0-.089-.03-.089-.092v-7.7c0-.062.029-.092.089-.092h1.85a2.117,2.117,0,0,1,2.293,1.426,15.376,15.376,0,0,1,0,5.029Z" transform="translate(-446.519 -652.401)" fill="#bababa"/>
      <path id="Path_5124" data-name="Path 5124" d="M611.8,675.812a.2.2,0,0,0-.207.153l-2.235,4.462h-.029l-2.249-4.462a.248.248,0,0,0-.222-.153H605.81c-.119,0-.163.062-.119.169l2.975,6v4.109c0,.107.044.153.148.153h1.006c.1,0,.148-.046.148-.153v-4.109l2.974-6c.044-.107,0-.169-.118-.169Z" transform="translate(-496.463 -652.401)" fill="#bababa"/>
      <path id="Path_5125" data-name="Path 5125" d="M656.619,675.812h-6.052c-.1,0-.148.046-.148.153v10.12c0,.107.045.153.148.153h6.052c.1,0,.148-.046.148-.153v-.966c0-.107-.044-.154-.148-.154h-4.795c-.059,0-.089-.03-.089-.092V681.7a.08.08,0,0,1,.089-.092h4.069c.1,0,.148-.046.148-.153v-.966c0-.107-.044-.154-.148-.154h-4.069a.08.08,0,0,1-.089-.092v-3.067c0-.062.029-.092.089-.092h4.795c.1,0,.148-.046.148-.153v-.966C656.766,675.858,656.722,675.812,656.619,675.812Z" transform="translate(-532.486 -652.401)" fill="#bababa"/>
      <path id="Path_5126" data-name="Path 5126" d="M695.134,679.655l-.488-.077c-1.495-.2-2.117-.751-2.117-1.671a1.673,1.673,0,0,1,1.909-1.687,4.489,4.489,0,0,1,2.427.782.142.142,0,0,0,.207-.031l.5-.844a.142.142,0,0,0-.03-.215,4.9,4.9,0,0,0-3.063-.966,3.422,3.422,0,0,0-2.4.828A2.884,2.884,0,0,0,691.2,678c0,1.641.992,2.607,2.959,2.883l.5.077c1.539.2,2.1.767,2.1,1.7,0,1.058-.844,1.779-2.219,1.779a4.318,4.318,0,0,1-2.812-1.073.129.129,0,0,0-.207.016l-.651.8a.158.158,0,0,0,.015.23,5.44,5.44,0,0,0,3.537,1.3c2.353,0,3.67-1.257,3.67-3.143C698.093,680.9,697.1,679.931,695.134,679.655Z" transform="translate(-565.02 -651.704)" fill="#bababa"/>
      <path id="Path_5127" data-name="Path 5127" d="M592.122,689.129H591.1c-.1,0-.148.046-.148.153v7.525c0,.107.045.153.148.153h1.021c.1,0,.148-.046.148-.153v-7.525C592.27,689.175,592.226,689.129,592.122,689.129Z" transform="translate(-484.611 -663.122)" fill="#bababa"/>
      <path id="Path_5128" data-name="Path 5128" d="M592.122,675.638H591.1c-.1,0-.148.046-.148.153v1.276c0,.107.045.153.148.153h1.021c.1,0,.148-.046.148-.153v-1.276C592.27,675.684,592.226,675.638,592.122,675.638Z" transform="translate(-484.611 -652.26)" fill="#bababa"/>
      <path id="Path_5129" data-name="Path 5129" d="M739.235,689.129h-1.02c-.1,0-.148.046-.148.153v7.525c0,.107.045.153.148.153h1.02c.1,0,.148-.046.148-.153v-7.525C739.383,689.175,739.339,689.129,739.235,689.129Z" transform="translate(-603.051 -663.122)" fill="#bababa"/>
      <path id="Path_5130" data-name="Path 5130" d="M739.235,675.638h-1.02c-.1,0-.148.046-.148.153v1.276c0,.107.045.153.148.153h1.02c.1,0,.148-.046.148-.153v-1.276C739.383,675.684,739.339,675.638,739.235,675.638Z" transform="translate(-603.051 -652.26)" fill="#bababa"/>
    </g>
  </g>
</svg>
