<svg xmlns="http://www.w3.org/2000/svg" width="44" height="60.003" viewBox="0 0 44 60.003">
  <g id="Group_3575" data-name="Group 3575" transform="translate(-138 510.003)">
    <g id="Group_3566" data-name="Group 3566">
      <path id="Path_7505" data-name="Path 7505" d="M163-476H148.69a5.282,5.282,0,0,1-4.982-3.5c-.2-.591-.421-1.4-.67-2.332-.517-1.93-1.223-4.573-1.948-5.476a14.048,14.048,0,0,1-3.015-10.287,13.744,13.744,0,0,1,.571-2.751,1,1,0,0,1,1.255-.651,1,1,0,0,1,.652,1.255,11.793,11.793,0,0,0-.488,2.349,12.056,12.056,0,0,0,2.584,8.832c.99,1.233,1.7,3.878,2.321,6.212.229.86.446,1.671.626,2.188A3.277,3.277,0,0,0,148.69-478H163a1,1,0,0,1,1,1A1,1,0,0,1,163-476Z" fill="#00598d"/>
    </g>
    <g id="Group_3567" data-name="Group 3567">
      <path id="Path_7506" data-name="Path 7506" d="M171.31-476H167a1,1,0,0,1-1-1,1,1,0,0,1,1-1h4.31a3.28,3.28,0,0,0,3.1-2.164c.177-.51.394-1.321.623-2.181.624-2.334,1.331-4.979,2.32-6.211a12.056,12.056,0,0,0,2.585-8.833,11.742,11.742,0,0,0-10.468-10.566,11.3,11.3,0,0,0-4.815.6,13.873,13.873,0,0,1-9.3,0,11.314,11.314,0,0,0-4.816-.6,11.314,11.314,0,0,0-5.7,2.2,1,1,0,0,1-1.4-.207,1,1,0,0,1,.208-1.4,13.285,13.285,0,0,1,6.705-2.583,13.283,13.283,0,0,1,5.662.7,11.882,11.882,0,0,0,7.976,0,13.28,13.28,0,0,1,5.663-.7,13.744,13.744,0,0,1,12.274,12.354,14.045,14.045,0,0,1-3.016,10.288c-.724.9-1.43,3.546-1.947,5.476-.249.934-.465,1.741-.667,2.325A5.285,5.285,0,0,1,171.31-476Z" fill="#00598d"/>
    </g>
    <g id="Group_3568" data-name="Group 3568">
      <path id="Path_7507" data-name="Path 7507" d="M160-501.28a20.6,20.6,0,0,1-9.761-2.666,1,1,0,0,1-.334-1.372,1,1,0,0,1,1.374-.336A18.89,18.89,0,0,0,160-503.28a18.89,18.89,0,0,0,8.721-2.374,1,1,0,0,1,1.374.336,1,1,0,0,1-.334,1.372A20.6,20.6,0,0,1,160-501.28Z" fill="#00598d"/>
    </g>
    <g id="Group_3569" data-name="Group 3569">
      <path id="Path_7508" data-name="Path 7508" d="M163.95-450h-7.9a1,1,0,0,1-.885-.534c-1.911-3.631-3.1-5.9-5-9.532a1.008,1.008,0,0,1-.112-.395l-1.13-16.471a1,1,0,0,1,.267-.751,1,1,0,0,1,.731-.317H163a1,1,0,0,1,1,1,1,1,0,0,1-1,1H150.991l1.042,15.192c1.75,3.343,2.9,5.543,4.62,8.808h6.694c1.716-3.265,2.87-5.465,4.62-8.808L169.009-476H167a1,1,0,0,1-1-1,1,1,0,0,1,1-1h3.08a1,1,0,0,1,.731.317,1,1,0,0,1,.267.751l-1.13,16.471a1.008,1.008,0,0,1-.112.395c-1.9,3.63-3.09,5.9-5,9.532A1,1,0,0,1,163.95-450Z" fill="#00598d"/>
    </g>
    <g id="Group_3570" data-name="Group 3570">
      <path id="Path_7509" data-name="Path 7509" d="M172-470l-.084,0-24-2a1,1,0,0,1-.913-1.08.993.993,0,0,1,1.079-.914l24,2a1,1,0,0,1,.913,1.08A1,1,0,0,1,172-470Z" fill="#00598d"/>
    </g>
    <g id="Group_3571" data-name="Group 3571">
      <path id="Path_7510" data-name="Path 7510" d="M172-465l-.084,0-24-2a1,1,0,0,1-.913-1.08.989.989,0,0,1,1.079-.914l24,2a1,1,0,0,1,.913,1.08A1,1,0,0,1,172-465Z" fill="#00598d"/>
    </g>
    <g id="Group_3572" data-name="Group 3572">
      <path id="Path_7511" data-name="Path 7511" d="M171-460c-.03,0-.061,0-.091,0l-14.019-1.27a1,1,0,0,1-.907-1.086,1.008,1.008,0,0,1,1.086-.906L171.09-462A1,1,0,0,1,172-460.91,1,1,0,0,1,171-460Z" fill="#00598d"/>
    </g>
    <g id="Group_3573" data-name="Group 3573">
      <path id="Path_7512" data-name="Path 7512" d="M153.1-461.63c-.031,0-.061,0-.091,0l-4.1-.37A1,1,0,0,1,148-463.09,1.011,1.011,0,0,1,149.09-464l4.1.37a1,1,0,0,1,.907,1.086A1,1,0,0,1,153.1-461.63Z" fill="#00598d"/>
    </g>
    <g id="Group_3574" data-name="Group 3574">
      <path id="Path_7513" data-name="Path 7513" d="M169-455c-.035,0-.07,0-.105-.005l-19-2a1,1,0,0,1-.89-1.1,1.007,1.007,0,0,1,1.1-.891l19,2a1,1,0,0,1,.89,1.1A1,1,0,0,1,169-455Z" fill="#00598d"/>
    </g>
    <circle id="Ellipse_400" data-name="Ellipse 400" cx="1" cy="1" r="1" transform="translate(140.469 -504.728)" fill="#00598d"/>
  </g>
</svg>
