<svg xmlns="http://www.w3.org/2000/svg" width="139.744" height="23.832" viewBox="0 0 139.744 23.832">
  <g id="Layer_1" data-name="Layer 1" transform="translate(-85.376 -373.383)">
    <path id="Path_4938" data-name="Path 4938" d="M100.466,391.421l2.337-2.229L89.959,376.645l2.261-2.154,12.606,12.775,2.34-2.229-10.8-10.546h13.117q.047,8.71.095,17.421c0,3.408-2.427,6.046-6.422,6.046H85.376V385.1L95.841,395.32l2.534-1.977L85.6,380.8l2.02-1.927,12.847,12.548Z" transform="translate(0 -0.743)" fill="#ec6500" fill-rule="evenodd"/>
    <path id="Path_4939" data-name="Path 4939" d="M191.381,382.305v3.462h1.6a3.3,3.3,0,0,0,1.889-.45,1.5,1.5,0,0,0,.648-1.313,1.466,1.466,0,0,0-.59-1.267,2.994,2.994,0,0,0-1.765-.432Zm0-5.9v3.29h1.236a3.565,3.565,0,0,0,1.934-.422,1.425,1.425,0,0,0,.637-1.282,1.335,1.335,0,0,0-.6-1.186,3.247,3.247,0,0,0-1.776-.4Zm-3.993-2.655h6.263a7.425,7.425,0,0,1,4.171.959,3.234,3.234,0,0,1,1.4,2.857,3.126,3.126,0,0,1-.729,2.129,4.183,4.183,0,0,1-2.13,1.213,4.173,4.173,0,0,1,2.408,1.194,3.248,3.248,0,0,1,.847,2.313,3.407,3.407,0,0,1-1.537,3.072,8.845,8.845,0,0,1-4.743,1h-5.95V373.748Zm21.909,2.5a3.006,3.006,0,0,0-2.545,1.317,5.809,5.809,0,0,0-.963,3.509,5.867,5.867,0,0,0,.957,3.53,3.108,3.108,0,0,0,5.077,0,6.983,6.983,0,0,0,0-7.031,2.974,2.974,0,0,0-2.526-1.325Zm0-2.864a7.44,7.44,0,0,1,5.559,2.053,9.009,9.009,0,0,1,0,11.354,8.64,8.64,0,0,1-11.155,0,9.011,9.011,0,0,1,0-11.356,7.5,7.5,0,0,1,5.591-2.049Zm14.182,2.955v3.778h1.433a3.453,3.453,0,0,0,1.986-.461,1.585,1.585,0,0,0,.658-1.388,1.609,1.609,0,0,0-.737-1.462,4.466,4.466,0,0,0-2.329-.468Zm-3.99-2.591h6.076a8.481,8.481,0,0,1,4.509.944,3.205,3.205,0,0,1,1.462,2.894,3.54,3.54,0,0,1-.766,2.34,3.972,3.972,0,0,1-2.246,1.249,3.691,3.691,0,0,1,1.936,2.415l1.829,4.9h-4.247L226.7,384.45a2.541,2.541,0,0,0-.876-1.342,3.168,3.168,0,0,0-1.748-.379h-.593v5.757h-3.99V373.748Zm14.655,0h4.074v8.579a4.94,4.94,0,0,0,.582,2.719,2.1,2.1,0,0,0,1.86.849,2.3,2.3,0,0,0,1.976-.905,4.446,4.446,0,0,0,.671-2.663v-8.579h3.886v8.579a6.545,6.545,0,1,1-13.049,0v-8.579Zm26.332.163-.3,3.041a13.11,13.11,0,0,0-1.794-.569,8.145,8.145,0,0,0-.845-.146,6.439,6.439,0,0,0-.824-.052,4.041,4.041,0,0,0-1.931.382,1.165,1.165,0,0,0-.695,1.038,1.119,1.119,0,0,0,.349.807,2.781,2.781,0,0,0,1.073.585l.676.208a13.153,13.153,0,0,1,3.484,1.442,3.609,3.609,0,0,1,1.178,1.369,4.113,4.113,0,0,1,.383,1.817,4.393,4.393,0,0,1-1.679,3.707,7.857,7.857,0,0,1-4.861,1.292,17.235,17.235,0,0,1-2.291-.156,17.554,17.554,0,0,1-2.314-.467l.344-3.288a12.013,12.013,0,0,0,2.085.715,8.756,8.756,0,0,0,.979.177,7.487,7.487,0,0,0,.947.063,3.571,3.571,0,0,0,1.9-.435,1.328,1.328,0,0,0,.706-1.182c0-.61-.745-1.165-2.235-1.671l-.831-.279a7.739,7.739,0,0,1-3.114-1.75,3.592,3.592,0,0,1-.939-2.567,3.964,3.964,0,0,1,1.653-3.4,7.9,7.9,0,0,1,4.714-1.2,16.859,16.859,0,0,1,2.175.134c.352.043.69.092,1.018.156s.656.142.994.237Zm9.618,3.126-1.981,5.526h3.9l-1.915-5.526Zm-2.377-3.288h4.914l5.79,14.739h-4.358l-1.088-3.122h-5.882l-1.141,3.122h-4.038l5.8-14.739Zm11.819,0h5.089l4.428,8.837a11.788,11.788,0,0,1,.53,1.242c.037.1.136.39.3.871.12.362.241.715.367,1.069-.134-.733-.226-1.409-.286-2.032a16.393,16.393,0,0,1-.092-1.64v-8.348h3.678v14.739h-5.068l-4.6-9.159a13.171,13.171,0,0,1-.6-1.371c-.149-.442-.312-.981-.493-1.619.07.45.128.835.173,1.162s.089.747.14,1.267c.032.3.052.637.073,1.006s.034.675.034.934v7.779h-3.681V373.748Z" transform="translate(-68.432)" fill="#0090df" fill-rule="evenodd"/>
  </g>
</svg>
