<svg xmlns="http://www.w3.org/2000/svg" width="149.405" height="43.188" viewBox="0 0 149.405 43.188">
  <g id="Group_3083" data-name="Group 3083" transform="translate(-221.281 -892.153)">
    <g id="Group_3081" data-name="Group 3081" transform="translate(221.281 892.153)">
      <g id="Group_3078" data-name="Group 3078">
        <path id="Path_4940" data-name="Path 4940" d="M296.911,967.909h-.772a.171.171,0,0,1-.1-.3l.222-.192a1.021,1.021,0,0,1,.668-.253h.774a.171.171,0,0,1,.1.3l-.222.191a1.02,1.02,0,0,1-.669.253" transform="translate(-260.266 -931.3)" fill="#bababa"/>
        <path id="Path_4941" data-name="Path 4941" d="M299.016,965.579l-.772.054a.172.172,0,0,1-.119-.294l.209-.207a1.012,1.012,0,0,1,.648-.3l.771-.054a.17.17,0,0,1,.12.292l-.208.208a1.02,1.02,0,0,1-.648.3" transform="translate(-261.359 -930.056)" fill="#bababa"/>
        <path id="Path_4942" data-name="Path 4942" d="M300.962,963.109l-.767.108a.171.171,0,0,1-.139-.284l.193-.22a1.018,1.018,0,0,1,.626-.342l.767-.109a.17.17,0,0,1,.139.283l-.193.222a1.021,1.021,0,0,1-.626.343" transform="translate(-262.371 -928.741)" fill="#bababa"/>
        <path id="Path_4943" data-name="Path 4943" d="M302.736,960.515l-.758.159a.17.17,0,0,1-.158-.272l.176-.234a1.025,1.025,0,0,1,.6-.387l.757-.16a.171.171,0,0,1,.158.273l-.178.235a1.028,1.028,0,0,1-.6.386" transform="translate(-263.295 -927.362)" fill="#bababa"/>
        <path id="Path_4944" data-name="Path 4944" d="M304.332,957.805l-.743.213a.172.172,0,0,1-.179-.262l.161-.246a1.023,1.023,0,0,1,.572-.427l.744-.212a.171.171,0,0,1,.178.261l-.161.246a1.017,1.017,0,0,1-.573.426" transform="translate(-264.129 -925.926)" fill="#bababa"/>
        <path id="Path_4945" data-name="Path 4945" d="M305.745,955l-.726.264a.17.17,0,0,1-.2-.248l.142-.256a1.014,1.014,0,0,1,.542-.466l.726-.264a.171.171,0,0,1,.2.248l-.144.257a1.016,1.016,0,0,1-.542.465" transform="translate(-264.869 -924.438)" fill="#bababa"/>
        <path id="Path_4946" data-name="Path 4946" d="M306.964,952.1l-.707.316a.172.172,0,0,1-.213-.235l.126-.264a1.018,1.018,0,0,1,.508-.5l.707-.315a.172.172,0,0,1,.213.234l-.126.267a1.018,1.018,0,0,1-.507.5" transform="translate(-265.509 -922.907)" fill="#bababa"/>
        <path id="Path_4947" data-name="Path 4947" d="M307.985,949.129l-.683.362a.17.17,0,0,1-.227-.218l.105-.273a1.032,1.032,0,0,1,.471-.537l.685-.363a.17.17,0,0,1,.226.219l-.1.273a1.021,1.021,0,0,1-.472.538" transform="translate(-266.049 -921.341)" fill="#bababa"/>
        <path id="Path_4948" data-name="Path 4948" d="M308.8,946.1l-.656.411a.172.172,0,0,1-.243-.2l.087-.281a1.023,1.023,0,0,1,.433-.569l.655-.409a.17.17,0,0,1,.242.2l-.086.28a1.012,1.012,0,0,1-.432.568" transform="translate(-266.485 -919.747)" fill="#bababa"/>
        <path id="Path_4949" data-name="Path 4949" d="M309.415,943.029l-.626.454a.17.17,0,0,1-.255-.184l.066-.285a1.018,1.018,0,0,1,.392-.6l.626-.453a.171.171,0,0,1,.256.185l-.067.286a1.024,1.024,0,0,1-.392.6" transform="translate(-266.814 -918.133)" fill="#bababa"/>
        <path id="Path_4950" data-name="Path 4950" d="M309.816,939.931l-.591.5a.171.171,0,0,1-.268-.167l.046-.289a1.015,1.015,0,0,1,.349-.623l.592-.5a.171.171,0,0,1,.268.165l-.046.292a1.028,1.028,0,0,1-.35.623" transform="translate(-267.036 -916.506)" fill="#bababa"/>
        <path id="Path_4951" data-name="Path 4951" d="M310,936.816l-.557.537a.171.171,0,0,1-.28-.148l.026-.292a1.016,1.016,0,0,1,.306-.647l.556-.536a.171.171,0,0,1,.279.148l-.026.292a1.009,1.009,0,0,1-.3.646" transform="translate(-267.147 -914.874)" fill="#bababa"/>
        <path id="Path_4952" data-name="Path 4952" d="M309.979,933.7l-.518.575a.17.17,0,0,1-.289-.127l.006-.295a1.028,1.028,0,0,1,.259-.666l.517-.574a.171.171,0,0,1,.29.129l-.006.293a1.018,1.018,0,0,1-.259.665" transform="translate(-267.15 -913.244)" fill="#bababa"/>
        <path id="Path_4953" data-name="Path 4953" d="M309.723,930.609l-.476.607a.17.17,0,0,1-.3-.106l-.016-.294a1.02,1.02,0,0,1,.213-.681l.476-.608a.171.171,0,0,1,.3.106l.014.294a1.028,1.028,0,0,1-.213.682" transform="translate(-267.025 -911.627)" fill="#bababa"/>
        <path id="Path_4954" data-name="Path 4954" d="M309.247,927.545l-.433.641a.171.171,0,0,1-.306-.086l-.035-.291a1.016,1.016,0,0,1,.164-.7l.433-.64a.17.17,0,0,1,.3.085l.035.291a1.024,1.024,0,0,1-.163.7" transform="translate(-266.782 -910.029)" fill="#bababa"/>
        <path id="Path_4955" data-name="Path 4955" d="M308.554,924.529l-.386.667a.171.171,0,0,1-.31-.065l-.055-.287a1.025,1.025,0,0,1,.116-.706l.386-.668a.17.17,0,0,1,.309.065l.056.288a1.031,1.031,0,0,1-.116.706" transform="translate(-266.425 -908.458)" fill="#bababa"/>
        <path id="Path_4956" data-name="Path 4956" d="M307.652,921.572l-.339.7a.17.17,0,0,1-.312-.044l-.076-.283a1.021,1.021,0,0,1,.065-.712l.339-.695a.171.171,0,0,1,.313.042l.076.284a1.032,1.032,0,0,1-.066.711" transform="translate(-265.958 -906.921)" fill="#bababa"/>
        <path id="Path_4957" data-name="Path 4957" d="M306.543,918.693l-.29.717a.17.17,0,0,1-.315-.022l-.1-.277a1.016,1.016,0,0,1,.015-.714l.29-.717a.169.169,0,0,1,.314.022l.1.277a1.021,1.021,0,0,1-.015.714" transform="translate(-265.382 -905.425)" fill="#bababa"/>
        <path id="Path_4958" data-name="Path 4958" d="M305.233,915.9l-.24.736a.17.17,0,0,1-.315,0l-.113-.271a1.017,1.017,0,0,1-.034-.713l.239-.736a.171.171,0,0,1,.316,0l.115.27a1.023,1.023,0,0,1,.033.713" transform="translate(-264.702 -903.979)" fill="#bababa"/>
        <path id="Path_4959" data-name="Path 4959" d="M303.728,913.218l-.187.75a.171.171,0,0,1-.315.024l-.133-.263a1.023,1.023,0,0,1-.084-.709l.187-.75a.171.171,0,0,1,.316-.022l.132.262a1.014,1.014,0,0,1,.084.708" transform="translate(-263.919 -902.591)" fill="#bababa"/>
        <path id="Path_4960" data-name="Path 4960" d="M302.038,910.647l-.134.762a.171.171,0,0,1-.313.045l-.151-.252a1.017,1.017,0,0,1-.132-.7l.133-.762a.172.172,0,0,1,.313-.046l.15.253a1.023,1.023,0,0,1,.134.7" transform="translate(-263.037 -901.264)" fill="#bababa"/>
        <path id="Path_4961" data-name="Path 4961" d="M300.168,908.207l-.081.768a.17.17,0,0,1-.308.066l-.168-.241a1.022,1.022,0,0,1-.182-.69l.081-.768a.17.17,0,0,1,.308-.068l.169.241a1.016,1.016,0,0,1,.182.691" transform="translate(-262.062 -900.007)" fill="#bababa"/>
        <path id="Path_4962" data-name="Path 4962" d="M298.129,905.905l-.026.773a.171.171,0,0,1-.3.088l-.183-.229a1.006,1.006,0,0,1-.23-.676l.027-.773a.171.171,0,0,1,.3-.088l.184.228a1.012,1.012,0,0,1,.229.676" transform="translate(-260.999 -898.825)" fill="#bababa"/>
        <path id="Path_4963" data-name="Path 4963" d="M295.9,903.757l.026.774a.171.171,0,0,1-.3.109l-.2-.216a1.032,1.032,0,0,1-.278-.658l-.026-.774a.173.173,0,0,1,.3-.109l.2.216a1.021,1.021,0,0,1,.275.659" transform="translate(-259.82 -897.725)" fill="#bababa"/>
        <path id="Path_4964" data-name="Path 4964" d="M293.5,901.773l.08.768a.171.171,0,0,1-.287.13l-.215-.2a1.029,1.029,0,0,1-.322-.638l-.08-.768a.171.171,0,0,1,.288-.13l.215.2a1.019,1.019,0,0,1,.321.637" transform="translate(-258.541 -896.712)" fill="#bababa"/>
        <path id="Path_4965" data-name="Path 4965" d="M290.965,899.958l.134.762a.171.171,0,0,1-.28.148l-.227-.184a1.021,1.021,0,0,1-.365-.615l-.133-.76a.171.171,0,0,1,.277-.151l.229.186a1.022,1.022,0,0,1,.365.613" transform="translate(-257.192 -895.79)" fill="#bababa"/>
        <path id="Path_4966" data-name="Path 4966" d="M288.309,898.326l.187.75a.17.17,0,0,1-.268.167l-.24-.169a1.022,1.022,0,0,1-.407-.587l-.188-.75a.171.171,0,0,1,.268-.168l.24.168a1.029,1.029,0,0,1,.407.588" transform="translate(-255.782 -894.964)" fill="#bababa"/>
        <path id="Path_4967" data-name="Path 4967" d="M285.548,896.882l.239.736a.171.171,0,0,1-.255.186l-.251-.152a1.017,1.017,0,0,1-.447-.557l-.239-.735a.17.17,0,0,1,.254-.186l.251.152a1.018,1.018,0,0,1,.447.556" transform="translate(-254.32 -894.239)" fill="#bababa"/>
        <path id="Path_4968" data-name="Path 4968" d="M282.692,895.637l.29.716a.172.172,0,0,1-.243.2l-.26-.133a1.021,1.021,0,0,1-.485-.525l-.29-.717a.171.171,0,0,1,.241-.2l.262.134a1.013,1.013,0,0,1,.484.525" transform="translate(-252.81 -893.617)" fill="#bababa"/>
        <path id="Path_4969" data-name="Path 4969" d="M279.755,894.591l.339.695a.171.171,0,0,1-.226.22l-.27-.117a1.019,1.019,0,0,1-.521-.49l-.339-.695a.171.171,0,0,1,.228-.219l.269.116a1.017,1.017,0,0,1,.521.49" transform="translate(-251.259 -893.102)" fill="#bababa"/>
        <path id="Path_4970" data-name="Path 4970" d="M276.754,893.753l.387.669a.171.171,0,0,1-.211.236l-.277-.1a1.024,1.024,0,0,1-.553-.452l-.387-.669a.171.171,0,0,1,.21-.236l.276.1a1.019,1.019,0,0,1,.555.451" transform="translate(-249.677 -892.697)" fill="#bababa"/>
        <path id="Path_4971" data-name="Path 4971" d="M273.7,893.126l.433.64a.171.171,0,0,1-.194.25l-.283-.076a1.03,1.03,0,0,1-.584-.412l-.432-.642a.171.171,0,0,1,.194-.25l.283.078a1.014,1.014,0,0,1,.583.411" transform="translate(-248.072 -892.403)" fill="#bababa"/>
        <path id="Path_4972" data-name="Path 4972" d="M270.612,892.714l.476.608a.171.171,0,0,1-.176.262l-.288-.056a1.018,1.018,0,0,1-.612-.371l-.475-.609a.171.171,0,0,1,.175-.262l.287.058a1.014,1.014,0,0,1,.611.371" transform="translate(-246.449 -892.221)" fill="#bababa"/>
        <path id="Path_4973" data-name="Path 4973" d="M267.5,892.518l.517.574a.171.171,0,0,1-.158.273l-.29-.035a1.021,1.021,0,0,1-.636-.328l-.518-.575a.171.171,0,0,1,.158-.274l.291.036a1.025,1.025,0,0,1,.636.328" transform="translate(-244.818 -892.153)" fill="#bababa"/>
        <path id="Path_4974" data-name="Path 4974" d="M264.387,892.539l.557.538a.171.171,0,0,1-.139.284l-.292-.017a1.013,1.013,0,0,1-.656-.281l-.557-.537a.171.171,0,0,1,.138-.285l.293.017a1.022,1.022,0,0,1,.657.281" transform="translate(-243.186 -892.199)" fill="#bababa"/>
        <path id="Path_4975" data-name="Path 4975" d="M261.28,892.775l.592.5a.17.17,0,0,1-.117.292l-.294,0a1.009,1.009,0,0,1-.674-.234l-.593-.5a.171.171,0,0,1,.118-.293l.293,0a1.026,1.026,0,0,1,.675.234" transform="translate(-241.561 -892.355)" fill="#bababa"/>
        <path id="Path_4976" data-name="Path 4976" d="M258.2,893.2l.626.453a.171.171,0,0,1-.1.3l-.293.025a1.019,1.019,0,0,1-.689-.188l-.625-.455a.172.172,0,0,1,.1-.3l.292-.023a1.015,1.015,0,0,1,.689.189" transform="translate(-239.953 -892.601)" fill="#bababa"/>
        <path id="Path_4977" data-name="Path 4977" d="M255.154,893.842l.656.409a.172.172,0,0,1-.075.308l-.291.045a1.019,1.019,0,0,1-.7-.14l-.656-.409a.171.171,0,0,1,.075-.307l.29-.044a1.012,1.012,0,0,1,.7.139" transform="translate(-238.365 -892.955)" fill="#bababa"/>
        <path id="Path_4978" data-name="Path 4978" d="M252.166,894.688l.683.361a.172.172,0,0,1-.054.312l-.286.065a1.01,1.01,0,0,1-.708-.09l-.684-.362a.17.17,0,0,1,.055-.31l.286-.067a1.019,1.019,0,0,1,.709.091" transform="translate(-236.81 -893.414)" fill="#bababa"/>
        <path id="Path_4979" data-name="Path 4979" d="M249.244,895.735l.707.312a.173.173,0,0,1-.032.317l-.282.084a1.015,1.015,0,0,1-.713-.04l-.707-.314a.171.171,0,0,1,.032-.315l.281-.086a1.018,1.018,0,0,1,.713.042" transform="translate(-235.292 -893.977)" fill="#bababa"/>
        <path id="Path_4980" data-name="Path 4980" d="M246.408,896.977l.727.265a.171.171,0,0,1-.01.316l-.274.1a1.017,1.017,0,0,1-.715.01l-.726-.264a.172.172,0,0,1,.01-.317l.274-.1a1.021,1.021,0,0,1,.713-.01" transform="translate(-233.821 -894.64)" fill="#bababa"/>
        <path id="Path_4981" data-name="Path 4981" d="M243.667,898.413l.743.213a.172.172,0,0,1,.013.317l-.267.121a1.027,1.027,0,0,1-.712.06l-.744-.213a.171.171,0,0,1-.011-.316l.267-.123a1.021,1.021,0,0,1,.712-.059" transform="translate(-232.401 -895.4)" fill="#bababa"/>
        <path id="Path_4982" data-name="Path 4982" d="M241.035,900.032l.757.162a.171.171,0,0,1,.034.314l-.257.142a1.023,1.023,0,0,1-.706.109l-.757-.161a.171.171,0,0,1-.035-.314l.259-.142a1.025,1.025,0,0,1,.7-.109" transform="translate(-231.042 -896.254)" fill="#bababa"/>
        <path id="Path_4983" data-name="Path 4983" d="M238.528,901.829l.765.108a.17.17,0,0,1,.056.31l-.248.16a1.018,1.018,0,0,1-.7.157l-.767-.107a.171.171,0,0,1-.056-.311l.247-.161a1.025,1.025,0,0,1,.7-.156" transform="translate(-229.749 -897.198)" fill="#bababa"/>
        <path id="Path_4984" data-name="Path 4984" d="M236.154,903.792l.772.054a.171.171,0,0,1,.077.306l-.236.174a1.018,1.018,0,0,1-.683.207l-.771-.054a.171.171,0,0,1-.078-.307l.235-.176a1.016,1.016,0,0,1,.684-.205" transform="translate(-228.528 -898.226)" fill="#bababa"/>
        <path id="Path_4985" data-name="Path 4985" d="M233.928,905.91h.774a.172.172,0,0,1,.1.3l-.221.192a1.023,1.023,0,0,1-.668.253h-.773a.171.171,0,0,1-.1-.3l.222-.192a1.024,1.024,0,0,1,.668-.254" transform="translate(-227.386 -899.333)" fill="#bababa"/>
        <path id="Path_4986" data-name="Path 4986" d="M231.859,908.126l.772-.054a.172.172,0,0,1,.12.293l-.21.206a1.021,1.021,0,0,1-.647.3l-.772.054a.171.171,0,0,1-.12-.292l.208-.207a1.016,1.016,0,0,1,.649-.3" transform="translate(-226.328 -900.461)" fill="#bababa"/>
        <path id="Path_4987" data-name="Path 4987" d="M229.958,910.479l.767-.107a.171.171,0,0,1,.139.284l-.193.221a1.02,1.02,0,0,1-.626.343l-.765.108a.172.172,0,0,1-.141-.285l.194-.22a1.022,1.022,0,0,1,.626-.344" transform="translate(-225.36 -901.661)" fill="#bababa"/>
        <path id="Path_4988" data-name="Path 4988" d="M228.234,912.963l.755-.161a.17.17,0,0,1,.159.273l-.176.234a1.027,1.027,0,0,1-.6.386l-.756.16a.171.171,0,0,1-.159-.272l.177-.234a1.014,1.014,0,0,1,.6-.386" transform="translate(-224.486 -902.928)" fill="#bababa"/>
        <path id="Path_4989" data-name="Path 4989" d="M226.692,915.563l.744-.215a.172.172,0,0,1,.178.262l-.161.245a1.013,1.013,0,0,1-.573.429l-.743.213a.171.171,0,0,1-.178-.261l.161-.247a1.023,1.023,0,0,1,.572-.427" transform="translate(-223.709 -904.255)" fill="#bababa"/>
        <path id="Path_4990" data-name="Path 4990" d="M225.347,918.271l.727-.263a.171.171,0,0,1,.2.248l-.143.256a1.009,1.009,0,0,1-.542.466l-.726.265a.171.171,0,0,1-.2-.249l.143-.257a1.029,1.029,0,0,1,.542-.467" transform="translate(-223.034 -905.641)" fill="#bababa"/>
        <path id="Path_4991" data-name="Path 4991" d="M224.2,921.069l.707-.314a.171.171,0,0,1,.212.235l-.125.265a1.022,1.022,0,0,1-.508.5l-.707.315a.171.171,0,0,1-.211-.234l.124-.266a1.032,1.032,0,0,1,.508-.5" transform="translate(-222.466 -907.073)" fill="#bababa"/>
        <path id="Path_4992" data-name="Path 4992" d="M223.258,923.947l.684-.363a.171.171,0,0,1,.228.218l-.106.274a1.017,1.017,0,0,1-.471.536l-.683.364a.17.17,0,0,1-.227-.219l.1-.274a1.034,1.034,0,0,1,.471-.537" transform="translate(-222.006 -908.547)" fill="#bababa"/>
        <path id="Path_4993" data-name="Path 4993" d="M222.525,926.889l.656-.41a.172.172,0,0,1,.243.2l-.086.281a1.034,1.034,0,0,1-.433.568l-.657.409a.17.17,0,0,1-.242-.2l.086-.279a1.024,1.024,0,0,1,.434-.569" transform="translate(-221.655 -910.055)" fill="#bababa"/>
        <path id="Path_4994" data-name="Path 4994" d="M222.005,929.879l.626-.455a.171.171,0,0,1,.256.185l-.067.286a1.021,1.021,0,0,1-.392.6l-.625.454a.171.171,0,0,1-.256-.185l.066-.285a1.032,1.032,0,0,1,.392-.6" transform="translate(-221.418 -911.589)" fill="#bababa"/>
        <path id="Path_4995" data-name="Path 4995" d="M221.7,932.906l.592-.5a.171.171,0,0,1,.269.166l-.047.289a1.014,1.014,0,0,1-.348.624l-.593.5a.169.169,0,0,1-.267-.165l.045-.289a1.025,1.025,0,0,1,.35-.624" transform="translate(-221.293 -913.144)" fill="#bababa"/>
        <path id="Path_4996" data-name="Path 4996" d="M221.614,935.956l.556-.537a.171.171,0,0,1,.279.148l-.025.292a1.025,1.025,0,0,1-.306.646l-.557.537a.171.171,0,0,1-.279-.147l.027-.293a1.014,1.014,0,0,1,.305-.646" transform="translate(-221.281 -914.711)" fill="#bababa"/>
        <path id="Path_4997" data-name="Path 4997" d="M221.744,939.01l.517-.575a.171.171,0,0,1,.289.127l-.007.294a1.007,1.007,0,0,1-.259.666l-.517.575a.171.171,0,0,1-.288-.128l.006-.293a1.013,1.013,0,0,1,.259-.666" transform="translate(-221.385 -916.281)" fill="#bababa"/>
        <path id="Path_4998" data-name="Path 4998" d="M222.073,942.053l.476-.609a.172.172,0,0,1,.3.107l.015.3a1.025,1.025,0,0,1-.213.68l-.476.61a.171.171,0,0,1-.3-.108l-.015-.293a1.024,1.024,0,0,1,.213-.682" transform="translate(-221.583 -917.847)" fill="#bababa"/>
        <path id="Path_4999" data-name="Path 4999" d="M222.609,945.075l.432-.641a.17.17,0,0,1,.3.085l.036.293a1.024,1.024,0,0,1-.164.694l-.434.641a.17.17,0,0,1-.3-.086l-.035-.29a1.015,1.015,0,0,1,.164-.695" transform="translate(-221.885 -919.402)" fill="#bababa"/>
        <path id="Path_5000" data-name="Path 5000" d="M223.351,948.057l.387-.67a.171.171,0,0,1,.309.066l.055.287a1.018,1.018,0,0,1-.116.705l-.386.67a.171.171,0,0,1-.309-.065l-.055-.288a1.03,1.03,0,0,1,.115-.7" transform="translate(-222.292 -920.939)" fill="#bababa"/>
        <path id="Path_5001" data-name="Path 5001" d="M224.3,950.984l.339-.7a.171.171,0,0,1,.313.043l.075.284a1.02,1.02,0,0,1-.065.712l-.339.695a.172.172,0,0,1-.314-.043l-.075-.285a1.012,1.012,0,0,1,.066-.711" transform="translate(-222.802 -922.449)" fill="#bababa"/>
        <path id="Path_5002" data-name="Path 5002" d="M225.445,953.844l.289-.716a.171.171,0,0,1,.316.021l.095.278a1.02,1.02,0,0,1-.015.714l-.29.716a.17.17,0,0,1-.315-.021l-.1-.277a1.032,1.032,0,0,1,.016-.715" transform="translate(-223.417 -923.925)" fill="#bababa"/>
        <path id="Path_5003" data-name="Path 5003" d="M226.785,956.624l.24-.736a.17.17,0,0,1,.315,0l.114.271a1.022,1.022,0,0,1,.034.713l-.239.736a.171.171,0,0,1-.316,0l-.113-.272a1.017,1.017,0,0,1-.035-.713" transform="translate(-224.129 -925.36)" fill="#bababa"/>
        <path id="Path_5004" data-name="Path 5004" d="M228.313,959.308l.188-.749a.17.17,0,0,1,.315-.023l.134.261a1.032,1.032,0,0,1,.083.709l-.188.751a.171.171,0,0,1-.315.022l-.133-.262a1.029,1.029,0,0,1-.084-.709" transform="translate(-224.936 -926.748)" fill="#bababa"/>
        <path id="Path_5005" data-name="Path 5005" d="M230.022,961.885l.134-.761a.172.172,0,0,1,.314-.046l.151.252a1.028,1.028,0,0,1,.132.7l-.133.761a.172.172,0,0,1-.314.046l-.15-.252a1.033,1.033,0,0,1-.134-.7" transform="translate(-225.836 -928.081)" fill="#bababa"/>
        <path id="Path_5006" data-name="Path 5006" d="M231.9,964.34l.082-.768a.171.171,0,0,1,.309-.066l.168.241a1.019,1.019,0,0,1,.182.69l-.081.77a.17.17,0,0,1-.308.065l-.168-.24a1.033,1.033,0,0,1-.182-.691" transform="translate(-226.822 -929.352)" fill="#bababa"/>
        <path id="Path_5007" data-name="Path 5007" d="M233.949,966.666l.028-.773a.17.17,0,0,1,.3-.088l.185.229a1.019,1.019,0,0,1,.229.677l-.027.773a.171.171,0,0,1-.3.087l-.185-.229a1.019,1.019,0,0,1-.229-.675" transform="translate(-227.892 -930.557)" fill="#bababa"/>
        <path id="Path_5008" data-name="Path 5008" d="M236.118,968.844l-.027-.774a.171.171,0,0,1,.3-.108l.2.215a1.029,1.029,0,0,1,.277.658l.026.772a.171.171,0,0,1-.3.109l-.2-.215a1.024,1.024,0,0,1-.276-.657" transform="translate(-229.01 -931.688)" fill="#bababa"/>
        <path id="Path_5009" data-name="Path 5009" d="M238.4,970.867l-.081-.769a.171.171,0,0,1,.288-.129l.215.2a1.022,1.022,0,0,1,.322.638l.081.769a.171.171,0,0,1-.288.129l-.216-.2a1.016,1.016,0,0,1-.321-.637" transform="translate(-230.175 -932.74)" fill="#bababa"/>
        <path id="Path_5010" data-name="Path 5010" d="M240.824,972.727l-.135-.761a.172.172,0,0,1,.28-.15l.228.185a1.023,1.023,0,0,1,.364.613l.134.762a.171.171,0,0,1-.277.151l-.229-.185a1.019,1.019,0,0,1-.365-.614" transform="translate(-231.409 -933.708)" fill="#bababa"/>
        <path id="Path_5011" data-name="Path 5011" d="M243.369,974.414l-.187-.751a.171.171,0,0,1,.268-.168l.24.169a1.014,1.014,0,0,1,.407.586l.188.751a.17.17,0,0,1-.268.167l-.241-.167a1.028,1.028,0,0,1-.407-.588" transform="translate(-232.708 -934.588)" fill="#bababa"/>
        <path id="Path_5012" data-name="Path 5012" d="M246.027,975.919l-.239-.736a.171.171,0,0,1,.255-.186l.252.152a1.03,1.03,0,0,1,.447.557l.239.736a.172.172,0,0,1-.256.187l-.251-.154a1.018,1.018,0,0,1-.447-.556" transform="translate(-234.067 -935.375)" fill="#bababa"/>
        <path id="Path_5013" data-name="Path 5013" d="M248.783,977.234l-.291-.716a.172.172,0,0,1,.242-.2l.26.134a1.013,1.013,0,0,1,.485.524l.289.717a.17.17,0,0,1-.24.2l-.262-.135a1.009,1.009,0,0,1-.484-.524" transform="translate(-235.476 -936.066)" fill="#bababa"/>
        <path id="Path_5014" data-name="Path 5014" d="M251.624,978.354l-.338-.694a.17.17,0,0,1,.226-.22l.27.116a1.025,1.025,0,0,1,.521.49l.338.695a.17.17,0,0,1-.226.219l-.27-.115a1.024,1.024,0,0,1-.521-.49" transform="translate(-236.932 -936.655)" fill="#bababa"/>
        <path id="Path_5015" data-name="Path 5015" d="M254.536,979.276l-.386-.669a.169.169,0,0,1,.21-.234l.277.095a1.019,1.019,0,0,1,.553.452l.387.669a.171.171,0,0,1-.211.236l-.276-.1a1.018,1.018,0,0,1-.554-.452" transform="translate(-238.424 -937.144)" fill="#bababa"/>
        <path id="Path_5016" data-name="Path 5016" d="M257.5,979.989l-.432-.64a.171.171,0,0,1,.194-.25l.283.077a1.026,1.026,0,0,1,.584.413l.432.641a.171.171,0,0,1-.193.25l-.284-.077a1.02,1.02,0,0,1-.583-.413" transform="translate(-239.946 -937.525)" fill="#bababa"/>
        <path id="Path_5017" data-name="Path 5017" d="M260.518,980.5l-.475-.608a.17.17,0,0,1,.175-.263l.287.057a1.012,1.012,0,0,1,.612.37l.476.609a.171.171,0,0,1-.176.262l-.287-.057a1.014,1.014,0,0,1-.611-.371" transform="translate(-241.493 -937.802)" fill="#bababa"/>
        <path id="Path_5018" data-name="Path 5018" d="M263.557,980.792l-.517-.575a.171.171,0,0,1,.157-.274l.29.036a1.014,1.014,0,0,1,.635.328l.518.573a.171.171,0,0,1-.158.275l-.291-.037a1.024,1.024,0,0,1-.635-.326" transform="translate(-243.054 -937.968)" fill="#bababa"/>
        <path id="Path_5019" data-name="Path 5019" d="M266.611,980.873l-.556-.538a.17.17,0,0,1,.138-.284l.292.017a1.014,1.014,0,0,1,.657.28l.556.538a.171.171,0,0,1-.138.284l-.293-.017a1.027,1.027,0,0,1-.657-.282" transform="translate(-244.624 -938.026)" fill="#bababa"/>
        <path id="Path_5020" data-name="Path 5020" d="M269.663,980.736l-.592-.5a.171.171,0,0,1,.117-.293l.294,0a1.015,1.015,0,0,1,.675.237l.593.5a.171.171,0,0,1-.118.293l-.294,0a1.017,1.017,0,0,1-.674-.234" transform="translate(-246.194 -937.968)" fill="#bababa"/>
        <path id="Path_5021" data-name="Path 5021" d="M272.7,980.369l-.626-.455a.171.171,0,0,1,.1-.3l.294-.023a1.01,1.01,0,0,1,.688.186l.627.455a.17.17,0,0,1-.1.3l-.293.026a1.03,1.03,0,0,1-.689-.187" transform="translate(-247.756 -937.782)" fill="#bababa"/>
        <path id="Path_5022" data-name="Path 5022" d="M275.7,979.782l-.655-.411a.17.17,0,0,1,.075-.306l.29-.044a1.018,1.018,0,0,1,.7.139l.655.409a.171.171,0,0,1-.075.307l-.291.044a1.026,1.026,0,0,1-.7-.139" transform="translate(-249.303 -937.481)" fill="#bababa"/>
        <path id="Path_5023" data-name="Path 5023" d="M278.662,978.984l-.684-.362a.172.172,0,0,1,.054-.312l.285-.065a1.031,1.031,0,0,1,.711.09l.682.363a.171.171,0,0,1-.054.311l-.286.065a1.013,1.013,0,0,1-.708-.09" transform="translate(-250.829 -937.069)" fill="#bababa"/>
        <path id="Path_5024" data-name="Path 5024" d="M281.559,977.979l-.706-.315a.17.17,0,0,1,.031-.314l.281-.085a1.03,1.03,0,0,1,.713.04l.706.315a.171.171,0,0,1-.031.315l-.281.085a1.026,1.026,0,0,1-.713-.041" transform="translate(-252.323 -936.548)" fill="#bababa"/>
        <path id="Path_5025" data-name="Path 5025" d="M284.382,976.77l-.727-.266a.171.171,0,0,1,.009-.315l.276-.106a1.026,1.026,0,0,1,.714-.008l.726.263a.172.172,0,0,1-.009.316l-.275.1a1.022,1.022,0,0,1-.714.01" transform="translate(-253.78 -935.92)" fill="#bababa"/>
        <path id="Path_5026" data-name="Path 5026" d="M287.116,975.361l-.744-.213a.172.172,0,0,1-.012-.317l.267-.122a1.027,1.027,0,0,1,.713-.06l.744.214a.172.172,0,0,1,.012.317l-.268.123a1.021,1.021,0,0,1-.711.058" transform="translate(-255.193 -935.187)" fill="#bababa"/>
        <path id="Path_5027" data-name="Path 5027" d="M289.748,973.764l-.756-.16a.171.171,0,0,1-.033-.315l.257-.142a1.017,1.017,0,0,1,.707-.108l.755.161a.171.171,0,0,1,.035.314l-.258.142a1.025,1.025,0,0,1-.706.108" transform="translate(-256.554 -934.355)" fill="#bababa"/>
        <path id="Path_5028" data-name="Path 5028" d="M292.267,971.984l-.767-.108a.17.17,0,0,1-.055-.31l.247-.159a1.011,1.011,0,0,1,.7-.159l.766.108a.171.171,0,0,1,.057.31l-.247.16a1.026,1.026,0,0,1-.7.158" transform="translate(-257.857 -933.426)" fill="#bababa"/>
        <path id="Path_5029" data-name="Path 5029" d="M294.659,970.03l-.771-.055a.17.17,0,0,1-.076-.306l.234-.176a1.014,1.014,0,0,1,.684-.2l.771.053a.171.171,0,0,1,.078.307l-.236.177a1.026,1.026,0,0,1-.684.205" transform="translate(-259.097 -932.407)" fill="#bababa"/>
        <path id="Path_5030" data-name="Path 5030" d="M262.63,899.334l1.13-.812-.437-1.333,1.122.823,1.132-.828-.436,1.322,1.137.821-1.392-.006-.43,1.335-.423-1.325Z" transform="translate(-242.861 -894.779)" fill="#bababa" fill-rule="evenodd"/>
        <path id="Path_5031" data-name="Path 5031" d="M249.085,902.454l.732-1.183-.914-1.064,1.351.331.73-1.2.1,1.388,1.365.324-1.288.526.114,1.4-.9-1.063Z" transform="translate(-235.697 -895.904)" fill="#bababa" fill-rule="evenodd"/>
        <path id="Path_5032" data-name="Path 5032" d="M237.427,910.882l.224-1.373-1.251-.634,1.375-.211.215-1.386.626,1.242L240,908.3l-.989.979.64,1.249-1.237-.638Z" transform="translate(-229.172 -900.046)" fill="#bababa" fill-rule="evenodd"/>
        <path id="Path_5033" data-name="Path 5033" d="M230.186,923.334l-.318-1.354-1.4-.107,1.19-.72-.331-1.363,1.054.909,1.194-.735-.538,1.282,1.068.909-1.386-.116Z" transform="translate(-225.033 -906.576)" fill="#bababa" fill-rule="evenodd"/>
        <path id="Path_5034" data-name="Path 5034" d="M228.462,937.151l-.813-1.129-1.333.437.823-1.122-.828-1.132,1.321.436.822-1.136-.006,1.391,1.335.43-1.325.424Z" transform="translate(-223.907 -913.733)" fill="#bababa" fill-rule="evenodd"/>
        <path id="Path_5035" data-name="Path 5035" d="M231.582,950.8l-1.183-.732-1.065.914.331-1.352-1.2-.73,1.388-.1.324-1.365.526,1.289,1.4-.113-1.062.9Z" transform="translate(-225.032 -921.004)" fill="#bababa" fill-rule="evenodd"/>
        <path id="Path_5036" data-name="Path 5036" d="M240.01,962.4l-1.373-.224L238,963.431l-.212-1.375-1.386-.215,1.243-.627-.223-1.385.979.989,1.248-.64-.638,1.237Z" transform="translate(-229.174 -927.472)" fill="#bababa" fill-rule="evenodd"/>
        <path id="Path_5037" data-name="Path 5037" d="M252.462,969.607l-1.354.319-.107,1.4-.721-1.189-1.363.331.909-1.054-.736-1.194,1.283.538.908-1.068-.116,1.386Z" transform="translate(-235.704 -931.573)" fill="#bababa" fill-rule="evenodd"/>
        <path id="Path_5038" data-name="Path 5038" d="M266.278,971.512l-1.129.813.437,1.332-1.122-.823-1.133.827.436-1.321-1.137-.822,1.392.006.43-1.335.424,1.326Z" transform="translate(-242.86 -932.879)" fill="#bababa" fill-rule="evenodd"/>
        <path id="Path_5039" data-name="Path 5039" d="M279.932,968.212,279.2,969.4l.913,1.064-1.352-.331-.73,1.2-.1-1.388-1.365-.324,1.288-.526-.113-1.4.9,1.062Z" transform="translate(-250.133 -931.574)" fill="#bababa" fill-rule="evenodd"/>
        <path id="Path_5040" data-name="Path 5040" d="M291.532,959.82l-.224,1.373,1.251.634-1.375.212-.216,1.385-.626-1.243-1.385.224.988-.98-.64-1.247,1.238.637Z" transform="translate(-256.601 -927.468)" fill="#bababa" fill-rule="evenodd"/>
        <path id="Path_5041" data-name="Path 5041" d="M298.735,947.432l.318,1.354,1.4.106-1.19.721.331,1.363-1.054-.909-1.194.736.539-1.284-1.069-.908,1.387.116Z" transform="translate(-260.701 -921.002)" fill="#bababa" fill-rule="evenodd"/>
        <path id="Path_5042" data-name="Path 5042" d="M300.64,933.5l.813,1.129,1.333-.437-.823,1.122.827,1.132-1.321-.436-.822,1.137.007-1.392-1.335-.43,1.325-.423Z" transform="translate(-262.008 -913.732)" fill="#bababa" fill-rule="evenodd"/>
        <path id="Path_5043" data-name="Path 5043" d="M297.34,919.958l1.183.733,1.064-.914-.331,1.351,1.2.73-1.387.1-.324,1.364-.526-1.287-1.4.113,1.062-.9Z" transform="translate(-260.703 -906.569)" fill="#bababa" fill-rule="evenodd"/>
        <path id="Path_5044" data-name="Path 5044" d="M288.947,908.3l1.374.224.633-1.251.211,1.375,1.386.216-1.243.626.223,1.385-.979-.989-1.248.641.637-1.237Z" transform="translate(-256.595 -900.044)" fill="#bababa" fill-rule="evenodd"/>
        <path id="Path_5045" data-name="Path 5045" d="M276.559,901.059l1.354-.319.106-1.4.722,1.19,1.363-.331-.909,1.054.736,1.194-1.283-.539-.908,1.069.115-1.387Z" transform="translate(-250.13 -895.905)" fill="#bababa" fill-rule="evenodd"/>
        <path id="Path_5046" data-name="Path 5046" d="M250.282,906.671a14.479,14.479,0,1,0,14.479,14.479,14.5,14.5,0,0,0-14.479-14.479m0,29.289a14.81,14.81,0,1,1,14.81-14.81,14.826,14.826,0,0,1-14.81,14.81" transform="translate(-228.687 -899.557)" fill="#bababa"/>
      </g>
      <g id="Group_3080" data-name="Group 3080" transform="translate(15.071 11.334)">
        <g id="Group_3079" data-name="Group 3079" transform="translate(12.497 12.655)" opacity="0.5">
          <path id="Path_5047" data-name="Path 5047" d="M278.995,943.565l0,0-.011,0-.011,0-.013,0,0,.005,0,0a.058.058,0,0,0,.008.008l.007.008,0,0-.04-.008,0,0,.022,0,.013,0h0l-.009-.01-.008-.009-.007-.008v0l.011,0,.011,0,.013,0h0l-.01-.01-.015-.016,0,0Z" transform="translate(-278.94 -942.958)" fill="#bababa"/>
          <path id="Path_5048" data-name="Path 5048" d="M279.052,943.465l0,0h-.011l-.011,0-.013,0,0,.005,0,.005.008.008.008.009,0,0-.04-.008,0,0,.022,0,.013,0h0l-.009-.01-.008-.009-.008-.008,0,0,.011,0,.011,0,.013,0h0l-.009-.009-.016-.016,0,0Z" transform="translate(-278.97 -942.906)" fill="#bababa"/>
          <path id="Path_5049" data-name="Path 5049" d="M279.109,943.365v0l-.011,0h-.011l-.014,0,.005,0,0,0,.007.009.008.007,0,0-.04-.008,0,0,.022,0,.012,0h0l-.009-.01-.008-.008-.007-.008,0,0,.01,0,.011,0,.013,0h0l-.01-.01-.015-.016,0,0Z" transform="translate(-279 -942.853)" fill="#bababa"/>
          <path id="Path_5050" data-name="Path 5050" d="M279.182,943.358l0,0v0l0,0Z" transform="translate(-279.064 -942.862)" fill="#bababa"/>
          <path id="Path_5051" data-name="Path 5051" d="M279.146,943.259l-.007-.007-.007-.007-.02-.021,0,0,.039.042,0,0-.056-.011,0-.005h.028l.02,0Z" transform="translate(-279.021 -942.793)" fill="#bababa"/>
          <path id="Path_5052" data-name="Path 5052" d="M279.2,943.214l.005,0h0l0,0,0,0v-.01h0v.007l0,.006,0,.005-.005,0H279.2a.022.022,0,0,1-.01,0,.019.019,0,0,1-.008-.006.014.014,0,0,1,0-.006.037.037,0,0,1,0-.007l0,0a.012.012,0,0,1,0-.005l.006,0h.006l.007,0,0,0Zm.008-.021a.017.017,0,0,0-.011,0,.014.014,0,0,0-.006.005.009.009,0,0,0,0,.009.015.015,0,0,0,.007.007Z" transform="translate(-279.065 -942.775)" fill="#bababa"/>
          <path id="Path_5053" data-name="Path 5053" d="M279.241,943.126l-.025,0v.012l.01.006,0,0-.05-.027,0,0,.034.019h0v-.009l0,0v-.006l0,0v0l0-.005.006.019h.029Z" transform="translate(-279.064 -942.733)" fill="#bababa"/>
          <path id="Path_5054" data-name="Path 5054" d="M279.281,943.086l-.006,0s0,0-.007,0l-.022-.012,0,0,0,0,0,0-.009-.005,0,0,.01,0,0-.005,0,0,0,.006.022.011h.007v0l0,0Z" transform="translate(-279.093 -942.712)" fill="#bababa"/>
          <path id="Path_5055" data-name="Path 5055" d="M279.285,943.014l.005-.006h.012l.008,0,.006,0,0,0v.007a.048.048,0,0,1,0,.008.019.019,0,0,1-.01.007H279.3l-.008,0-.006,0,0,0v-.007A.016.016,0,0,1,279.285,943.014Zm0,0v.01l0,0,.005,0h.015l0,0a.008.008,0,0,0,0-.006l0,0,0,0,0,0-.006,0h0A.011.011,0,0,0,279.289,943.017Z" transform="translate(-279.119 -942.682)" fill="#bababa"/>
          <path id="Path_5056" data-name="Path 5056" d="M279.329,942.942l0,0,0,0a.011.011,0,0,0,0,.008.011.011,0,0,0,.005.006l.022.011,0,0-.034-.018,0,0,.005,0h0a.01.01,0,0,1,0-.007l0-.006,0,0v0Z" transform="translate(-279.135 -942.646)" fill="#bababa"/>
          <path id="Path_5057" data-name="Path 5057" d="M279.364,942.917l.006,0h0l0,0,0,0v-.01h0a.038.038,0,0,1,0,.007l0,.006,0,0,0,0h-.007l-.01,0a.021.021,0,0,1-.008-.006.009.009,0,0,1,0-.006.025.025,0,0,1,0-.006l0-.006,0,0,.005,0h.006l.007,0h0Zm.008-.021a.015.015,0,0,0-.011,0,.01.01,0,0,0-.006.006.01.01,0,0,0,0,.008.012.012,0,0,0,.007.007Z" transform="translate(-279.153 -942.621)" fill="#bababa"/>
          <path id="Path_5058" data-name="Path 5058" d="M279.4,942.859s0,0,0,0a.008.008,0,0,1-.007,0l-.043-.023,0,0,.042.023s.005,0,.006,0h0l0,0Z" transform="translate(-279.152 -942.593)" fill="#bababa"/>
          <path id="Path_5059" data-name="Path 5059" d="M279.431,942.776a.014.014,0,0,1,0,.01.016.016,0,0,1,0,.011l-.005.007-.008,0h-.007l-.007,0-.014-.008-.006,0a.014.014,0,0,1,0-.006.021.021,0,0,1,0-.008l0-.008a.023.023,0,0,1,.008-.008l.01,0v.006a.011.011,0,0,0-.007,0,.014.014,0,0,0-.006.006l0,.006v.005l0,0,0,0,.013.007.005,0h.006l.005,0,0-.005a.016.016,0,0,0,0-.007l0-.007Z" transform="translate(-279.17 -942.553)" fill="#bababa"/>
          <path id="Path_5060" data-name="Path 5060" d="M279.417,942.735l0,0,0,0,0,0Zm.043.024-.034-.019,0,0,.034.019Z" transform="translate(-279.187 -942.536)" fill="#bababa"/>
          <path id="Path_5061" data-name="Path 5061" d="M279.491,942.72l0,0-.016-.034-.011.018h0l.013-.024,0,0,.016.033.011-.019,0,0Z" transform="translate(-279.21 -942.51)" fill="#bababa"/>
          <path id="Path_5062" data-name="Path 5062" d="M279.47,942.644l0,0,0,0,0,0Zm.043.023-.034-.018,0,0,.033.019Z" transform="translate(-279.214 -942.489)" fill="#bababa"/>
          <path id="Path_5063" data-name="Path 5063" d="M279.549,942.549a.013.013,0,0,0-.008,0,.013.013,0,0,0-.006.006v.012l0,0,.021.011,0,.005-.021-.012a.012.012,0,0,0-.008,0,.011.011,0,0,0-.006.005.009.009,0,0,0,0,.008.018.018,0,0,0,.005.007l.021.01,0,0-.034-.019,0,0,.005,0h0a.008.008,0,0,1,0-.007.013.013,0,0,1,0-.006l.005-.005a.014.014,0,0,1,.007,0h0a.013.013,0,0,1,0-.007.014.014,0,0,1,0-.007l0,0,0,0h.005l0,0,.023.012,0,0Z" transform="translate(-279.238 -942.439)" fill="#bababa"/>
          <path id="Path_5064" data-name="Path 5064" d="M279.644,942.547l0,0,0,0,0,0Z" transform="translate(-279.305 -942.438)" fill="#bababa"/>
          <path id="Path_5065" data-name="Path 5065" d="M279.639,942.461l-.022-.012a.013.013,0,0,0-.009,0,.016.016,0,0,0-.007.007v.008l0,0,0,0,.021.011,0,0-.034-.018v0l.006,0h0l0,0v-.01a.013.013,0,0,1,.009-.008.015.015,0,0,1,.01,0l.023.013Z" transform="translate(-279.28 -942.388)" fill="#bababa"/>
          <path id="Path_5066" data-name="Path 5066" d="M279.656,942.4l.005,0h.011l0-.005,0,0v-.006h0v.006l0,.006,0,0,0,0h-.007l-.01,0-.008-.006,0-.006a.009.009,0,0,1,0-.006l0,0a.012.012,0,0,1,0-.006l.006,0h.007l.006,0h0Zm.01-.022a.017.017,0,0,0-.011,0,.01.01,0,0,0-.007.006.009.009,0,0,0,0,.01.02.02,0,0,0,.008.009Z" transform="translate(-279.307 -942.353)" fill="#bababa"/>
          <path id="Path_5067" data-name="Path 5067" d="M279.7,942.348a.007.007,0,0,1-.005,0h-.006l-.024-.013,0,0h0l0,0-.009-.005v0l.01,0,0-.006h0l0,.006.023.013h.007l0,0v0h0Z" transform="translate(-279.313 -942.327)" fill="#bababa"/>
        </g>
        <path id="Path_5068" data-name="Path 5068" d="M258.154,948.282c4.413-6.463,8-2.583,10.435-7.587.02-.04.079-.032.077.011-.043,1.918-.9,9.06-10.513,7.576" transform="translate(-255.595 -928.807)" fill="#bababa" fill-rule="evenodd"/>
        <path id="Subtraction_1" data-name="Subtraction 1" d="M-1011.369-5482.539v0c.017-.522.031-1.023.044-1.508v-.021c.074-2.739.133-4.9.723-6.407,1.028-2.615,3.04-3.85,4.986-5.044,2.166-1.329,4.406-2.7,5.378-5.977a.132.132,0,0,1,.13-.1.14.14,0,0,1,.1.041.132.132,0,0,1,.038.1c-.016,1.18-.013,2.25-.01,3.194.009,3.108.015,5.162-.647,6.619-1.039,2.285-2.822,2.983-4.709,3.723-2.239.877-4.555,1.785-6.019,5.363a.059.059,0,0,1-.012.02Zm7.156-12.222a2.154,2.154,0,0,0-1.644.756,2.119,2.119,0,0,0-.345.558,1.9,1.9,0,0,0-.091.262,2.162,2.162,0,0,0,.026,1.262,2.194,2.194,0,0,0,.667,1,2.206,2.206,0,0,0,1.435.533,2.032,2.032,0,0,0,.294-.02,2.155,2.155,0,0,0,1.35-.737c.031-.037.052-.063.069-.087a2.118,2.118,0,0,0,.406-.895,2.208,2.208,0,0,0-.059-1.084,1.748,1.748,0,0,1-.206,1.091,1.566,1.566,0,0,1-.19.273,1.734,1.734,0,0,1-1.324.607c-.036,0-.075,0-.116,0a1.747,1.747,0,0,1-1.025-.421,1.734,1.734,0,0,1-.3-.327,1.766,1.766,0,0,1-.308-1.231,1.671,1.671,0,0,1,.052-.26,1.711,1.711,0,0,1,.348-.652,1.73,1.73,0,0,1,1.283-.6A2.15,2.15,0,0,0-1004.213-5494.761Zm1.815.467h0l.606.519-.188-.775.674-.41-.583-.051-.209-.018-.188-.772-.3.73-.452-.037-.34-.028.6.518-.3.731.673-.408Z" transform="translate(1013.035 5501.598)" fill="#bababa" stroke="rgba(0,0,0,0)" stroke-miterlimit="10" stroke-width="1"/>
        <path id="Path_5072" data-name="Path 5072" d="M253.32,934.452c-.129,1.6-.121,1.962-.315,1.962-.264,0-.173-1.707-.177-1.946l-.023-13.371a1.178,1.178,0,0,1,1.186-1.272h8.387c.046,0,.091,0,.136,0a.454.454,0,0,1,.31.773,7.187,7.187,0,0,1-1.133.961c-1.707,1.156-3.5,1.649-5.44,3.412a8.371,8.371,0,0,0-2.236,3.334,10.39,10.39,0,0,0-.552,2.862Z" transform="translate(-252.803 -917.929)" fill="#bababa"/>
      </g>
    </g>
    <g id="Group_3082" data-name="Group 3082" transform="translate(268.939 903.304)">
      <path id="Path_5073" data-name="Path 5073" d="M322.7,920.231H320.96V919h4.967v1.227h-1.764v5.236H322.7Z" transform="translate(-320.96 -917.317)" fill="#bababa"/>
      <path id="Path_5074" data-name="Path 5074" d="M330.987,929.923a.844.844,0,0,1,.863-.892.887.887,0,1,1-.863.892Z" transform="translate(-326.193 -922.55)" fill="#bababa"/>
      <path id="Path_5075" data-name="Path 5075" d="M340.944,925.169a4.174,4.174,0,0,1-1.659.278,3.073,3.073,0,0,1-3.385-3.232,3.3,3.3,0,0,1,3.529-3.433,3.81,3.81,0,0,1,1.592.288l-.3,1.16a3.155,3.155,0,0,0-1.227-.24,2.124,2.124,0,0,0,.01,4.247,3.662,3.662,0,0,0,1.218-.211Z" transform="translate(-328.757 -917.201)" fill="#bababa"/>
      <path id="Path_5076" data-name="Path 5076" d="M348.132,929.923a.844.844,0,0,1,.863-.892.887.887,0,1,1-.863.892Z" transform="translate(-335.141 -922.55)" fill="#bababa"/>
      <path id="Path_5077" data-name="Path 5077" d="M361.563,922.734h-2.378v1.534h2.656v1.2h-4.123V919h3.988v1.2h-2.522v1.342h2.378Z" transform="translate(-340.143 -917.317)" fill="#bababa"/>
      <path id="Path_5078" data-name="Path 5078" d="M368.426,925.467V919h1.707l1.343,2.368a18.819,18.819,0,0,1,1.054,2.215h.029a23.926,23.926,0,0,1-.125-2.694V919h1.343v6.463h-1.534l-1.381-2.493a24.13,24.13,0,0,1-1.122-2.283l-.029.01c.039.853.058,1.764.058,2.818v1.947Z" transform="translate(-345.732 -917.317)" fill="#bababa"/>
      <path id="Path_5079" data-name="Path 5079" d="M386.108,922.734H383.73v1.534h2.656v1.2h-4.123V919h3.989v1.2H383.73v1.342h2.378Z" transform="translate(-352.953 -917.317)" fill="#bababa"/>
      <path id="Path_5080" data-name="Path 5080" d="M392.972,919.038a12.8,12.8,0,0,1,1.946-.135,3.294,3.294,0,0,1,2.09.509,1.639,1.639,0,0,1,.595,1.352,1.715,1.715,0,0,1-1.141,1.592v.029a1.629,1.629,0,0,1,.863,1.208c.2.729.4,1.573.527,1.822h-1.5a8.071,8.071,0,0,1-.451-1.506c-.173-.805-.451-1.026-1.045-1.036h-.441v2.541h-1.448Zm1.448,2.78H395c.728,0,1.16-.364,1.16-.93,0-.594-.4-.892-1.074-.9a3.652,3.652,0,0,0-.662.048Z" transform="translate(-358.542 -917.264)" fill="#bababa"/>
      <path id="Path_5081" data-name="Path 5081" d="M405.548,919h1.458v4.085c0,1.841-.882,2.483-2.3,2.483a3.8,3.8,0,0,1-1.064-.154l.163-1.179a2.407,2.407,0,0,0,.748.115c.614,0,1-.278,1-1.285Z" transform="translate(-364.109 -917.317)" fill="#bababa"/>
      <path id="Path_5082" data-name="Path 5082" d="M414.693,917.162v6.463h-1.467v-6.463Zm-1.39-1.026a.659.659,0,0,1,.671-.661.64.64,0,0,1,.642.661.65.65,0,0,1-.642.652A.663.663,0,0,1,413.3,916.136Z" transform="translate(-369.112 -915.475)" fill="#bababa"/>
      <path id="Path_5083" data-name="Path 5083" d="M423.177,925.467,421.106,919h1.6l.786,2.733c.22.766.422,1.505.576,2.311h.029c.163-.777.364-1.544.585-2.283l.824-2.761h1.553l-2.176,6.463Z" transform="translate(-373.224 -917.317)" fill="#bababa"/>
      <path id="Path_5084" data-name="Path 5084" d="M438.848,922.734H436.47v1.534h2.656v1.2H435V919h3.989v1.2H436.47v1.342h2.378Z" transform="translate(-380.477 -917.317)" fill="#bababa"/>
      <path id="Path_5085" data-name="Path 5085" d="M449.694,920.231h-1.736V919h4.967v1.227H451.16v5.236h-1.467Z" transform="translate(-387.238 -917.317)" fill="#bababa"/>
      <path id="Path_5086" data-name="Path 5086" d="M459.519,923.808l-.46,1.659h-1.515L459.519,919h1.918l2,6.463h-1.573l-.5-1.659Zm1.639-1.093-.4-1.371c-.115-.383-.23-.863-.326-1.247h-.019c-.1.384-.192.873-.3,1.247l-.383,1.371Z" transform="translate(-392.241 -917.317)" fill="#bababa"/>
      <path id="Path_5087" data-name="Path 5087" d="M471.682,919.038a11.608,11.608,0,0,1,1.889-.135,3.567,3.567,0,0,1,1.908.365,1.406,1.406,0,0,1,.776,1.266,1.459,1.459,0,0,1-1.064,1.381v.019a1.616,1.616,0,0,1,1.284,1.592,1.722,1.722,0,0,1-.671,1.371,4.08,4.08,0,0,1-2.541.585,11.23,11.23,0,0,1-1.582-.1Zm1.448,2.473h.48c.767,0,1.179-.317,1.179-.8s-.374-.748-1.035-.748a4,4,0,0,0-.623.038Zm0,2.867a4.5,4.5,0,0,0,.566.02c.662,0,1.246-.249,1.246-.93,0-.652-.585-.91-1.314-.91h-.5Z" transform="translate(-399.619 -917.264)" fill="#bababa"/>
      <path id="Path_5088" data-name="Path 5088" d="M485.261,917.162v6.463h-1.467v-6.463Zm-1.39-1.026a.658.658,0,0,1,.671-.661.641.641,0,0,1,.643.661.651.651,0,0,1-.643.652A.663.663,0,0,1,483.871,916.136Z" transform="translate(-405.94 -915.475)" fill="#bababa"/>
      <path id="Path_5089" data-name="Path 5089" d="M490.976,917.162v6.463h-1.467v-6.463Zm-1.39-1.026a.658.658,0,0,1,.671-.661.641.641,0,0,1,.643.661.651.651,0,0,1-.643.652A.663.663,0,0,1,489.586,916.136Z" transform="translate(-408.923 -915.475)" fill="#bababa"/>
      <path id="Path_5090" data-name="Path 5090" d="M321.983,940.63h1.448v2.857h.029c.144-.249.3-.479.441-.71l1.467-2.148h1.793l-2.138,2.752,2.253,3.711h-1.707l-1.582-2.79-.556.68v2.11h-1.448Z" transform="translate(-321.494 -928.603)" fill="#bababa"/>
      <path id="Path_5091" data-name="Path 5091" d="M335.549,945.434l-.46,1.659h-1.515l1.976-6.463h1.917l2,6.463H337.9l-.5-1.659Zm1.639-1.093-.4-1.372c-.115-.383-.23-.863-.326-1.246h-.019c-.1.384-.192.873-.3,1.246l-.383,1.372Z" transform="translate(-327.542 -928.603)" fill="#bababa"/>
      <path id="Path_5092" data-name="Path 5092" d="M346.706,947.093v-2.647l-2.043-3.816h1.668l.662,1.553c.2.469.336.815.5,1.237h.019c.144-.4.3-.776.489-1.237l.652-1.553h1.64l-2.129,3.768v2.694Z" transform="translate(-333.33 -928.603)" fill="#bababa"/>
      <path id="Path_5093" data-name="Path 5093" d="M357.538,947.093V940.63h1.707L360.587,943a18.713,18.713,0,0,1,1.055,2.215h.029a23.924,23.924,0,0,1-.125-2.694V940.63h1.343v6.463h-1.534l-1.381-2.493a24,24,0,0,1-1.122-2.282l-.029.01c.039.853.057,1.764.057,2.818v1.947Z" transform="translate(-340.049 -928.603)" fill="#bababa"/>
      <path id="Path_5094" data-name="Path 5094" d="M372.367,945.434l-.46,1.659h-1.515l1.975-6.463h1.918l2,6.463h-1.572l-.5-1.659Zm1.64-1.093-.4-1.372c-.115-.383-.23-.863-.326-1.246h-.019c-.1.384-.192.873-.3,1.246l-.383,1.372Z" transform="translate(-346.758 -928.603)" fill="#bababa"/>
      <path id="Path_5095" data-name="Path 5095" d="M384.53,940.63h1.448v2.857h.029c.144-.249.3-.479.441-.71l1.467-2.148h1.793l-2.138,2.752,2.253,3.711h-1.707l-1.582-2.79-.556.68v2.11H384.53Z" transform="translate(-354.136 -928.603)" fill="#bababa"/>
      <path id="Path_5096" data-name="Path 5096" d="M396.842,940.63h1.467v5.235h2.569v1.227h-4.037Z" transform="translate(-360.561 -928.603)" fill="#bababa"/>
      <path id="Path_5097" data-name="Path 5097" d="M408.2,945.434l-.46,1.659h-1.515l1.976-6.463h1.918l2,6.463h-1.572l-.5-1.659Zm1.639-1.093-.4-1.372c-.115-.383-.23-.863-.326-1.246h-.019c-.1.384-.192.873-.3,1.246l-.383,1.372Z" transform="translate(-365.459 -928.603)" fill="#bababa"/>
      <path id="Path_5098" data-name="Path 5098" d="M420.365,940.664a12.8,12.8,0,0,1,1.946-.135,3.3,3.3,0,0,1,2.09.509,1.64,1.64,0,0,1,.594,1.352,1.716,1.716,0,0,1-1.141,1.592v.029a1.63,1.63,0,0,1,.863,1.208c.2.729.4,1.572.527,1.822h-1.5a8.135,8.135,0,0,1-.451-1.506c-.172-.805-.45-1.026-1.045-1.036h-.441v2.541h-1.448Zm1.448,2.78h.576c.729,0,1.16-.364,1.16-.93,0-.594-.4-.892-1.074-.9a3.6,3.6,0,0,0-.662.048Z" transform="translate(-372.838 -928.55)" fill="#bababa"/>
      <path id="Path_5099" data-name="Path 5099" d="M436.308,940.664a11.6,11.6,0,0,1,1.889-.135,3.567,3.567,0,0,1,1.908.365,1.407,1.407,0,0,1,.776,1.266,1.46,1.46,0,0,1-1.064,1.38v.019a1.617,1.617,0,0,1,1.285,1.592,1.723,1.723,0,0,1-.671,1.372,4.083,4.083,0,0,1-2.541.584,11.235,11.235,0,0,1-1.582-.1Zm1.448,2.473h.479c.767,0,1.18-.316,1.18-.8s-.374-.748-1.035-.748a4,4,0,0,0-.623.038Zm0,2.867a4.506,4.506,0,0,0,.566.02c.662,0,1.246-.249,1.246-.93,0-.652-.585-.91-1.314-.91h-.5Z" transform="translate(-381.158 -928.55)" fill="#bababa"/>
      <path id="Path_5100" data-name="Path 5100" d="M449.332,945.434l-.46,1.659h-1.515l1.975-6.463h1.917l2,6.463h-1.573l-.5-1.659Zm1.639-1.093-.4-1.372c-.115-.383-.23-.863-.326-1.246h-.019c-.1.384-.192.873-.3,1.246l-.383,1.372Z" transform="translate(-386.924 -928.603)" fill="#bababa"/>
      <path id="Path_5101" data-name="Path 5101" d="M461.495,940.63h1.448v2.857h.029c.144-.249.3-.479.441-.71l1.467-2.148h1.793l-2.139,2.752,2.253,3.711h-1.706L463.5,944.3l-.556.68v2.11h-1.448Z" transform="translate(-394.303 -928.603)" fill="#bababa"/>
      <path id="Path_5102" data-name="Path 5102" d="M475.061,945.434l-.46,1.659h-1.515l1.976-6.463h1.917l2,6.463H477.41l-.5-1.659Zm1.639-1.093-.4-1.372c-.115-.383-.23-.863-.326-1.246h-.02c-.1.384-.191.873-.3,1.246l-.383,1.372Z" transform="translate(-400.351 -928.603)" fill="#bababa"/>
      <path id="Path_5103" data-name="Path 5103" d="M487.223,947.093V940.63h1.706L490.272,943a18.718,18.718,0,0,1,1.055,2.215h.029a23.935,23.935,0,0,1-.125-2.694V940.63h1.343v6.463h-1.534l-1.381-2.493a24.014,24.014,0,0,1-1.122-2.282l-.029.01c.038.853.058,1.764.058,2.818v1.947Z" transform="translate(-407.73 -928.603)" fill="#bababa"/>
      <path id="Path_5104" data-name="Path 5104" d="M501.059,940.63h1.467v5.235H505.1v1.227h-4.037Z" transform="translate(-414.951 -928.603)" fill="#bababa"/>
      <path id="Path_5105" data-name="Path 5105" d="M512.774,940.63v6.463h-1.467V940.63Z" transform="translate(-420.299 -928.603)" fill="#bababa"/>
      <path id="Path_5106" data-name="Path 5106" d="M522.1,945.048a7.226,7.226,0,0,1-2.157.364,3.6,3.6,0,0,1-2.627-.873,3.126,3.126,0,0,1-.911-2.349c.01-2.148,1.573-3.375,3.692-3.375a4.459,4.459,0,0,1,1.793.316l-.307,1.17a3.567,3.567,0,0,0-1.505-.278,2.105,2.105,0,1,0,.614,4.113v-1.352h-1v-1.141H522.1Zm-2.982-7.767a.5.5,0,0,0,.566.441.538.538,0,0,0,.6-.441h.738a1.35,1.35,0,0,1-2.685,0Z" transform="translate(-422.957 -926.855)" fill="#bababa"/>
      <path id="Path_5107" data-name="Path 5107" d="M532.166,940.63v6.463H530.7V940.63Z" transform="translate(-430.419 -928.603)" fill="#bababa"/>
    </g>
  </g>
</svg>
