<svg xmlns="http://www.w3.org/2000/svg" xmlns:xlink="http://www.w3.org/1999/xlink" width="29.326" height="22.809" viewBox="0 0 29.326 22.809">
  <defs>
    <clipPath id="clip-path">
      <path id="icon_bar-chart-2" data-name="icon / bar-chart-2" d="M21.179,29.326A1.542,1.542,0,0,1,19.55,27.7V11.4a1.63,1.63,0,0,1,3.26,0V27.7A1.543,1.543,0,0,1,21.179,29.326Zm-9.774,0A1.542,1.542,0,0,1,9.776,27.7V1.629A1.542,1.542,0,0,1,11.4,0a1.542,1.542,0,0,1,1.629,1.629V27.7A1.542,1.542,0,0,1,11.4,29.326Zm-9.776,0A1.542,1.542,0,0,1,0,27.7V17.921a1.542,1.542,0,0,1,1.629-1.629,1.542,1.542,0,0,1,1.629,1.629V27.7A1.542,1.542,0,0,1,1.629,29.326Z" transform="translate(0)" fill="#848484"/>
    </clipPath>
  </defs>
  <g id="icon_ecommerce_bar-chart-2" data-name="icon / ecommerce / bar-chart-2" transform="translate(0 22.809) rotate(-90)">
    <path id="icon_bar-chart-2-2" data-name="icon / bar-chart-2" d="M21.179,29.326A1.542,1.542,0,0,1,19.55,27.7V11.4a1.63,1.63,0,0,1,3.26,0V27.7A1.543,1.543,0,0,1,21.179,29.326Zm-9.774,0A1.542,1.542,0,0,1,9.776,27.7V1.629A1.542,1.542,0,0,1,11.4,0a1.542,1.542,0,0,1,1.629,1.629V27.7A1.542,1.542,0,0,1,11.4,29.326Zm-9.776,0A1.542,1.542,0,0,1,0,27.7V17.921a1.542,1.542,0,0,1,1.629-1.629,1.542,1.542,0,0,1,1.629,1.629V27.7A1.542,1.542,0,0,1,1.629,29.326Z" transform="translate(0)" fill="#848484"/>
  </g>
</svg>
