<svg xmlns="http://www.w3.org/2000/svg" width="149.431" height="49.042" viewBox="0 0 149.431 49.042">
  <g id="Group_3077" data-name="Group 3077" transform="translate(-506.544 -391.18)">
    <path id="Path_4912" data-name="Path 4912" d="M1247.642,417.507l-5.65-3.262,5.65-3.262Zm0,0-5.65,3.262,2.826,1.632,2.825-1.631Z" transform="translate(-614.269 -16.54)" fill="#bababa"/>
    <path id="Path_4914" data-name="Path 4914" d="M1384.806,394.443l-5.652-3.263v6.526Z" transform="translate(-728.831)" fill="#bababa"/>
    <path id="Path_4915" data-name="Path 4915" d="M1146.713,437.081v-9.787l5.651,3.262V417.507l-5.651,3.263v-9.787l22.6,13.049Zm-11.3-26.1v6.524l5.65-3.262Zm0,13.049,5.651-3.263-5.65-3.262Zm-2.517,25.951-11.743-6.78v13.559Z" transform="translate(-513.34 -16.54)" fill="#bababa"/>
    <path id="Path_4916" data-name="Path 4916" d="M565.222,464.388a1.921,1.921,0,0,0-1.957-2.088,2.379,2.379,0,0,0-2.572,2.088Zm-2.106-4.12c2.833,0,4.529,1.883,4.529,4.81a8.927,8.927,0,0,1-.056.988H560.73a2.538,2.538,0,0,0,2.814,2.218,6.746,6.746,0,0,0,2.777-.616l.858,1.827a8.415,8.415,0,0,1-3.691.84c-3.3,0-5.405-2.032-5.405-5a4.824,4.824,0,0,1,5.033-5.071m8.966-3.577v10.83c0,.54.317.783.876.783a4.006,4.006,0,0,0,.6-.074v1.919a9.8,9.8,0,0,1-1.715.187c-1.174,0-2.274-.447-2.274-2.648V458.1Zm9.73,7.7a1.921,1.921,0,0,0-1.957-2.088,2.379,2.379,0,0,0-2.572,2.088Zm-2.106-4.12c2.833,0,4.53,1.883,4.53,4.81a8.851,8.851,0,0,1-.056.988h-6.86a2.538,2.538,0,0,0,2.814,2.218,6.749,6.749,0,0,0,2.778-.616l.857,1.827a8.408,8.408,0,0,1-3.69.84c-3.3,0-5.406-2.032-5.406-5a4.825,4.825,0,0,1,5.033-5.071m-41.89-3.587,0,8.042,3.234-4.268h3l-3.84,4.55,3.672,5.144h-2.815l-2.311-3.374-.932,1.044v2.33H535.31V458.1Zm50.754,0,0,8.042,3.235-4.268h3l-3.84,4.55,3.672,5.144h-2.814l-2.312-3.374-.932,1.044v2.33h-2.516V458.1Zm21.146,3.774.41,1.286a3.121,3.121,0,0,1,2.684-1.472A2.9,2.9,0,0,1,615.475,462a3.336,3.336,0,0,1,3.131-1.734c2,0,3.467,1.23,3.467,4.045v5.835h-2.517v-6c0-.989-.392-1.846-1.565-1.846-1.247,0-1.789.988-1.789,2.256v5.592h-2.516v-6.133a1.518,1.518,0,0,0-1.547-1.715c-1.249,0-1.809.988-1.809,2.237v5.611h-2.517v-9.694Zm-9.2-.667a5.5,5.5,0,1,0,5.5,5.5A5.5,5.5,0,0,0,600.518,459.787Zm0,8.624a3.124,3.124,0,1,1,3.124-3.124A3.124,3.124,0,0,1,600.518,468.411ZM559.212,457.1v2.181h-3.286v10.867h-2.61V459.281H550.03V457.1Zm-29.068,3.355-.009,1.427c.6-1.23,1.513-1.519,3.228-1.519v2.46h-.317a2.563,2.563,0,0,0-2.815,2.909v4.417h-2.516v-9.694ZM515.726,457.1v2.181H512.44v10.867h-2.61V459.28h-3.286V457.1ZM523,470.138l-.373-1.172a2.781,2.781,0,0,1-2.579,1.341,3.357,3.357,0,0,1-3.557-3.682v-4.917h2.528v4.934c0,1.255.679,1.816,1.561,1.816a1.913,1.913,0,0,0,1.861-2.138v-4.611h2.484v8.43Zm-5.6-11.891h2.516v1.975H517.4Zm4.093,0h2.516v1.975h-2.516Zm92.189-1.147v-6.526l5.652,3.263Zm-21.86,21.938V473.5l4.8,2.768Z" transform="translate(0 -49.607)" fill="#bababa"/>
    <g id="Group_3075" data-name="Group 3075" transform="translate(627.723 400.967)">
      <path id="Path_4918" data-name="Path 4918" d="M1241.992,473.643l5.651,3.262V470.38Z" transform="translate(-1241.992 -467.118)" fill="#bababa"/>
    </g>
    <g id="Group_3076" data-name="Group 3076" transform="translate(509.699 423.411)">
      <path id="Path_4919" data-name="Path 4919" d="M528.149,588.424a2.7,2.7,0,0,1,1.368.369,2.819,2.819,0,0,1,1.317,2.55,2.691,2.691,0,0,1-2.685,2.953h-2.458v-5.873Zm-1.527.722v4.43h1.267a1.989,1.989,0,0,0,1.367-.52,2.34,2.34,0,0,0,.6-1.72,2.153,2.153,0,0,0-.8-1.846,2.093,2.093,0,0,0-1.166-.344Z" transform="translate(-525.691 -588.155)" fill="#bababa"/>
      <path id="Path_4920" data-name="Path 4920" d="M562.3,599.74c.017.847.646,1.25,1.544,1.25a3.636,3.636,0,0,0,1.468-.336l.16.646a4.094,4.094,0,0,1-1.711.377,2.25,2.25,0,1,1-.143-4.5,1.91,1.91,0,0,1,2.039,2.106,3.46,3.46,0,0,1-.025.453Zm.025-.621h2.5a1.106,1.106,0,0,0-1.183-1.259c-.713,0-1.2.336-1.317,1.259" transform="translate(-555.507 -595.47)" fill="#bababa"/>
      <path id="Path_4921" data-name="Path 4921" d="M594.424,589.3H595.9v.587l-.688.008a1.088,1.088,0,0,1,.411.9c0,.805-.646,1.351-1.913,1.351a3.154,3.154,0,0,1-.982-.134.428.428,0,0,0-.226.378c.008.361.453.42,1.124.42h.663c.864,0,1.518.252,1.518,1.066,0,1.032-1.049,1.275-2.131,1.275-1.007,0-2.039-.21-2.039-1.091a1.009,1.009,0,0,1,.487-.856.747.747,0,0,1-.369-.68.939.939,0,0,1,.445-.806,1.28,1.28,0,0,1-.411-1.015c0-.99.721-1.468,1.938-1.468a3.209,3.209,0,0,1,.7.067m-1.628,4.136a.569.569,0,0,0-.31.487c0,.461.545.537,1.216.537.629,0,1.225-.067,1.225-.554,0-.327-.268-.419-.721-.419h-.512a5.668,5.668,0,0,1-.9-.05m2.055-5.713a1.184,1.184,0,0,1-2.332,0l.52-.059c.092.386.243.6.646.6s.554-.21.646-.6Zm-2.181,2.97c0,.545.445.764,1.032.764.663,0,1.032-.277,1.032-.764,0-.52-.411-.772-1.023-.772s-1.04.252-1.04.772" transform="translate(-580.773 -587.516)" fill="#bababa"/>
      <path id="Path_4922" data-name="Path 4922" d="M621.572,599.74c.017.847.646,1.25,1.544,1.25a3.636,3.636,0,0,0,1.468-.336l.159.646a4.094,4.094,0,0,1-1.711.377,2.25,2.25,0,1,1-.143-4.5,1.91,1.91,0,0,1,2.039,2.106,3.46,3.46,0,0,1-.025.453Zm.025-.621h2.5a1.106,1.106,0,0,0-1.183-1.259c-.713,0-1.2.336-1.317,1.259" transform="translate(-605.017 -595.47)" fill="#bababa"/>
      <path id="Path_4923" data-name="Path 4923" d="M654.59,598.348c-.923-.134-1.384.6-1.384,1.5v2.022h-.864v-4.363h.713l.075.923a1.363,1.363,0,0,1,1.493-.923Z" transform="translate(-631.474 -595.73)" fill="#bababa"/>
      <path id="Path_4924" data-name="Path 4924" d="M671.894,592c0,.285.151.336.336.336a3.484,3.484,0,0,0,.361-.017l.025.629a3.449,3.449,0,0,1-.68.059c-.629,0-.906-.268-.906-.856v-5.353h.864Z" transform="translate(-647.083 -586.794)" fill="#bababa"/>
      <path id="Path_4925" data-name="Path 4925" d="M683.737,594.125h-.864v-3.742h-.537v-.621h1.4Zm.042-5.479c0,.294-.185.428-.495.428s-.487-.134-.487-.428.185-.428.487-.428.495.143.495.428" transform="translate(-656.526 -587.984)" fill="#bababa"/>
      <path id="Path_4926" data-name="Path 4926" d="M718.1,594.3h-.931v-2.55h-3.087v2.55h-.931v-5.873h.931v2.6h3.087v-2.6h.931Z" transform="translate(-682.259 -588.155)" fill="#bababa"/>
      <path id="Path_4927" data-name="Path 4927" d="M750.3,594.125h-.864v-3.742H748.9v-.621h1.4Zm.042-5.479c0,.294-.184.428-.495.428s-.487-.134-.487-.428.185-.428.487-.428.495.143.495.428" transform="translate(-712.118 -587.984)" fill="#bababa"/>
      <path id="Path_4928" data-name="Path 4928" d="M766.817,597.484l-.151.579a3.849,3.849,0,0,0-1.317-.26c-.671,0-.931.243-.931.579,0,.478.445.529,1.124.7.73.2,1.468.428,1.468,1.309,0,.9-.78,1.284-1.745,1.284a4.508,4.508,0,0,1-1.753-.378l.185-.587a3.714,3.714,0,0,0,1.468.336c.7,0,.948-.252.948-.587,0-.478-.5-.529-1.149-.7-.679-.193-1.435-.4-1.435-1.309,0-.889.721-1.275,1.686-1.275a4.577,4.577,0,0,1,1.6.3" transform="translate(-724.326 -595.47)" fill="#bababa"/>
      <path id="Path_4929" data-name="Path 4929" d="M791.567,597.484l-.151.579a3.848,3.848,0,0,0-1.317-.26c-.671,0-.931.243-.931.579,0,.478.445.529,1.124.7.73.2,1.468.428,1.468,1.309,0,.9-.78,1.284-1.745,1.284a4.507,4.507,0,0,1-1.754-.378l.185-.587a3.714,3.714,0,0,0,1.468.336c.7,0,.948-.252.948-.587,0-.478-.5-.529-1.15-.7-.679-.193-1.435-.4-1.435-1.309,0-.889.722-1.275,1.686-1.275a4.577,4.577,0,0,1,1.6.3" transform="translate(-744.998 -595.47)" fill="#bababa"/>
      <path id="Path_4930" data-name="Path 4930" d="M813.967,599.74c.017.847.646,1.25,1.544,1.25a3.636,3.636,0,0,0,1.468-.336l.159.646a4.094,4.094,0,0,1-1.711.377,2.25,2.25,0,1,1-.143-4.5,1.91,1.91,0,0,1,2.039,2.106,3.476,3.476,0,0,1-.025.453Zm.025-.621h2.5a1.106,1.106,0,0,0-1.183-1.259c-.713,0-1.2.336-1.317,1.259" transform="translate(-765.711 -595.47)" fill="#bababa"/>
      <path id="Path_4931" data-name="Path 4931" d="M843.42,591.21h1.208v.621H843.42v2.45c0,.554.185.721.587.721a2.578,2.578,0,0,0,.612-.1l.034.6a2.662,2.662,0,0,1-.881.143c-.789,0-1.217-.319-1.217-1.334V591.83h-.621v-.621h.621l.126-1.259h.738Z" transform="translate(-789.828 -589.431)" fill="#bababa"/>
      <path id="Path_4932" data-name="Path 4932" d="M862.109,591.21h1.208v.621h-1.208v2.45c0,.554.185.721.587.721a2.578,2.578,0,0,0,.612-.1l.034.6a2.662,2.662,0,0,1-.881.143c-.789,0-1.217-.319-1.217-1.334V591.83h-.621v-.621h.621l.126-1.259h.738Z" transform="translate(-805.437 -589.431)" fill="#bababa"/>
      <path id="Path_4933" data-name="Path 4933" d="M880.867,594.125H880v-3.742h-.537v-.621h1.4Zm.042-5.479c0,.294-.185.428-.495.428s-.487-.134-.487-.428.185-.428.487-.428.495.143.495.428" transform="translate(-821.175 -587.984)" fill="#bababa"/>
      <path id="Path_4934" data-name="Path 4934" d="M898.061,598.348c-.923-.134-1.384.6-1.384,1.5v2.022h-.864v-4.363h.713l.076.923a1.363,1.363,0,0,1,1.493-.923Z" transform="translate(-834.828 -595.73)" fill="#bababa"/>
      <path id="Path_4935" data-name="Path 4935" d="M913.357,594.125h-.864v-3.742h-.537v-.621h1.4Zm.042-5.479c0,.294-.185.428-.495.428s-.487-.134-.487-.428.185-.428.487-.428.495.143.495.428" transform="translate(-848.312 -587.984)" fill="#bababa"/>
      <path id="Path_4936" data-name="Path 4936" d="M930.552,598.348c-.923-.134-1.384.6-1.384,1.5v2.022H928.3v-4.363h.713l.076.923a1.363,1.363,0,0,1,1.493-.923Z" transform="translate(-861.965 -595.73)" fill="#bababa"/>
    </g>
  </g>
</svg>
