<svg xmlns="http://www.w3.org/2000/svg" width="328.611" height="109.87" viewBox="0 0 328.611 109.87">
  <path id="Union_1" data-name="Union 1" d="M283.63,108.26a2.207,2.207,0,0,1-.488-1.281l.061-.733q.184-2.013,1.586-9.12.767-3.888,1.179-5.859a19.593,19.593,0,0,1-2.4,1.528,14.127,14.127,0,0,1-6.862,1.8,9.11,9.11,0,0,1-6.07-2.105,6.547,6.547,0,0,1-1.774-2.348q-4.242,4.269-8.535,4.269a5.171,5.171,0,0,1-4.972-2.653,15.575,15.575,0,0,1-1.432-7.225,9.456,9.456,0,0,1-5.369,1.888q-4.147,0-4.148-3.538,0-.122.977-3.965a11.75,11.75,0,0,0-.977,1.463A72.146,72.146,0,0,0,238.8,92.644a2.718,2.718,0,0,1-2.624,1.586q-1.938,0-2.374-2.418-.5.41-1.041.8a7.474,7.474,0,0,1-4.3,1.616,4.434,4.434,0,0,1-3.172-1.067,4.7,4.7,0,0,1-1.372-2.9v.122a8,8,0,0,1-2.745,3.05,7.822,7.822,0,0,1-4.209,1.1,4.8,4.8,0,0,1-3.934-1.86,6.374,6.374,0,0,1-1.059-1.937,20.2,20.2,0,0,1-2.388,1.846,10.255,10.255,0,0,1-5.429,2.074,6.717,6.717,0,0,1-3.965-1.158,4.165,4.165,0,0,1-1.647-3.66,5.108,5.108,0,0,1,1.068-3.05,10.776,10.776,0,0,1,2.318-2.379q1.25-.915,2.379-1.891a2.763,2.763,0,0,0,1.159-1.831q.031-.853-.7-.854-2.013,0-4.27,2.288a26.69,26.69,0,0,0-3.9,5.033,30.837,30.837,0,0,1-3.752,5.032q-2.1,2.288-3.874,2.288-2.257,0-2.256-5.062a72.671,72.671,0,0,1,2.012-16.287,59.6,59.6,0,0,1,2.837-9.181,20.66,20.66,0,0,1,4.484-6.923,8.689,8.689,0,0,1,6.283-2.806,3.966,3.966,0,0,1,3.141,1.281,5.465,5.465,0,0,1,1.129,3.722,14.6,14.6,0,0,1-1.891,6.191,40.64,40.64,0,0,1-4.575,7.106,79.589,79.589,0,0,1-8.357,9.089,51.45,51.45,0,0,0-.915,7.93q8.358-14.945,15.617-14.945a4.017,4.017,0,0,1,3.02,1.1,4.149,4.149,0,0,1,1.067,3.02,6.081,6.081,0,0,1-1.159,3.568,9.587,9.587,0,0,1-2.562,2.561q-3.842,2.318-4.27,4.7v.305q0,1.158,1.83,1.159a7.027,7.027,0,0,0,4.148-1.831,16.66,16.66,0,0,0,3.1-3.068,14.255,14.255,0,0,1,3.827-8q3.934-4.3,8.387-4.3,2.5,0,2.5,1.282v.365h1.4q1.708,0,1.708,1.587v.365l-1.708,10.492a2.9,2.9,0,0,0-.061.671q0,1.463,1.037,1.463,2.158,0,5.057-3.542a44.338,44.338,0,0,1,1.776-9.634q.914-2.745,2.928-2.745a1.73,1.73,0,0,1,1.281.489,1.652,1.652,0,0,1,.488,1.219L237.88,86.544A31.613,31.613,0,0,1,242,78.614q3.02-4.454,4.91-4.453,2.684,0,2.684,2.075a9.068,9.068,0,0,1-.64,3.08,10.049,10.049,0,0,0-.641,2.105q0,.914,1.311.914a4.706,4.706,0,0,0,1.651-.409,1.348,1.348,0,0,1,.637-.658q.732-.4,2.318-1.129a55.349,55.349,0,0,1,4.27-15.432,19.7,19.7,0,0,1,4.087-6.131q2.441-2.41,4.758-2.409a4.2,4.2,0,0,1,3.325,1.158,4.136,4.136,0,0,1,1.006,2.806v.427a18.619,18.619,0,0,1-3.386,8.967,36.631,36.631,0,0,1-7.106,7.808,28.52,28.52,0,0,1,6.467-1.708,1.286,1.286,0,0,1,.945.518,2,2,0,0,1,.458,1.373q0,.853-1.038,1.037a48.211,48.211,0,0,0-9.516,3.111q-.122,1.952-.122,3.05,0,5.794,2.5,5.8,2.928,0,6.772-4.271a1.418,1.418,0,0,1,.5-.326,13.594,13.594,0,0,1,2.951-7.94,8.779,8.779,0,0,1,7.168-3.874,6.174,6.174,0,0,1,4.148,1.4,4.712,4.712,0,0,1,1.647,3.782,6.492,6.492,0,0,1-2.745,5.43,21.083,21.083,0,0,1-8.3,3.233q.855,2.623,4.392,2.623,4.88,0,9.212-4.148a1.034,1.034,0,0,1,.75-.244l.1-.335a37.283,37.283,0,0,1,2.136-5.4,14.27,14.27,0,0,1,2.2-3.325,9.688,9.688,0,0,1,3.05-2.135,10.5,10.5,0,0,1,4.483-.885,4.77,4.77,0,0,1,4,1.8,7.269,7.269,0,0,1,1.4,4.605q0,.671-.122,1.891a11.034,11.034,0,0,0,3.613-1.728,15.364,15.364,0,0,1,1.664-2.695,8.778,8.778,0,0,1,7.168-3.874,6.176,6.176,0,0,1,4.148,1.4,4.712,4.712,0,0,1,1.647,3.782,6.492,6.492,0,0,1-2.745,5.43,21.089,21.089,0,0,1-8.3,3.233q.853,2.623,4.392,2.623,4.88,0,9.211-4.148a1.044,1.044,0,0,1,.762-.244,1.413,1.413,0,0,1,.977.427,1.364,1.364,0,0,1,.457,1.037,2.12,2.12,0,0,1-.427,1.22A15.675,15.675,0,0,1,315.5,94.6a9.114,9.114,0,0,1-6.07-2.105,7.561,7.561,0,0,1-2.5-6.13q0-.67.065-1.325a14.994,14.994,0,0,1-3.42,1.325,14.842,14.842,0,0,1-3.9,5.855,8.338,8.338,0,0,1-5.734,2.318,5.247,5.247,0,0,1-3.6-1.586q-.184.732-1.311,6.771t-1.434,6.893a3.194,3.194,0,0,1-1.464,1.555,4.113,4.113,0,0,1-2.074.7Zm11.8-29.4a6.1,6.1,0,0,0-1.8,2.318,22.608,22.608,0,0,0-1.129,2.745q-.4,1.219-.854,3.049t-.58,2.257a4.716,4.716,0,0,0,3.05,1.22,4.6,4.6,0,0,0,3.02-1.22,9.236,9.236,0,0,0,2.349-3.172,2.607,2.607,0,0,1-1.525-2.562,3.614,3.614,0,0,1,.336-1.678,5.645,5.645,0,0,1,1.495-1.555.653.653,0,0,1,.244-.305q-.733-1.891-2.136-1.891A4.035,4.035,0,0,0,295.433,78.858Zm-76.524,2.074q-2.805,3.356-2.806,6.344t2.318,2.989a4.15,4.15,0,0,0,3.142-1.83,10.231,10.231,0,0,0,2.043-4.026l1.647-6.832A8.169,8.169,0,0,0,218.909,80.932Zm92.6,4.332q7.625-2.623,7.625-5.49,0-1.709-2.013-1.708a4.225,4.225,0,0,0-2.866,1.294,1.654,1.654,0,0,1-.488.536q-.254.3-.55.614A7.66,7.66,0,0,0,311.507,85.263Zm-36.966-4.91a7.715,7.715,0,0,0-1.831,4.91q7.625-2.623,7.625-5.49,0-1.709-2.012-1.708Q276.371,78.065,274.541,80.353Zm-78.629-15.4a45.638,45.638,0,0,0-3.355,11.224q3.9-4.514,6.161-7.686a20.349,20.349,0,0,0,2.471-4.331,9.657,9.657,0,0,0,.762-3.447q0-1.494-1.1-1.494Q198.414,59.216,195.912,64.95Zm67.649-1.159a29.452,29.452,0,0,0-4.332,11.956q.123-.122,1.495-1.647t1.708-1.891q.335-.366,1.463-1.738a12.868,12.868,0,0,0,1.495-2.105q.366-.732,1.006-1.952a8.506,8.506,0,0,0,.854-2.318,10.377,10.377,0,0,0,.213-1.952q0-.855-.488-.915Q265.269,61.229,263.561,63.791ZM84.5,58.045,86.645,54.6a8.541,8.541,0,0,0,6.241,2.6c3.055,0,5.135-1.43,7.085-5.72l1.495-3.315L86.19,14.04H91l12.87,29.055L116.74,14.04h4.55l-17.1,38.285c-2.86,6.7-6.5,8.84-11.375,8.84A11.7,11.7,0,0,1,84.5,58.045Zm203-27.5c0-10.595,8.255-18.135,19.37-18.135,10.4,0,18.85,6.63,18.85,18.266,0,.91-.13,2.08-.2,3.055H299.91c1.04,3.576,4.1,5.656,8.645,5.656a11.29,11.29,0,0,0,8.125-3.056l6.5,6.76c-3.38,3.77-8.32,5.72-15.015,5.72C295.62,48.815,287.5,41.08,287.5,30.55Zm12.22-3.315h14.43a7.328,7.328,0,0,0-14.43,0Zm-47.06,17.94,3.7-8.449a24.72,24.72,0,0,0,12.285,3.25c4.161,0,5.525-.91,5.525-2.406,0-4.745-20.8.651-20.8-13.455,0-6.629,6.11-11.7,17.16-11.7,4.94,0,10.4,1.04,13.909,2.991l-3.7,8.384a20.65,20.65,0,0,0-10.14-2.6c-4.16,0-5.655,1.17-5.655,2.471,0,4.875,20.735-.39,20.735,13.585,0,6.5-5.98,11.57-17.42,11.57C262.275,48.815,256.1,47.32,252.655,45.175ZM211.64,32.7V13h12.35V30.68c0,5.46,2.145,7.6,5.85,7.6,3.64,0,6.629-2.4,6.629-8.32V13H248.82V48.23H237.055V44.46a13.883,13.883,0,0,1-10.464,4.355C217.945,48.815,211.64,43.875,211.64,32.7ZM167.57,30.55c0-10.595,8.385-18.135,19.89-18.135,11.635,0,19.89,7.54,19.89,18.135,0,10.661-8.255,18.266-19.89,18.266C175.955,48.815,167.57,41.21,167.57,30.55Zm12.48,0c0,5.4,3.25,8.45,7.41,8.45,4.225,0,7.41-3.055,7.41-8.45,0-5.33-3.185-8.32-7.41-8.32C183.3,22.23,180.05,25.22,180.05,30.55ZM6.11,38.61V17.94H0v-3.9H6.11V6.565h4.615V14.04h10.4v3.9h-10.4V38.35c0,4.03,2.08,6.24,5.915,6.24a7.636,7.636,0,0,0,5.07-1.755l1.625,3.316a10.993,10.993,0,0,1-7.215,2.4C9.685,48.555,6.11,44.915,6.11,38.61Zm144.365,9.62V30.1c0-5.07-2.21-7.215-5.784-7.215-3.965,0-7.02,2.47-7.02,8.32V48.23H125.32V0H137.67V16.25a15.267,15.267,0,0,1,10.595-3.836c8.255,0,14.56,4.746,14.56,15.665V48.23Zm-74.425,0V28.86c0-7.215-3.77-10.921-10.27-10.921-7.345,0-11.96,4.55-11.96,12.351V48.23H49.2V14.04h4.42v6.305c2.47-4.161,7.086-6.565,13-6.565,8.32,0,14.04,4.811,14.04,14.625V48.23Zm-44.33,0V14.04h4.615V48.23ZM30.68,3.25A3.331,3.331,0,0,1,34.06,0a3.278,3.278,0,0,1,3.38,3.185,3.38,3.38,0,0,1-6.76.065Z" transform="translate(0.5 0.5)" fill="#fff" stroke="rgba(0,0,0,0)" stroke-miterlimit="10" stroke-width="1"/>
</svg>
