<svg width="264" height="315" viewBox="0 0 264 315" fill="none" xmlns="http://www.w3.org/2000/svg">
<path d="M1.7 1.79999C0.1 3.5 0 15.8 0 157.7C0 305.6 0.1 311.8 1.8 313.3C3.5 314.9 14 315 132.2 315C255.4 315 260.8 314.9 262.3 313.2C263.9 311.5 264 299.2 264 157.3C264 9.39999 263.9 3.19998 262.2 1.69998C260.5 0.100006 250 0 131.8 0C8.6 0 3.2 0.100006 1.7 1.79999Z" fill="#B49471"/>
<g clip-path="url(#clip0_3_99)">
<path d="M131.499 116C123.331 116.008 115.5 118.901 109.725 124.042C103.949 129.184 100.7 136.155 100.691 143.426L100.694 147.243V147.928L100.721 155.151H101.49L101.464 147.928V147.243L101.46 143.426C101.46 136.334 104.625 129.532 110.259 124.517C115.892 119.502 123.533 116.685 131.5 116.685C139.467 116.685 147.108 119.502 152.741 124.517C158.375 129.532 161.54 136.334 161.54 143.426L161.536 147.243V147.928L161.51 155.152H162.279L162.306 147.928V147.243L162.309 143.426C162.3 136.155 159.051 129.184 153.275 124.042C147.499 118.9 139.668 116.008 131.499 116V116Z" fill="white"/>
<path d="M131.499 121.078C124.74 121.085 118.259 123.478 113.479 127.733C108.699 131.988 106.011 137.757 106.003 143.775V147.243V147.927L106.026 155.151H106.795L106.773 147.927V147.243V143.774C106.773 137.936 109.378 132.338 114.015 128.21C118.652 124.082 124.942 121.762 131.5 121.762C138.058 121.762 144.347 124.082 148.985 128.21C153.622 132.338 156.227 137.936 156.227 143.774V147.243V147.927L156.204 155.151H156.973L156.996 147.927V147.243V143.774C156.988 137.757 154.299 131.988 149.52 127.733C144.74 123.478 138.259 121.085 131.499 121.078V121.078Z" fill="white"/>
<path d="M131.5 126.155C126.149 126.16 121.018 128.055 117.234 131.424C113.45 134.792 111.322 139.359 111.316 144.123V147.243V147.927L111.334 155.151H112.103L112.085 147.927V147.243V144.122C112.085 139.538 114.131 135.143 117.772 131.901C121.413 128.66 126.351 126.839 131.5 126.839C136.649 126.839 141.587 128.66 145.228 131.901C148.869 135.143 150.915 139.538 150.915 144.122V147.243V147.927L150.897 155.151H151.666L151.684 147.927V147.243V144.122C151.678 139.359 149.549 134.792 145.765 131.423C141.981 128.055 136.851 126.16 131.5 126.155V126.155Z" fill="white"/>
<path d="M131.5 131.233C127.557 131.237 123.777 132.633 120.989 135.115C118.201 137.597 116.633 140.962 116.628 144.472V147.243V147.928L116.642 155.152H117.411L117.398 147.928V147.245V144.473C117.421 141.157 118.917 137.984 121.559 135.647C124.201 133.31 127.775 131.998 131.5 131.998C135.225 131.998 138.798 133.31 141.44 135.647C144.082 137.984 145.579 141.157 145.602 144.473V147.245V147.929L145.589 155.153H146.355L146.369 147.929V147.245V144.473C146.364 140.963 144.797 137.598 142.009 135.116C139.222 132.634 135.442 131.237 131.5 131.233V131.233Z" fill="white"/>
<path d="M139.529 147.535C139.529 146.122 139.058 144.74 138.176 143.564C137.294 142.389 136.04 141.473 134.573 140.932C133.106 140.391 131.491 140.249 129.934 140.525C128.376 140.801 126.946 141.482 125.823 142.481C124.7 143.481 123.935 144.754 123.625 146.141C123.315 147.527 123.474 148.964 124.082 150.27C124.689 151.576 125.718 152.693 127.039 153.478C128.359 154.263 129.911 154.683 131.499 154.683C133.628 154.68 135.669 153.926 137.174 152.587C138.679 151.247 139.526 149.43 139.529 147.535V147.535ZM131.499 141.074C132.935 141.074 134.338 141.453 135.532 142.163C136.726 142.873 137.656 143.882 138.206 145.063C138.755 146.243 138.899 147.542 138.619 148.796C138.339 150.049 137.647 151.201 136.632 152.104C135.617 153.008 134.324 153.623 132.916 153.873C131.508 154.122 130.048 153.994 128.722 153.505C127.395 153.016 126.262 152.188 125.464 151.125C124.667 150.063 124.241 148.813 124.241 147.535C124.243 145.822 125.008 144.18 126.369 142.968C127.73 141.757 129.575 141.075 131.499 141.073V141.074Z" fill="white"/>
<path d="M62 183.872H63.0777C64.1916 180.994 69.1135 167.945 70.6585 163.819H70.1197V163.212H73.2465V163.819H72.7077L80.3242 183.872H81.2584V184.479H77.0545V183.872H77.557L76.4073 180.738H65.5568L64.3714 183.872H65.1257V184.479H61.9989L62 183.872ZM70.9818 166.282C68.3949 172.998 66.9577 176.836 65.9515 179.553H75.868C72.2755 169.927 70.9818 166.474 70.9818 166.282V166.282Z" fill="white"/>
<path d="M88.1189 163.211H92.4679V163.819H91.6773V183.872H92.4679V184.479H88.1206V183.872H89.019V163.819H88.1206L88.1189 163.211Z" fill="white"/>
<path d="M99.328 163.211H103.675V163.819H102.814V183.296H111.507V182.529H112.226V184.479H99.328V183.872H100.298V163.819H99.328V163.211Z" fill="white"/>
<path d="M131.267 165.162V164.395H122.573V173.574H128.827V172.838H129.545V175.493H128.827V174.757H122.573V183.296H131.267V182.529H131.985V184.479H119.087V183.872H120.057V163.819H119.087V163.212H131.985V165.163L131.267 165.162Z" fill="white"/>
<path d="M151.386 165.162V164.395H142.691V173.574H148.945V172.838H149.663V175.493H148.943V174.757H142.689V183.296H151.384V182.529H152.102V184.479H139.204V183.872H140.175V163.819H139.204V163.212H152.102V165.163L151.386 165.162Z" fill="white"/>
<path d="M174.882 184.479H171.037V183.872H171.576L161.337 166.953V183.872H162.271V184.479H159.325V183.872H160.226V163.819H159.328V163.212H163.172V163.819H162.525L172.872 180.834V163.819H171.938V163.212H174.884V163.819H173.986V183.872H174.884L174.882 184.479Z" fill="white"/>
<path d="M181.743 183.872H182.821C183.935 180.994 188.857 167.945 190.402 163.819H189.863V163.212H192.99V163.819H192.451L200.068 183.872H201.002V184.479H196.798V183.872H197.301L196.151 180.738H185.301L184.116 183.872H184.87V184.479H181.743V183.872ZM190.725 166.282C188.138 172.998 186.701 176.836 185.695 179.553H195.611C192.018 169.927 190.725 166.474 190.725 166.282V166.282Z" fill="white"/>
<path d="M97.9924 199.709V199.565C98.6725 199.565 98.8344 199.334 98.8344 198.642V194.433C98.8344 193.741 98.6725 193.51 97.9924 193.51V193.366H100.972V193.51C100.292 193.51 100.13 193.741 100.13 194.433V196.711H103.205V194.433C103.205 193.741 103.043 193.51 102.363 193.51V193.366H105.342V193.51C104.662 193.51 104.5 193.741 104.5 194.433V198.642C104.5 199.334 104.662 199.565 105.342 199.565V199.709H102.363V199.565C103.043 199.565 103.205 199.334 103.205 198.642V196.96H100.13V198.642C100.13 199.334 100.292 199.565 100.972 199.565V199.709H97.9924Z" fill="white"/>
<path d="M110.568 197.541C110.558 197.977 110.404 198.401 110.125 198.759C109.846 199.118 109.455 199.395 109 199.556C108.544 199.717 108.046 199.755 107.567 199.664C107.087 199.574 106.649 199.36 106.306 199.049C105.963 198.737 105.731 198.343 105.639 197.914C105.547 197.486 105.599 197.043 105.788 196.641C105.978 196.239 106.297 195.896 106.705 195.655C107.113 195.413 107.592 195.285 108.081 195.285C108.747 195.291 109.383 195.532 109.849 195.955C110.315 196.378 110.574 196.949 110.568 197.541ZM109.128 197.541C109.128 195.88 108.649 195.421 108.081 195.421C107.514 195.421 107.035 195.893 107.035 197.541C107.035 199.17 107.514 199.661 108.081 199.661C108.649 199.661 109.128 199.17 109.128 197.541Z" fill="white"/>
<path d="M114.783 199.265C114.345 199.589 113.802 199.778 113.233 199.805C111.657 199.805 111.647 198.721 111.647 198.031V195.523H110.612V195.379C110.885 195.393 111.159 195.359 111.416 195.278C111.674 195.197 111.912 195.071 112.114 194.907C112.316 194.743 112.479 194.545 112.594 194.324C112.709 194.103 112.773 193.863 112.782 193.62H112.944V195.379H114.369V195.523H112.944V198.435C112.944 199.167 113.216 199.449 113.654 199.449C114.024 199.418 114.38 199.311 114.694 199.135L114.783 199.265Z" fill="white"/>
<path d="M119.333 197.272V197.416H116.26C116.357 198.41 116.993 199.12 117.935 199.12C118.934 199.12 119.163 198.637 119.163 198.637L119.331 198.746C119.142 199.081 118.846 199.36 118.481 199.547C118.115 199.734 117.696 199.821 117.275 199.798C116.042 199.798 115.038 199.027 115.038 197.541C115.038 196.064 116.043 195.285 117.275 195.285C118.414 195.285 119.333 195.857 119.333 197.272ZM118.059 196.859C118.059 196.312 117.947 195.421 117.221 195.421C116.736 195.421 116.245 195.948 116.245 197.146C116.245 197.188 116.245 197.23 116.248 197.272H118.035C118.035 197.272 118.059 197.099 118.059 196.859V196.859Z" fill="white"/>
<path d="M122.564 199.559V199.703H119.589V199.559C120.207 199.559 120.396 199.369 120.427 198.814V194.435C120.422 194.24 120.331 194.054 120.173 193.919C120.016 193.783 119.804 193.709 119.585 193.712V193.567L121.498 192.852C121.522 192.843 121.549 192.839 121.575 192.842C121.602 192.844 121.627 192.852 121.649 192.865C121.671 192.878 121.689 192.896 121.702 192.917C121.714 192.937 121.721 192.961 121.721 192.984V198.634C121.722 199.328 121.883 199.559 122.564 199.559Z" fill="white"/>
<path d="M135.416 197.146L134.228 198.157L134.151 198.093C134.207 198.009 134.239 197.915 134.243 197.818C134.243 197.639 134.108 197.432 133.511 197.388C133.68 197.694 133.778 198.027 133.798 198.368C133.798 198.99 133.327 199.616 131.354 199.616C129.979 199.616 129.162 199.294 128.888 198.502C128.71 198.524 128.531 198.534 128.351 198.534C128.049 198.534 127.569 198.377 127.493 198.194L127.689 198.041C127.788 198.129 127.907 198.198 128.038 198.243C128.169 198.287 128.309 198.306 128.449 198.298C128.575 198.296 128.7 198.277 128.819 198.241C128.794 198.098 128.782 197.954 128.783 197.81C128.783 196.496 129.683 196.14 130.605 196.038C130.219 195.968 129.871 195.784 129.616 195.516C129.362 195.249 129.216 194.912 129.203 194.562C129.203 193.66 129.726 193.12 131.45 193.12C132.094 193.127 132.737 193.172 133.373 193.257V194.675H133.225C133.214 194.319 133.047 193.981 132.759 193.734C132.472 193.487 132.087 193.351 131.687 193.354C131.509 193.345 131.331 193.371 131.165 193.429C130.999 193.488 130.849 193.577 130.725 193.691C130.601 193.806 130.507 193.943 130.447 194.092C130.388 194.242 130.366 194.402 130.382 194.56C130.392 194.751 130.446 194.937 130.539 195.11C130.632 195.282 130.763 195.435 130.923 195.562C131.084 195.688 131.272 195.785 131.475 195.846C131.678 195.907 131.893 195.931 132.107 195.917V196.165C131.206 196.165 129.962 196.567 129.962 197.706C130.967 197.071 132.156 196.706 133.388 196.654C133.493 196.654 133.615 196.65 133.748 196.65C134.354 196.625 134.949 196.802 135.416 197.146V197.146ZM133.219 197.736C133.218 197.617 133.209 197.498 133.19 197.38C131.73 197.396 130.917 197.882 130.008 198.218C130.017 198.379 130.061 198.536 130.139 198.682C130.217 198.828 130.326 198.958 130.461 199.066C130.595 199.174 130.752 199.257 130.923 199.311C131.094 199.365 131.275 199.388 131.455 199.379C131.697 199.39 131.939 199.355 132.164 199.275C132.389 199.196 132.592 199.074 132.76 198.918C132.927 198.763 133.055 198.577 133.134 198.373C133.214 198.169 133.243 197.953 133.22 197.738L133.219 197.736Z" fill="white"/>
<path d="M146.207 193.255C145.655 193.284 144.823 193.583 144.355 194.788L142.335 199.946C142.328 199.962 142.315 199.976 142.298 199.986C142.282 199.996 142.262 200.001 142.243 200C142.223 200 142.204 199.994 142.188 199.983C142.172 199.973 142.16 199.959 142.153 199.942L139.622 194.726C139.287 194.031 139.083 193.661 138.403 193.661V193.517H141.264V193.661C140.883 193.661 140.754 193.765 140.754 193.963C140.775 194.155 140.826 194.343 140.906 194.522L142.804 198.319L144.092 194.763C144.737 193.14 145.684 193.073 146.53 193.073H146.757C146.955 193.073 147.147 193.135 147.299 193.248C147.452 193.361 147.554 193.518 147.589 193.692C147.624 193.866 147.59 194.045 147.492 194.198C147.393 194.352 147.237 194.469 147.052 194.531C146.866 194.592 146.661 194.593 146.474 194.534C146.287 194.475 146.13 194.36 146.029 194.207C145.928 194.055 145.891 193.877 145.923 193.702C145.956 193.528 146.056 193.37 146.206 193.255L146.207 193.255ZM148.25 199.714V199.858H145.27V199.714C145.95 199.714 146.112 199.483 146.112 198.791V196.921C146.108 196.726 146.017 196.54 145.859 196.404C145.701 196.269 145.49 196.194 145.27 196.198V196.052L147.183 195.337C147.203 195.329 147.225 195.325 147.246 195.325C147.289 195.325 147.331 195.34 147.361 195.368C147.391 195.395 147.408 195.431 147.408 195.469V198.791C147.405 199.483 147.567 199.714 148.25 199.714Z" fill="white"/>
<path d="M151.462 199.559V199.703H148.488V199.559C149.106 199.559 149.295 199.369 149.326 198.814V194.435C149.321 194.24 149.23 194.054 149.072 193.919C148.915 193.783 148.703 193.709 148.484 193.712V193.567L150.397 192.852C150.421 192.843 150.448 192.839 150.474 192.842C150.501 192.844 150.526 192.852 150.548 192.865C150.57 192.878 150.588 192.896 150.601 192.917C150.613 192.937 150.62 192.961 150.62 192.984V198.634C150.62 199.328 150.783 199.559 151.462 199.559Z" fill="white"/>
<path d="M154.656 199.559V199.703H151.681V199.559C152.299 199.559 152.489 199.369 152.519 198.814V194.435C152.515 194.24 152.424 194.054 152.266 193.919C152.108 193.783 151.896 193.709 151.677 193.712V193.567L153.59 192.852C153.61 192.844 153.631 192.84 153.653 192.84C153.696 192.84 153.737 192.855 153.767 192.882C153.798 192.909 153.815 192.946 153.815 192.984V198.634C153.814 199.328 153.976 199.559 154.656 199.559Z" fill="white"/>
<path d="M160.157 199.56V199.704H158.765C158.574 199.704 158.389 199.638 158.251 199.52C158.112 199.402 158.029 199.242 158.02 199.071C157.872 199.276 157.673 199.447 157.438 199.572C157.203 199.696 156.938 199.77 156.665 199.787C156.464 199.805 156.261 199.786 156.068 199.732C155.876 199.677 155.698 199.589 155.545 199.471C155.392 199.353 155.268 199.209 155.18 199.047C155.092 198.885 155.042 198.708 155.033 198.529C155.033 196.923 158 197.448 158.013 196.824C158.013 196.825 158.014 196.826 158.015 196.827C157.982 195.81 157.725 195.422 157.086 195.422C156.947 195.43 156.812 195.463 156.687 195.519C156.563 195.575 156.452 195.652 156.361 195.747C156.271 195.841 156.202 195.951 156.16 196.069C156.118 196.187 156.102 196.312 156.115 196.435C156.102 196.598 156.158 196.758 156.272 196.885C156.202 196.948 156.185 196.953 156.181 196.953L155.192 196.189C155.192 196.189 155.52 195.286 157.04 195.286C158.346 195.286 159.315 195.698 159.315 197.542V198.636C159.315 199.329 159.477 199.56 160.157 199.56ZM158.019 197.187C157.671 197.463 156.328 197.476 156.328 198.637C156.328 198.935 156.362 199.439 157.096 199.439C157.305 199.437 157.507 199.374 157.673 199.262C157.84 199.149 157.961 198.992 158.019 198.814V197.187Z" fill="white"/>
<path d="M165.008 198.518C165.008 199.435 163.864 199.797 162.817 199.797C162.095 199.797 160.702 199.702 160.702 199.702V198.261H160.869C160.869 199.174 161.803 199.66 162.819 199.66C163.078 199.683 163.336 199.614 163.538 199.469C163.74 199.323 163.87 199.113 163.899 198.883C163.899 197.621 160.703 198.087 160.703 196.397C160.703 195.833 161.043 195.281 163.115 195.281C163.582 195.29 164.048 195.321 164.511 195.375V196.49H164.363C164.363 196.058 164.233 195.417 163.117 195.417C162.702 195.417 162 195.556 162 196.051C161.997 197.142 165.008 196.698 165.008 198.518Z" fill="white"/>
</g>
<defs>
<clipPath id="clip0_3_99">
<rect width="139" height="84" fill="white" transform="translate(62 116)"/>
</clipPath>
</defs>
</svg>
