<svg width="264" height="315" viewBox="0 0 264 315" fill="none" xmlns="http://www.w3.org/2000/svg">
<path d="M1.7 1.8C0.1 3.5 0 15.8 0 157.7C0 305.6 0.1 311.8 1.8 313.3C3.5 314.9 14 315 132.2 315C255.4 315 260.8 314.9 262.3 313.2C263.9 311.5 264 299.2 264 157.3C264 9.4 263.9 3.2 262.2 1.7C260.5 0.0999953 250 -4.69387e-06 131.8 -4.69387e-06C8.6 -4.69387e-06 3.2 0.0999953 1.7 1.8Z" fill="#6050A8"/>
<g clip-path="url(#clip0_7_15)">
<path d="M59 132.827H66.746C68.345 132.738 69.9261 133.2 71.225 134.137C71.769 134.578 72.2012 135.141 72.4862 135.78C72.7712 136.42 72.901 137.118 72.865 137.817C72.871 138.565 72.6806 139.302 72.313 139.953C71.9298 140.621 71.3782 141.177 70.713 141.566C71.7018 141.859 72.5894 142.422 73.276 143.192C73.9716 144.044 74.3251 145.125 74.268 146.224C74.3099 146.971 74.1761 147.718 73.8774 148.405C73.5787 149.091 73.1234 149.698 72.548 150.177C71.0891 151.198 69.3247 151.689 67.548 151.569H59V132.827ZM66.277 140.545C67.0768 140.624 67.8763 140.392 68.51 139.898C68.7329 139.672 68.9067 139.403 69.0205 139.107C69.1342 138.81 69.1855 138.494 69.171 138.177C69.186 137.859 69.1351 137.542 69.0213 137.245C68.9075 136.948 68.7334 136.678 68.51 136.452C67.8763 135.958 67.0769 135.726 66.277 135.804H62.583V140.545H66.277ZM67.407 148.594C68.264 148.667 69.1189 148.433 69.819 147.933C70.0766 147.696 70.2783 147.405 70.4094 147.081C70.5405 146.757 70.5978 146.407 70.577 146.058C70.5978 145.709 70.5405 145.359 70.4094 145.035C70.2783 144.711 70.0766 144.42 69.819 144.183C69.1189 143.683 68.264 143.449 67.407 143.522H62.583V148.594H67.407Z" fill="white"/>
<path d="M89.983 151.571H86.483V149.587C86.0586 150.267 85.4712 150.83 84.774 151.226C83.9248 151.7 82.9622 151.934 81.99 151.901C81.1669 151.92 80.3489 151.765 79.59 151.446C78.9366 151.163 78.36 150.728 77.908 150.178C77.4505 149.603 77.1132 148.943 76.916 148.235C76.687 147.419 76.5756 146.574 76.585 145.727V137.375H80.085V145.346C80.085 147.643 81.1327 148.792 83.228 148.792C84.0105 148.821 84.7747 148.551 85.364 148.035C85.8927 147.579 86.2802 146.981 86.481 146.312V137.375H89.981L89.983 151.571Z" fill="white"/>
<path d="M93.29 137.376H96.79V139.36C97.2142 138.679 97.8016 138.116 98.499 137.72C99.3482 137.246 100.311 137.012 101.283 137.045C102.106 137.026 102.924 137.181 103.683 137.5C104.336 137.783 104.912 138.218 105.364 138.768C105.824 139.346 106.161 140.012 106.356 140.725C106.583 141.537 106.695 142.376 106.687 143.219V151.572H103.187V143.606C103.187 141.309 102.139 140.16 100.044 140.16C99.2611 140.131 98.4965 140.402 97.907 140.918C97.3782 141.374 96.991 141.972 96.791 142.641V151.572H93.291L93.29 137.376Z" fill="white"/>
<path d="M115.535 150.606C114.616 150.62 113.704 150.456 112.847 150.124C112.074 149.82 111.377 149.35 110.807 148.746C110.233 148.13 109.79 147.402 109.507 146.609C109.192 145.715 109.038 144.773 109.052 143.825C109.04 142.882 109.194 141.945 109.507 141.055C109.788 140.257 110.231 139.525 110.807 138.905C111.377 138.301 112.074 137.83 112.847 137.527C113.704 137.195 114.616 137.031 115.535 137.045C116.389 137.03 117.235 137.219 118.002 137.596C118.703 137.945 119.327 138.432 119.834 139.029V137.376H123.334V149.145C123.36 150.292 123.149 151.433 122.714 152.495C122.339 153.385 121.775 154.184 121.061 154.835C120.368 155.452 119.557 155.921 118.676 156.213C117.779 156.516 116.838 156.669 115.892 156.668C115.109 156.676 114.327 156.597 113.562 156.433C112.925 156.294 112.306 156.087 111.715 155.813C111.209 155.579 110.741 155.273 110.324 154.903C109.955 154.573 109.622 154.204 109.332 153.803L111.454 151.599C111.915 152.207 112.493 152.717 113.154 153.099C113.949 153.509 114.837 153.704 115.731 153.664C116.24 153.664 116.746 153.585 117.231 153.43C117.712 153.277 118.158 153.028 118.541 152.699C118.948 152.339 119.268 151.891 119.478 151.39C119.732 150.765 119.854 150.094 119.836 149.419V148.647C119.33 149.243 118.706 149.726 118.003 150.067C117.233 150.435 116.389 150.619 115.536 150.604L115.535 150.606ZM116.39 147.604C117.114 147.615 117.828 147.429 118.454 147.065C119.053 146.715 119.533 146.192 119.832 145.565V142.117C119.531 141.487 119.052 140.96 118.454 140.601C117.829 140.228 117.113 140.037 116.386 140.049C115.88 140.023 115.375 140.102 114.9 140.28C114.426 140.458 113.994 140.731 113.63 141.083C113.284 141.448 113.015 141.879 112.84 142.35C112.665 142.822 112.586 143.324 112.61 143.826C112.586 144.328 112.665 144.83 112.84 145.302C113.015 145.773 113.284 146.204 113.63 146.569C113.994 146.921 114.427 147.194 114.901 147.371C115.375 147.549 115.88 147.628 116.386 147.602" fill="white"/>
<path d="M157.542 132H154.041V151.571H157.542V132Z" fill="white"/>
<path d="M167.603 151.956C166.487 151.979 165.379 151.768 164.35 151.336C163.471 150.965 162.68 150.414 162.027 149.719C161.374 149.023 160.874 148.199 160.56 147.298C160.238 146.396 160.075 145.445 160.078 144.487C160.074 143.533 160.238 142.585 160.56 141.687C160.877 140.79 161.378 139.97 162.03 139.277C162.682 138.585 163.471 138.036 164.347 137.665C166.437 136.837 168.763 136.837 170.853 137.665C171.73 138.035 172.521 138.584 173.174 139.277C173.827 139.97 174.329 140.791 174.647 141.689C174.97 142.587 175.133 143.535 175.13 144.489C175.132 145.446 174.969 146.397 174.647 147.298C174.336 148.182 173.849 148.994 173.214 149.683C172.552 150.392 171.75 150.955 170.858 151.337C169.829 151.769 168.721 151.98 167.605 151.957L167.603 151.956ZM167.605 140.157C167.062 140.151 166.523 140.253 166.02 140.457C165.544 140.652 165.116 140.949 164.766 141.326C164.404 141.722 164.123 142.186 163.939 142.69C163.73 143.264 163.629 143.871 163.639 144.482C163.629 145.092 163.73 145.699 163.939 146.273C164.125 146.78 164.406 147.248 164.766 147.651C165.112 148.036 165.541 148.337 166.02 148.533C167.038 148.938 168.172 148.938 169.19 148.533C169.669 148.337 170.097 148.035 170.444 147.651C170.804 147.248 171.084 146.78 171.271 146.273C171.479 145.699 171.581 145.092 171.571 144.482C171.581 143.871 171.479 143.264 171.271 142.69C171.086 142.19 170.806 141.729 170.447 141.335C170.097 140.958 169.669 140.661 169.193 140.466C168.69 140.262 168.151 140.16 167.608 140.166" fill="white"/>
<path d="M175.57 137.376H179.319L183.095 147.246L186.871 137.378H190.62L184.831 151.578H181.331L175.57 137.376Z" fill="white"/>
<path d="M59 154.705H62.583V163.498L70.164 154.705H74.492V154.788L67.545 162.643L74.877 173.366V173.449H70.687L65.174 165.349L62.583 168.266V173.449H59V154.705Z" fill="white"/>
<path d="M81.9059 173.834C80.7902 173.857 79.682 173.646 78.6529 173.214C77.7742 172.843 76.983 172.292 76.3302 171.596C75.6774 170.901 75.1776 170.076 74.8629 169.176C74.5413 168.274 74.3782 167.323 74.3809 166.365C74.3774 165.411 74.5405 164.463 74.8629 163.565C75.1809 162.668 75.6821 161.847 76.3346 161.154C76.987 160.461 77.7766 159.911 78.6529 159.54C79.6821 159.109 80.7902 158.898 81.9059 158.92C83.0216 158.898 84.1297 159.109 85.1589 159.54C86.0354 159.911 86.825 160.461 87.4775 161.154C88.13 161.847 88.6311 162.668 88.9489 163.565C89.2721 164.463 89.4356 165.411 89.4319 166.365C89.4346 167.323 89.2712 168.274 88.9489 169.176C88.6382 170.06 88.1506 170.872 87.5159 171.561C86.8539 172.27 86.0511 172.834 85.1589 173.215C84.1298 173.647 83.0217 173.858 81.9059 173.835V173.834ZM81.9059 162.035C81.3629 162.029 80.8241 162.131 80.3209 162.335C79.8448 162.529 79.4169 162.825 79.0669 163.202C78.7052 163.599 78.4243 164.063 78.2399 164.567C77.8358 165.727 77.8358 166.99 78.2399 168.15C78.426 168.657 78.7067 169.125 79.0669 169.528C79.413 169.913 79.8417 170.214 80.3209 170.41C81.339 170.814 82.4728 170.814 83.4909 170.41C83.9699 170.214 84.3985 169.913 84.7449 169.528C85.1049 169.125 85.3855 168.657 85.5719 168.15C85.976 166.99 85.976 165.727 85.5719 164.567C85.3872 164.063 85.1063 163.599 84.7449 163.202C84.3946 162.826 83.9668 162.53 83.4909 162.335C82.9877 162.131 82.4489 162.029 81.9059 162.035" fill="white"/>
<path d="M91.939 159.253H95.439V161.237C95.8633 160.557 96.4507 159.993 97.148 159.597C97.9972 159.123 98.9598 158.889 99.932 158.922C100.755 158.903 101.573 159.058 102.332 159.377C102.985 159.661 103.561 160.096 104.013 160.646C104.473 161.224 104.81 161.89 105.005 162.603C105.232 163.415 105.344 164.255 105.336 165.098V173.45H101.836V165.483C101.836 163.186 100.788 162.038 98.693 162.037C97.91 162.008 97.1455 162.279 96.556 162.795C96.0278 163.25 95.6406 163.847 95.44 164.515V173.446H91.94L91.939 159.253Z" fill="white"/>
<path d="M118.98 171.823C118.44 172.416 117.789 172.898 117.064 173.242C116.275 173.61 115.413 173.794 114.542 173.78C113.602 173.79 112.669 173.612 111.799 173.257C110.978 172.919 110.24 172.407 109.635 171.757C109.013 171.077 108.532 170.281 108.22 169.415C107.869 168.439 107.696 167.407 107.71 166.369C107.697 165.327 107.869 164.291 108.22 163.309C108.53 162.44 109.013 161.643 109.64 160.966C110.25 160.321 110.987 159.811 111.804 159.466C112.672 159.101 113.606 158.918 114.547 158.928C115.419 158.914 116.283 159.103 117.069 159.48C117.793 159.832 118.443 160.319 118.985 160.914V159.253H122.485V173.453H118.985L118.98 171.823ZM115.314 170.665C116.081 170.671 116.837 170.476 117.505 170.099C118.15 169.751 118.667 169.205 118.98 168.542V164.188C118.673 163.514 118.156 162.957 117.505 162.602C116.931 162.285 116.294 162.097 115.64 162.049C114.986 162.002 114.329 162.097 113.715 162.327C113.232 162.511 112.795 162.798 112.434 163.168C112.06 163.56 111.769 164.024 111.579 164.532C111.36 165.118 111.252 165.74 111.262 166.365C111.251 166.986 111.359 167.604 111.579 168.185C111.771 168.688 112.061 169.147 112.434 169.535C112.795 169.905 113.232 170.192 113.715 170.376C114.226 170.572 114.768 170.67 115.315 170.666" fill="white"/>
<path d="M125.819 153.88H129.319V165.29L134.805 159.254H138.805V159.364L133.405 165.318L139.414 173.367V173.45H135.27L131.192 167.744L129.319 169.81V173.448H125.819V153.88Z" fill="white"/>
<path d="M144.257 153.878H140.756V173.449H144.257V153.878Z" fill="white"/>
<path d="M158.094 171.823C157.554 172.416 156.903 172.898 156.179 173.242C155.39 173.61 154.527 173.794 153.656 173.78C152.716 173.79 151.783 173.612 150.913 173.257C150.092 172.919 149.354 172.407 148.749 171.757C148.126 171.077 147.643 170.281 147.329 169.414C146.978 168.437 146.806 167.406 146.821 166.368C146.807 165.326 146.979 164.29 147.329 163.308C147.639 162.439 148.122 161.642 148.749 160.965C149.359 160.321 150.096 159.81 150.913 159.465C151.781 159.1 152.714 158.917 153.656 158.927C154.528 158.913 155.392 159.102 156.179 159.479C156.902 159.831 157.552 160.318 158.094 160.913V159.253H161.594V173.453H158.094V171.823ZM154.428 170.665C155.195 170.671 155.951 170.476 156.619 170.099C157.264 169.75 157.781 169.205 158.094 168.542V164.188C157.787 163.514 157.269 162.957 156.619 162.602C156.045 162.285 155.408 162.097 154.754 162.049C154.1 162.002 153.443 162.097 152.829 162.327C152.346 162.512 151.909 162.799 151.547 163.168C151.173 163.56 150.882 164.024 150.694 164.532C150.474 165.118 150.366 165.74 150.377 166.365C150.365 166.986 150.473 167.604 150.694 168.185C150.885 168.688 151.175 169.147 151.547 169.535C151.909 169.905 152.346 170.192 152.829 170.376C153.34 170.572 153.882 170.67 154.429 170.666" fill="white"/>
<path d="M184.28 165.483C184.347 164.565 184.088 163.652 183.549 162.906C183.255 162.598 182.896 162.36 182.498 162.21C182.1 162.059 181.673 162 181.249 162.037C180.845 162.031 180.443 162.101 180.065 162.244C179.731 162.372 179.423 162.559 179.154 162.795C178.899 163.022 178.681 163.287 178.506 163.58C178.332 163.873 178.197 164.188 178.106 164.517V173.448H174.606V165.483C174.606 163.186 173.595 162.038 171.574 162.037C171.191 162.016 170.808 162.073 170.447 162.203C170.086 162.333 169.755 162.534 169.474 162.795C168.983 163.267 168.624 163.86 168.434 164.515V173.446H164.934V159.246H168.434V161.23C168.848 160.56 169.414 159.998 170.088 159.59C170.915 159.111 171.862 158.877 172.817 158.915C173.83 158.873 174.834 159.122 175.711 159.632C176.464 160.11 177.059 160.801 177.42 161.617C177.915 160.789 178.613 160.101 179.447 159.617C180.383 159.121 181.434 158.879 182.493 158.917C183.311 158.897 184.124 159.053 184.877 159.372C185.522 159.656 186.09 160.091 186.531 160.641C186.981 161.22 187.305 161.886 187.482 162.598C187.69 163.413 187.79 164.252 187.782 165.093V173.445H184.282L184.28 165.483Z" fill="white"/>
<path d="M201.424 171.823C200.884 172.416 200.234 172.898 199.509 173.242C198.72 173.61 197.858 173.794 196.987 173.78C196.047 173.79 195.114 173.612 194.244 173.257C193.423 172.919 192.685 172.407 192.08 171.757C191.457 171.077 190.974 170.281 190.66 169.414C190.309 168.437 190.136 167.406 190.151 166.368C190.137 165.326 190.31 164.29 190.66 163.308C190.97 162.439 191.453 161.642 192.08 160.965C192.69 160.32 193.426 159.81 194.244 159.465C195.112 159.1 196.045 158.917 196.987 158.927C197.859 158.913 198.722 159.102 199.509 159.479C200.233 159.831 200.882 160.318 201.424 160.913V159.253H204.924V173.453H201.424V171.823ZM197.758 170.665C198.526 170.671 199.281 170.476 199.95 170.099C200.595 169.75 201.111 169.205 201.424 168.542V164.188C201.117 163.514 200.6 162.957 199.95 162.602C199.376 162.285 198.739 162.097 198.085 162.049C197.431 162.002 196.774 162.096 196.16 162.327C195.677 162.512 195.24 162.798 194.878 163.168C194.504 163.56 194.213 164.024 194.024 164.532C193.804 165.118 193.697 165.74 193.707 166.365C193.696 166.986 193.803 167.604 194.024 168.185C194.215 168.688 194.506 169.147 194.878 169.535C195.239 169.905 195.677 170.192 196.16 170.376C196.671 170.572 197.213 170.67 197.76 170.666" fill="white"/>
<path d="M181.469 181.298H179.741V183.015H181.469V181.298Z" fill="white"/>
<path d="M185.372 183.149C184.933 183.157 184.496 183.071 184.093 182.897C183.736 182.741 183.415 182.514 183.15 182.229C182.895 181.951 182.696 181.625 182.567 181.27C182.298 180.535 182.298 179.728 182.567 178.993C182.697 178.636 182.895 178.308 183.15 178.027C183.414 177.74 183.735 177.51 184.093 177.354C184.496 177.179 184.932 177.093 185.372 177.101C185.901 177.087 186.423 177.219 186.881 177.483C187.313 177.746 187.676 178.108 187.942 178.538L186.931 179.312C186.783 179.045 186.578 178.813 186.331 178.633C186.073 178.453 185.764 178.36 185.45 178.369C185.229 178.36 185.009 178.397 184.804 178.479C184.599 178.562 184.414 178.687 184.261 178.846C183.949 179.199 183.788 179.66 183.812 180.13C183.786 180.599 183.948 181.059 184.261 181.409C184.415 181.567 184.6 181.691 184.805 181.772C185.01 181.853 185.23 181.89 185.45 181.881C185.764 181.89 186.073 181.797 186.331 181.617C186.578 181.437 186.783 181.205 186.931 180.937L187.942 181.712C187.676 182.142 187.312 182.503 186.881 182.767C186.423 183.03 185.9 183.162 185.372 183.148" fill="white"/>
<path d="M191.544 183.173C191.09 183.182 190.638 183.096 190.219 182.92C189.856 182.764 189.53 182.535 189.26 182.247C189.002 181.966 188.803 181.636 188.676 181.276C188.544 180.909 188.476 180.522 188.476 180.132C188.476 179.744 188.544 179.359 188.676 178.994C188.805 178.629 189.009 178.294 189.275 178.012C189.541 177.73 189.862 177.506 190.219 177.355C191.07 177.019 192.016 177.019 192.867 177.355C193.224 177.506 193.546 177.73 193.812 178.012C194.078 178.295 194.282 178.629 194.411 178.995C194.543 179.36 194.611 179.745 194.611 180.133C194.611 180.523 194.543 180.91 194.411 181.277C194.283 181.644 194.08 181.979 193.814 182.263C193.548 182.546 193.226 182.77 192.868 182.921C192.449 183.097 191.998 183.183 191.544 183.174V183.173ZM191.544 178.374C191.323 178.372 191.104 178.414 190.899 178.498C190.705 178.577 190.531 178.698 190.388 178.851C190.241 179.013 190.127 179.202 190.052 179.407C189.887 179.879 189.887 180.393 190.052 180.865C190.128 181.072 190.242 181.262 190.388 181.426C190.53 181.582 190.704 181.705 190.899 181.785C191.313 181.95 191.775 181.95 192.189 181.785C192.384 181.705 192.559 181.582 192.7 181.426C192.846 181.262 192.961 181.071 193.037 180.865C193.202 180.393 193.202 179.879 193.037 179.407C192.962 179.202 192.847 179.013 192.7 178.851C192.557 178.698 192.383 178.577 192.189 178.498C191.984 178.414 191.765 178.372 191.544 178.374" fill="white"/>
<path d="M203.504 179.772C203.53 179.398 203.424 179.027 203.204 178.723C203.084 178.598 202.938 178.501 202.776 178.44C202.613 178.379 202.44 178.355 202.267 178.37C202.102 178.367 201.938 178.396 201.784 178.454C201.648 178.506 201.523 178.582 201.415 178.678C201.311 178.77 201.222 178.878 201.151 178.998C201.08 179.117 201.026 179.245 200.989 179.379V183.015H199.564V179.772C199.564 178.839 199.153 178.372 198.33 178.372C198.174 178.364 198.019 178.387 197.873 178.44C197.726 178.493 197.592 178.575 197.478 178.681C197.276 178.873 197.129 179.114 197.051 179.381V183.015H195.627V177.237H197.052V178.045C197.22 177.772 197.45 177.543 197.725 177.377C198.062 177.182 198.446 177.087 198.835 177.102C199.247 177.085 199.656 177.186 200.013 177.394C200.321 177.588 200.565 177.869 200.713 178.201C200.915 177.865 201.199 177.585 201.538 177.388C201.919 177.186 202.347 177.087 202.778 177.102C203.111 177.094 203.442 177.158 203.749 177.288C204.011 177.404 204.242 177.581 204.422 177.804C204.605 178.041 204.737 178.313 204.808 178.604C204.893 178.935 204.935 179.277 204.932 179.619V183.019H203.507L203.504 179.772Z" fill="white"/>
<path fill-rule="evenodd" clip-rule="evenodd" d="M126.657 148.154C127.742 148.154 127.952 147.84 128.712 147.081C129.66 146.133 138.184 137.538 138.48 137.339C138.78 137.539 147.27 146.102 148.222 147.054C148.986 147.818 149.199 148.154 150.303 148.154C150.76 148.131 151.191 147.939 151.514 147.615C151.838 147.292 152.03 146.861 152.053 146.404C152.053 145.16 151.553 144.923 150.714 144.085L149.044 142.415L140.665 134.038C139.821 133.193 139.574 132.673 138.32 132.673C137.44 132.673 136.793 133.536 136.32 134.012L126.272 144.058C125.427 144.903 124.907 145.15 124.907 146.404C124.93 146.861 125.122 147.292 125.446 147.615C125.769 147.939 126.2 148.131 126.657 148.154" fill="white"/>
<path fill-rule="evenodd" clip-rule="evenodd" d="M143.638 151.958L140.665 148.985C139.819 148.139 139.572 147.62 138.319 147.62C137.439 147.62 136.792 148.483 136.319 148.959L133.319 151.959L143.638 151.958Z" fill="white"/>
</g>
<defs>
<clipPath id="clip0_7_15">
<rect width="145.928" height="51.172" fill="white" transform="translate(59 132)"/>
</clipPath>
</defs>
</svg>
