<svg width="264" height="315" viewBox="0 0 264 315" fill="none" xmlns="http://www.w3.org/2000/svg">
<path d="M1.7 1.8C0.1 3.5 0 15.8 0 157.7C0 305.6 0.1 311.8 1.8 313.3C3.5 314.9 14 315 132.2 315C255.4 315 260.8 314.9 262.3 313.2C263.9 311.5 264 299.2 264 157.3C264 9.4 263.9 3.2 262.2 1.7C260.5 0.0999953 250 -4.69387e-06 131.8 -4.69387e-06C8.6 -4.69387e-06 3.2 0.0999953 1.7 1.8Z" fill="#074E9A"/>
<path d="M36.8555 157.857H33.2031L33.1836 155.729H36.2012C36.735 155.729 37.168 155.663 37.5 155.533C37.8385 155.403 38.0859 155.214 38.2422 154.967C38.3984 154.713 38.4766 154.4 38.4766 154.029C38.4766 153.606 38.3984 153.264 38.2422 153.004C38.0859 152.743 37.8385 152.555 37.5 152.438C37.168 152.314 36.7383 152.252 36.2109 152.252H34.3555V164H31.1719V149.781H36.2109C37.0638 149.781 37.8255 149.859 38.4961 150.016C39.1667 150.172 39.7363 150.413 40.2051 150.738C40.6803 151.064 41.0417 151.471 41.2891 151.959C41.5365 152.447 41.6602 153.023 41.6602 153.688C41.6602 154.267 41.5299 154.807 41.2695 155.309C41.0156 155.81 40.6055 156.217 40.0391 156.529C39.4727 156.842 38.7142 157.011 37.7637 157.037L36.8555 157.857ZM36.7285 164H32.3926L33.5449 161.539H36.7285C37.2168 161.539 37.6139 161.461 37.9199 161.305C38.2259 161.148 38.4505 160.937 38.5938 160.67C38.737 160.403 38.8086 160.104 38.8086 159.771C38.8086 159.381 38.7402 159.042 38.6035 158.756C38.4733 158.469 38.265 158.248 37.9785 158.092C37.6986 157.936 37.3242 157.857 36.8555 157.857H34.0039L34.0234 155.729H37.5098L38.252 156.568C39.1569 156.549 39.8796 156.695 40.4199 157.008C40.9668 157.314 41.3607 157.717 41.6016 158.219C41.8424 158.72 41.9629 159.251 41.9629 159.811C41.9629 160.735 41.7643 161.51 41.3672 162.135C40.9701 162.753 40.3809 163.219 39.5996 163.531C38.8249 163.844 37.8678 164 36.7285 164ZM50.0684 161.451V153.434H53.1348V164H50.2637L50.0684 161.451ZM50.3906 159.293L51.2305 159.273C51.2305 159.983 51.1458 160.637 50.9766 161.236C50.8138 161.835 50.5664 162.356 50.2344 162.799C49.9089 163.242 49.502 163.587 49.0137 163.834C48.5319 164.075 47.9688 164.195 47.3242 164.195C46.8034 164.195 46.3249 164.124 45.8887 163.98C45.459 163.831 45.0879 163.6 44.7754 163.287C44.4629 162.968 44.222 162.561 44.0527 162.066C43.8835 161.565 43.7988 160.966 43.7988 160.27V153.434H46.8457V160.289C46.8457 160.562 46.8783 160.797 46.9434 160.992C47.015 161.181 47.1094 161.337 47.2266 161.461C47.3503 161.585 47.5 161.676 47.6758 161.734C47.8581 161.793 48.0566 161.822 48.2715 161.822C48.8118 161.822 49.235 161.712 49.541 161.49C49.8535 161.262 50.0716 160.96 50.1953 160.582C50.3255 160.198 50.3906 159.768 50.3906 159.293ZM58.1738 155.895V164H55.127V153.434H57.9883L58.1738 155.895ZM61.3281 153.355L61.2793 156.197C61.1491 156.178 60.9798 156.161 60.7715 156.148C60.5632 156.129 60.3841 156.119 60.2344 156.119C59.8438 156.119 59.5052 156.168 59.2188 156.266C58.9388 156.357 58.7044 156.493 58.5156 156.676C58.3333 156.858 58.1966 157.086 58.1055 157.359C58.0143 157.626 57.9688 157.936 57.9688 158.287L57.3926 158.004C57.3926 157.307 57.4609 156.669 57.5977 156.09C57.7344 155.51 57.9329 155.009 58.1934 154.586C58.4538 154.156 58.7728 153.824 59.1504 153.59C59.528 153.355 59.9577 153.238 60.4395 153.238C60.5957 153.238 60.7552 153.248 60.918 153.268C61.0807 153.287 61.2174 153.316 61.3281 153.355ZM67.8613 161.48V156.949C67.8613 156.63 67.8125 156.357 67.7148 156.129C67.6172 155.901 67.4642 155.722 67.2559 155.592C67.0475 155.462 66.7773 155.396 66.4453 155.396C66.1654 155.396 65.9212 155.445 65.7129 155.543C65.5111 155.641 65.3548 155.781 65.2441 155.963C65.14 156.145 65.0879 156.37 65.0879 156.637H62.041C62.041 156.161 62.1484 155.719 62.3633 155.309C62.5781 154.898 62.8841 154.537 63.2812 154.225C63.6849 153.912 64.1667 153.671 64.7266 153.502C65.2865 153.326 65.9147 153.238 66.6113 153.238C67.4382 153.238 68.1738 153.378 68.8184 153.658C69.4694 153.932 69.9837 154.345 70.3613 154.898C70.7389 155.445 70.9277 156.135 70.9277 156.969V161.393C70.9277 162.031 70.9635 162.532 71.0352 162.896C71.1133 163.255 71.224 163.567 71.3672 163.834V164H68.291C68.1478 163.694 68.0404 163.316 67.9688 162.867C67.8971 162.411 67.8613 161.949 67.8613 161.48ZM68.2422 157.555L68.2617 159.234H66.748C66.4095 159.234 66.1165 159.277 65.8691 159.361C65.6283 159.446 65.4329 159.563 65.2832 159.713C65.1335 159.856 65.0228 160.025 64.9512 160.221C64.8861 160.41 64.8535 160.618 64.8535 160.846C64.8535 161.061 64.9056 161.256 65.0098 161.432C65.1139 161.601 65.2572 161.734 65.4395 161.832C65.6217 161.93 65.8333 161.979 66.0742 161.979C66.4714 161.979 66.8099 161.9 67.0898 161.744C67.3763 161.588 67.5977 161.399 67.7539 161.178C67.9102 160.95 67.9883 160.738 67.9883 160.543L68.7207 161.812C68.6035 162.073 68.4603 162.343 68.291 162.623C68.1217 162.896 67.9069 163.154 67.6465 163.395C67.3861 163.629 67.0703 163.821 66.6992 163.971C66.3346 164.12 65.8952 164.195 65.3809 164.195C64.7168 164.195 64.1146 164.062 63.5742 163.795C63.0339 163.521 62.6009 163.147 62.2754 162.672C61.9564 162.197 61.7969 161.65 61.7969 161.031C61.7969 160.478 61.8978 159.986 62.0996 159.557C62.3014 159.127 62.6042 158.762 63.0078 158.463C63.418 158.163 63.9323 157.939 64.5508 157.789C65.1693 157.633 65.8919 157.555 66.7188 157.555H68.2422ZM75.957 162.779L78.7207 153.434H82.002L77.7539 165.582C77.6628 165.849 77.5391 166.135 77.3828 166.441C77.2331 166.747 77.028 167.04 76.7676 167.32C76.5137 167.6 76.1882 167.828 75.791 168.004C75.3939 168.18 74.9056 168.268 74.3262 168.268C74.0332 168.268 73.8053 168.251 73.6426 168.219C73.4863 168.193 73.278 168.147 73.0176 168.082L73.0078 165.865C73.0924 165.865 73.1673 165.865 73.2324 165.865C73.304 165.872 73.3757 165.875 73.4473 165.875C73.8118 165.875 74.1048 165.836 74.3262 165.758C74.554 165.68 74.7298 165.562 74.8535 165.406C74.9837 165.257 75.0879 165.064 75.166 164.83L75.957 162.779ZM75.0293 153.434L77.2168 160.953L77.5879 164.186L75.5273 164.293L71.748 153.434H75.0293ZM86.2891 153.434V164H83.2324V153.434H86.2891ZM99.1797 161.061C99.1797 160.865 99.1178 160.693 98.9941 160.543C98.877 160.393 98.6621 160.257 98.3496 160.133C98.0436 160.009 97.6107 159.885 97.0508 159.762C96.5234 159.651 96.0319 159.508 95.5762 159.332C95.1204 159.15 94.7233 158.932 94.3848 158.678C94.0462 158.417 93.7826 158.111 93.5938 157.76C93.4049 157.402 93.3105 156.995 93.3105 156.539C93.3105 156.096 93.4049 155.676 93.5938 155.279C93.7891 154.882 94.069 154.531 94.4336 154.225C94.8047 153.919 95.2539 153.678 95.7812 153.502C96.3151 153.326 96.9206 153.238 97.5977 153.238C98.5286 153.238 99.3327 153.385 100.01 153.678C100.687 153.964 101.208 154.368 101.572 154.889C101.937 155.403 102.119 155.992 102.119 156.656H99.0723C99.0723 156.383 99.0202 156.145 98.916 155.943C98.8118 155.742 98.6523 155.585 98.4375 155.475C98.2227 155.357 97.9395 155.299 97.5879 155.299C97.3145 155.299 97.0736 155.348 96.8652 155.445C96.6634 155.536 96.5039 155.663 96.3867 155.826C96.276 155.989 96.2207 156.178 96.2207 156.393C96.2207 156.542 96.2533 156.679 96.3184 156.803C96.39 156.92 96.4974 157.031 96.6406 157.135C96.7904 157.232 96.9824 157.32 97.2168 157.398C97.4577 157.477 97.7507 157.551 98.0957 157.623C98.8314 157.76 99.502 157.952 100.107 158.199C100.719 158.447 101.208 158.788 101.572 159.225C101.943 159.661 102.129 160.237 102.129 160.953C102.129 161.422 102.021 161.852 101.807 162.242C101.598 162.633 101.296 162.975 100.898 163.268C100.501 163.561 100.026 163.788 99.4727 163.951C98.9193 164.114 98.2943 164.195 97.5977 164.195C96.6016 164.195 95.7585 164.016 95.0684 163.658C94.3783 163.3 93.8574 162.851 93.5059 162.311C93.1608 161.764 92.9883 161.204 92.9883 160.631H95.8496C95.8626 160.982 95.9505 161.269 96.1133 161.49C96.2826 161.712 96.5007 161.874 96.7676 161.979C97.0345 162.076 97.334 162.125 97.666 162.125C97.998 162.125 98.2747 162.079 98.4961 161.988C98.7174 161.897 98.8867 161.773 99.0039 161.617C99.1211 161.454 99.1797 161.269 99.1797 161.061ZM107.041 153.434V164H103.984V153.434H107.041ZM103.799 150.699C103.799 150.257 103.955 149.895 104.268 149.615C104.58 149.329 104.99 149.186 105.498 149.186C106.006 149.186 106.416 149.329 106.729 149.615C107.048 149.895 107.207 150.257 107.207 150.699C107.207 151.135 107.048 151.497 106.729 151.783C106.416 152.063 106.006 152.203 105.498 152.203C104.99 152.203 104.58 152.063 104.268 151.783C103.955 151.497 103.799 151.135 103.799 150.699ZM117.783 161.627V164H109.678V161.627H117.783ZM117.656 155.133L110.986 164H108.916V162.242L115.566 153.434H117.656V155.133ZM116.611 153.434V155.807H109.092V153.434H116.611ZM122.705 153.434V164H119.648V153.434H122.705ZM119.463 150.699C119.463 150.257 119.619 149.895 119.932 149.615C120.244 149.329 120.654 149.186 121.162 149.186C121.67 149.186 122.08 149.329 122.393 149.615C122.712 149.895 122.871 150.257 122.871 150.699C122.871 151.135 122.712 151.497 122.393 151.783C122.08 152.063 121.67 152.203 121.162 152.203C120.654 152.203 120.244 152.063 119.932 151.783C119.619 151.497 119.463 151.135 119.463 150.699ZM127.891 155.689V164H124.834V153.434H127.705L127.891 155.689ZM127.49 158.346L126.729 158.365C126.729 157.571 126.826 156.858 127.021 156.227C127.217 155.595 127.493 155.058 127.852 154.615C128.216 154.166 128.649 153.824 129.15 153.59C129.658 153.355 130.218 153.238 130.83 153.238C131.325 153.238 131.777 153.31 132.188 153.453C132.598 153.596 132.949 153.827 133.242 154.146C133.542 154.459 133.77 154.876 133.926 155.396C134.082 155.911 134.16 156.546 134.16 157.301V164H131.094V157.291C131.094 156.848 131.032 156.507 130.908 156.266C130.785 156.025 130.602 155.855 130.361 155.758C130.127 155.66 129.84 155.611 129.502 155.611C129.144 155.611 128.838 155.683 128.584 155.826C128.33 155.963 128.122 156.155 127.959 156.402C127.796 156.65 127.676 156.939 127.598 157.271C127.526 157.604 127.49 157.962 127.49 158.346ZM144.346 153.434V164H141.289V153.434H144.346ZM141.104 150.699C141.104 150.257 141.26 149.895 141.572 149.615C141.885 149.329 142.295 149.186 142.803 149.186C143.311 149.186 143.721 149.329 144.033 149.615C144.352 149.895 144.512 150.257 144.512 150.699C144.512 151.135 144.352 151.497 144.033 151.783C143.721 152.063 143.311 152.203 142.803 152.203C142.295 152.203 141.885 152.063 141.572 151.783C141.26 151.497 141.104 151.135 141.104 150.699ZM150.957 161.822C151.283 161.822 151.566 161.76 151.807 161.637C152.048 161.513 152.233 161.34 152.363 161.119C152.5 160.891 152.568 160.618 152.568 160.299H155.439C155.439 161.067 155.241 161.744 154.844 162.33C154.453 162.916 153.926 163.375 153.262 163.707C152.598 164.033 151.849 164.195 151.016 164.195C150.195 164.195 149.479 164.062 148.867 163.795C148.255 163.521 147.744 163.141 147.334 162.652C146.924 162.164 146.615 161.598 146.406 160.953C146.204 160.302 146.104 159.599 146.104 158.844V158.59C146.104 157.841 146.204 157.141 146.406 156.49C146.615 155.839 146.924 155.27 147.334 154.781C147.744 154.293 148.252 153.915 148.857 153.648C149.469 153.375 150.186 153.238 151.006 153.238C151.872 153.238 152.637 153.404 153.301 153.736C153.971 154.068 154.495 154.547 154.873 155.172C155.251 155.79 155.439 156.536 155.439 157.408H152.568C152.568 157.07 152.507 156.767 152.383 156.5C152.266 156.227 152.083 156.012 151.836 155.855C151.595 155.693 151.296 155.611 150.938 155.611C150.566 155.611 150.26 155.693 150.02 155.855C149.785 156.012 149.606 156.23 149.482 156.51C149.359 156.79 149.274 157.109 149.229 157.467C149.183 157.818 149.16 158.193 149.16 158.59V158.844C149.16 159.247 149.183 159.632 149.229 159.996C149.274 160.354 149.359 160.67 149.482 160.943C149.613 161.217 149.795 161.432 150.029 161.588C150.264 161.744 150.573 161.822 150.957 161.822ZM149.883 163.941H152.197L152.08 164.518C152.451 164.583 152.79 164.739 153.096 164.986C153.402 165.24 153.555 165.647 153.555 166.207C153.555 166.565 153.477 166.887 153.32 167.174C153.171 167.467 152.946 167.717 152.646 167.926C152.354 168.134 151.986 168.294 151.543 168.404C151.107 168.515 150.596 168.57 150.01 168.57L149.941 166.881C150.137 166.881 150.306 166.852 150.449 166.793C150.599 166.741 150.716 166.656 150.801 166.539C150.892 166.428 150.938 166.279 150.938 166.09C150.938 165.914 150.892 165.777 150.801 165.68C150.71 165.582 150.563 165.507 150.361 165.455C150.16 165.403 149.899 165.367 149.58 165.348L149.883 163.941ZM160.166 153.434V164H157.109V153.434H160.166ZM156.924 150.699C156.924 150.257 157.08 149.895 157.393 149.615C157.705 149.329 158.115 149.186 158.623 149.186C159.131 149.186 159.541 149.329 159.854 149.615C160.173 149.895 160.332 150.257 160.332 150.699C160.332 151.135 160.173 151.497 159.854 151.783C159.541 152.063 159.131 152.203 158.623 152.203C158.115 152.203 157.705 152.063 157.393 151.783C157.08 151.497 156.924 151.135 156.924 150.699ZM165.352 155.689V164H162.295V153.434H165.166L165.352 155.689ZM164.951 158.346L164.189 158.365C164.189 157.571 164.287 156.858 164.482 156.227C164.678 155.595 164.954 155.058 165.312 154.615C165.677 154.166 166.11 153.824 166.611 153.59C167.119 153.355 167.679 153.238 168.291 153.238C168.786 153.238 169.238 153.31 169.648 153.453C170.059 153.596 170.41 153.827 170.703 154.146C171.003 154.459 171.23 154.876 171.387 155.396C171.543 155.911 171.621 156.546 171.621 157.301V164H168.555V157.291C168.555 156.848 168.493 156.507 168.369 156.266C168.245 156.025 168.063 155.855 167.822 155.758C167.588 155.66 167.301 155.611 166.963 155.611C166.605 155.611 166.299 155.683 166.045 155.826C165.791 155.963 165.583 156.155 165.42 156.402C165.257 156.65 165.137 156.939 165.059 157.271C164.987 157.604 164.951 157.962 164.951 158.346ZM184.189 161.48V156.949C184.189 156.63 184.141 156.357 184.043 156.129C183.945 155.901 183.792 155.722 183.584 155.592C183.376 155.462 183.105 155.396 182.773 155.396C182.493 155.396 182.249 155.445 182.041 155.543C181.839 155.641 181.683 155.781 181.572 155.963C181.468 156.145 181.416 156.37 181.416 156.637H178.369C178.369 156.161 178.477 155.719 178.691 155.309C178.906 154.898 179.212 154.537 179.609 154.225C180.013 153.912 180.495 153.671 181.055 153.502C181.615 153.326 182.243 153.238 182.939 153.238C183.766 153.238 184.502 153.378 185.146 153.658C185.798 153.932 186.312 154.345 186.689 154.898C187.067 155.445 187.256 156.135 187.256 156.969V161.393C187.256 162.031 187.292 162.532 187.363 162.896C187.441 163.255 187.552 163.567 187.695 163.834V164H184.619C184.476 163.694 184.368 163.316 184.297 162.867C184.225 162.411 184.189 161.949 184.189 161.48ZM184.57 157.555L184.59 159.234H183.076C182.738 159.234 182.445 159.277 182.197 159.361C181.956 159.446 181.761 159.563 181.611 159.713C181.462 159.856 181.351 160.025 181.279 160.221C181.214 160.41 181.182 160.618 181.182 160.846C181.182 161.061 181.234 161.256 181.338 161.432C181.442 161.601 181.585 161.734 181.768 161.832C181.95 161.93 182.161 161.979 182.402 161.979C182.799 161.979 183.138 161.9 183.418 161.744C183.704 161.588 183.926 161.399 184.082 161.178C184.238 160.95 184.316 160.738 184.316 160.543L185.049 161.812C184.932 162.073 184.788 162.343 184.619 162.623C184.45 162.896 184.235 163.154 183.975 163.395C183.714 163.629 183.398 163.821 183.027 163.971C182.663 164.12 182.223 164.195 181.709 164.195C181.045 164.195 180.443 164.062 179.902 163.795C179.362 163.521 178.929 163.147 178.604 162.672C178.285 162.197 178.125 161.65 178.125 161.031C178.125 160.478 178.226 159.986 178.428 159.557C178.63 159.127 178.932 158.762 179.336 158.463C179.746 158.163 180.26 157.939 180.879 157.789C181.497 157.633 182.22 157.555 183.047 157.555H184.57ZM192.285 162.779L195.049 153.434H198.33L194.082 165.582C193.991 165.849 193.867 166.135 193.711 166.441C193.561 166.747 193.356 167.04 193.096 167.32C192.842 167.6 192.516 167.828 192.119 168.004C191.722 168.18 191.234 168.268 190.654 168.268C190.361 168.268 190.133 168.251 189.971 168.219C189.814 168.193 189.606 168.147 189.346 168.082L189.336 165.865C189.421 165.865 189.495 165.865 189.561 165.865C189.632 165.872 189.704 165.875 189.775 165.875C190.14 165.875 190.433 165.836 190.654 165.758C190.882 165.68 191.058 165.562 191.182 165.406C191.312 165.257 191.416 165.064 191.494 164.83L192.285 162.779ZM191.357 153.434L193.545 160.953L193.916 164.186L191.855 164.293L188.076 153.434H191.357ZM202.617 153.434V164H199.561V153.434H202.617ZM207.959 155.895V164H204.912V153.434H207.773L207.959 155.895ZM211.113 153.355L211.064 156.197C210.934 156.178 210.765 156.161 210.557 156.148C210.348 156.129 210.169 156.119 210.02 156.119C209.629 156.119 209.29 156.168 209.004 156.266C208.724 156.357 208.49 156.493 208.301 156.676C208.118 156.858 207.982 157.086 207.891 157.359C207.799 157.626 207.754 157.936 207.754 158.287L207.178 158.004C207.178 157.307 207.246 156.669 207.383 156.09C207.52 155.51 207.718 155.009 207.979 154.586C208.239 154.156 208.558 153.824 208.936 153.59C209.313 153.355 209.743 153.238 210.225 153.238C210.381 153.238 210.54 153.248 210.703 153.268C210.866 153.287 211.003 153.316 211.113 153.355ZM218.32 161.637V149H221.387V164H218.633L218.32 161.637ZM211.738 158.844V158.639C211.738 157.838 211.826 157.109 212.002 156.451C212.184 155.787 212.448 155.217 212.793 154.742C213.145 154.26 213.577 153.889 214.092 153.629C214.606 153.368 215.195 153.238 215.859 153.238C216.471 153.238 217.005 153.375 217.461 153.648C217.917 153.915 218.304 154.293 218.623 154.781C218.949 155.263 219.212 155.833 219.414 156.49C219.616 157.141 219.769 157.848 219.873 158.609V158.961C219.775 159.69 219.622 160.37 219.414 161.002C219.212 161.633 218.949 162.19 218.623 162.672C218.304 163.147 217.913 163.521 217.451 163.795C216.995 164.062 216.458 164.195 215.84 164.195C215.176 164.195 214.587 164.062 214.072 163.795C213.564 163.528 213.138 163.154 212.793 162.672C212.448 162.19 212.184 161.624 212.002 160.973C211.826 160.322 211.738 159.612 211.738 158.844ZM214.785 158.639V158.844C214.785 159.26 214.814 159.648 214.873 160.006C214.938 160.364 215.042 160.68 215.186 160.953C215.329 161.227 215.518 161.441 215.752 161.598C215.986 161.747 216.273 161.822 216.611 161.822C217.067 161.822 217.441 161.718 217.734 161.51C218.027 161.295 218.249 160.999 218.398 160.621C218.548 160.243 218.626 159.804 218.633 159.303V158.277C218.633 157.861 218.59 157.486 218.506 157.154C218.421 156.822 218.294 156.542 218.125 156.314C217.962 156.087 217.757 155.914 217.51 155.797C217.262 155.673 216.969 155.611 216.631 155.611C216.299 155.611 216.016 155.689 215.781 155.846C215.547 155.995 215.355 156.207 215.205 156.48C215.062 156.754 214.954 157.076 214.883 157.447C214.818 157.812 214.785 158.209 214.785 158.639ZM226.719 153.434V164H223.662V153.434H226.719ZM232.07 148.99V164H229.014V148.99H232.07ZM238.779 153.434L234.18 158.746L231.748 161.188L230.527 159.127L232.5 156.578L235.107 153.434H238.779ZM235.557 164L232.578 159.146L234.766 157.438L239.053 164H235.557Z" fill="white"/>
</svg>
