<svg width="264" height="315" viewBox="0 0 264 315" fill="none" xmlns="http://www.w3.org/2000/svg">
<path d="M1.7 1.79999C0.1 3.5 0 15.8 0 157.7C0 305.6 0.1 311.8 1.8 313.3C3.5 314.9 14 315 132.2 315C255.4 315 260.8 314.9 262.3 313.2C263.9 311.5 264 299.2 264 157.3C264 9.39999 263.9 3.19998 262.2 1.69998C260.5 0.100006 250 0 131.8 0C8.6 0 3.2 0.100006 1.7 1.79999Z" fill="#2B92D3"/>
<g clip-path="url(#clip0_3_67)">
<path d="M105.976 180.403C105.984 180.611 105.943 180.819 105.858 181.012C105.773 181.205 105.645 181.381 105.481 181.526C105.316 181.672 105.12 181.786 104.905 181.861C104.69 181.936 104.461 181.971 104.231 181.964H102.057V173.321H104.231C104.461 173.314 104.691 173.349 104.905 173.425C105.12 173.5 105.316 173.614 105.481 173.76C105.644 173.906 105.772 174.082 105.857 174.275C105.942 174.469 105.982 174.676 105.974 174.884L105.976 180.403ZM105.131 180.326V174.951C105.137 174.824 105.114 174.698 105.063 174.579C105.013 174.461 104.936 174.353 104.838 174.263C104.736 174.175 104.617 174.107 104.486 174.061C104.355 174.016 104.216 173.995 104.076 174H102.905V181.286H104.029C104.321 181.298 104.606 181.206 104.824 181.03C104.928 180.94 105.01 180.83 105.063 180.709C105.116 180.587 105.139 180.457 105.131 180.326V180.326Z" fill="white"/>
<path d="M111.942 181.342C111.955 181.427 111.946 181.513 111.917 181.593C111.887 181.674 111.838 181.747 111.772 181.807C111.706 181.868 111.625 181.913 111.537 181.94C111.448 181.967 111.354 181.975 111.261 181.964H109.319C109.226 181.976 109.132 181.967 109.043 181.94C108.955 181.913 108.874 181.867 108.808 181.807C108.743 181.746 108.693 181.672 108.664 181.591C108.635 181.51 108.627 181.424 108.641 181.34V177.216C108.627 177.132 108.635 177.046 108.664 176.965C108.693 176.884 108.743 176.81 108.808 176.749C108.874 176.689 108.955 176.643 109.043 176.616C109.132 176.588 109.226 176.58 109.319 176.592H111.261C111.354 176.58 111.449 176.588 111.537 176.616C111.626 176.643 111.707 176.689 111.773 176.749C111.839 176.81 111.889 176.883 111.918 176.964C111.947 177.045 111.955 177.132 111.942 177.216V179.146L111.669 179.406H109.422V181.351H111.158V180.368H111.942V181.342ZM111.158 178.823V177.205H109.422V178.823H111.158Z" fill="white"/>
<path d="M117.952 181.964H117.144V177.247L115.366 177.29V181.964H114.558V176.589H115.367V176.739C115.682 176.702 116 176.663 116.32 176.622C116.638 176.583 116.958 176.561 117.278 176.555C117.369 176.543 117.462 176.55 117.549 176.575C117.636 176.601 117.716 176.645 117.781 176.704C117.847 176.762 117.896 176.834 117.926 176.913C117.956 176.992 117.965 177.076 117.952 177.159L117.952 181.964Z" fill="white"/>
<path d="M122.661 181.964H121.515C121.422 181.976 121.328 181.967 121.239 181.94C121.151 181.913 121.07 181.868 121.004 181.807C120.939 181.747 120.889 181.674 120.86 181.593C120.83 181.512 120.822 181.427 120.835 181.343V177.238H120.124V176.592H120.835V174.918H121.631V176.592H122.662V177.238H121.63V181.32H122.661V181.964Z" fill="white"/>
<path d="M128.312 181.964H127.517V181.815C127.197 181.856 126.877 181.894 126.557 181.931C126.242 181.97 125.924 181.992 125.605 181.998C125.515 182.01 125.424 182.003 125.338 181.978C125.252 181.952 125.173 181.909 125.109 181.851C125.045 181.793 124.996 181.722 124.967 181.644C124.938 181.566 124.93 181.483 124.942 181.401V179.442C124.929 179.357 124.938 179.271 124.968 179.191C124.998 179.11 125.048 179.036 125.115 178.976C125.181 178.916 125.262 178.871 125.351 178.844C125.44 178.818 125.535 178.81 125.627 178.823H127.528V177.205H125.795V178.121H125.01V177.217C124.997 177.132 125.005 177.046 125.034 176.965C125.064 176.884 125.113 176.81 125.179 176.75C125.246 176.689 125.326 176.643 125.415 176.616C125.504 176.589 125.598 176.581 125.691 176.592H127.633C127.726 176.581 127.821 176.589 127.909 176.616C127.998 176.643 128.079 176.689 128.144 176.75C128.21 176.81 128.26 176.884 128.289 176.965C128.318 177.046 128.326 177.132 128.312 177.217V181.964ZM127.531 181.295V179.398H125.726V181.332L127.531 181.295Z" fill="white"/>
<path d="M133.764 181.353C133.767 181.435 133.752 181.517 133.718 181.593C133.684 181.669 133.633 181.738 133.568 181.795C133.503 181.852 133.427 181.896 133.342 181.926C133.258 181.955 133.169 181.969 133.078 181.966H130.631C130.542 181.97 130.452 181.956 130.369 181.927C130.286 181.897 130.21 181.852 130.146 181.795C130.083 181.737 130.034 181.668 130.001 181.592C129.969 181.516 129.954 181.435 129.958 181.353V173.934C129.954 173.853 129.969 173.771 130.001 173.695C130.034 173.619 130.083 173.55 130.146 173.492C130.21 173.435 130.285 173.389 130.369 173.36C130.452 173.33 130.542 173.317 130.631 173.321H133.078C133.168 173.318 133.258 173.332 133.342 173.361C133.426 173.391 133.503 173.435 133.568 173.492C133.633 173.549 133.684 173.618 133.718 173.694C133.752 173.77 133.767 173.852 133.764 173.934V175.944H132.914V174.002H130.801V181.286H132.914V179.16H133.764V181.353Z" fill="white"/>
<path d="M139.725 181.342C139.738 181.427 139.73 181.513 139.7 181.593C139.671 181.674 139.621 181.747 139.555 181.807C139.489 181.868 139.409 181.913 139.32 181.94C139.231 181.967 139.137 181.975 139.045 181.964H137.103C137.01 181.975 136.915 181.967 136.827 181.94C136.738 181.913 136.658 181.867 136.592 181.807C136.526 181.746 136.476 181.672 136.447 181.591C136.418 181.51 136.41 181.424 136.424 181.34V177.216C136.41 177.132 136.418 177.046 136.447 176.965C136.476 176.884 136.526 176.81 136.592 176.749C136.658 176.689 136.738 176.643 136.827 176.616C136.915 176.588 137.01 176.58 137.103 176.592H139.045C139.138 176.58 139.232 176.588 139.321 176.616C139.41 176.643 139.49 176.689 139.556 176.749C139.622 176.81 139.672 176.883 139.701 176.964C139.731 177.045 139.739 177.132 139.725 177.216V179.146L139.452 179.406H137.205V181.351H138.942V180.368H139.725V181.342ZM138.942 178.823V177.205H137.205V178.823H138.942Z" fill="white"/>
<path d="M145.735 181.964H144.929V177.247L143.149 177.29V181.964H142.344V176.589H143.149V176.739C143.464 176.702 143.784 176.663 144.104 176.622C144.422 176.583 144.742 176.562 145.062 176.558C145.153 176.545 145.245 176.552 145.333 176.578C145.42 176.603 145.5 176.647 145.565 176.706C145.631 176.764 145.68 176.836 145.71 176.915C145.74 176.994 145.749 177.078 145.737 177.161L145.735 181.964Z" fill="white"/>
<path d="M150.444 181.964H149.297C149.205 181.976 149.11 181.968 149.021 181.94C148.933 181.913 148.852 181.867 148.786 181.807C148.72 181.746 148.671 181.673 148.641 181.592C148.612 181.511 148.604 181.424 148.618 181.34V177.238H147.907V176.592H148.618V174.918H149.413V176.592H150.444V177.238H149.413V181.32H150.444V181.964Z" fill="white"/>
<path d="M156.06 181.343C156.074 181.427 156.065 181.513 156.036 181.594C156.007 181.675 155.957 181.749 155.891 181.809C155.825 181.87 155.744 181.915 155.655 181.943C155.566 181.97 155.472 181.978 155.379 181.966H153.437C153.345 181.978 153.25 181.97 153.161 181.943C153.072 181.915 152.992 181.87 152.926 181.809C152.86 181.749 152.81 181.675 152.78 181.594C152.751 181.513 152.743 181.427 152.756 181.343V177.216C152.743 177.132 152.751 177.045 152.78 176.964C152.81 176.883 152.859 176.809 152.925 176.749C152.991 176.688 153.072 176.643 153.161 176.615C153.25 176.588 153.345 176.58 153.437 176.592H155.379C155.472 176.58 155.566 176.588 155.655 176.615C155.744 176.643 155.825 176.688 155.891 176.749C155.957 176.809 156.007 176.883 156.036 176.964C156.066 177.045 156.074 177.132 156.06 177.216V179.146L155.787 179.406H153.54V181.351H155.276V180.368H156.06V181.343ZM155.276 178.823V177.205H153.54V178.823H155.276Z" fill="white"/>
<path d="M161.765 178.359H160.97V177.249L159.486 177.293V181.964H158.677V176.589H159.485V176.739C159.75 176.702 160.019 176.663 160.291 176.622C160.558 176.582 160.827 176.56 161.098 176.555C161.188 176.543 161.28 176.551 161.367 176.577C161.454 176.603 161.533 176.647 161.597 176.705C161.662 176.764 161.711 176.835 161.74 176.914C161.769 176.993 161.778 177.076 161.765 177.159V178.359Z" fill="white"/>
<path d="M126.736 163.626C128.452 163.566 129.321 163.07 129.321 162.118V160.767C127.941 159.75 126.815 158.475 126.019 157.03C125.224 155.585 124.777 154.001 124.707 152.386C124.52 149 125.503 146.254 127.619 144.225C128.137 143.743 128.707 143.311 129.321 142.934V142.454C129.321 141.473 128.447 140.958 126.726 140.898C126.614 140.894 126.51 140.886 126.389 140.886H122.937C120.52 143.352 118.727 146.89 118.727 151.989C118.727 157.307 120.636 161.031 123.16 163.631H126.39C126.513 163.635 126.62 163.626 126.736 163.626Z" fill="white"/>
<path d="M162 138.804V133H138.56C136.76 133.157 134.987 133.507 133.278 134.043C136.017 134.832 137.492 136.511 137.653 139.114C138.761 138.916 139.886 138.812 141.015 138.803L162 138.804Z" fill="white"/>
<path d="M133.034 170.557C134.689 171.17 136.417 171.603 138.184 171.847H162V165.858H139.458C138.85 165.725 138.249 165.562 137.661 165.369V165.375C137.523 168.083 135.966 169.8 133.034 170.557Z" fill="white"/>
<path d="M137.135 139.752C137.135 139.741 137.131 139.732 137.131 139.721C136.969 137.117 135.494 135.439 132.756 134.65C132.684 134.629 132.603 134.614 132.528 134.594C129.215 135.755 126.192 137.509 123.638 139.752H127.743C127.875 139.752 127.99 139.761 128.112 139.765C130.006 139.832 130.963 140.398 130.963 141.477V163.103C130.963 164.146 130.006 164.693 128.119 164.758C127.992 164.762 127.873 164.771 127.74 164.771H124.187C126.477 167.068 129.328 168.842 132.51 169.952C135.444 169.195 136.998 167.478 137.137 164.771V164.765C137.144 164.633 137.156 164.505 137.156 164.368V140.212C137.157 140.054 137.144 139.904 137.135 139.752Z" fill="white"/>
<path d="M122.642 139.752C125.059 137.37 128.074 135.557 131.43 134.468C130.279 134.224 129.099 134.106 127.917 134.116H102V170.407H108.194V139.752H122.644H122.642Z" fill="white"/>
<path d="M123.202 164.773H111.224V170.409H127.657C128.975 170.448 130.294 170.345 131.585 170.1C128.345 168.991 125.462 167.159 123.202 164.773Z" fill="white"/>
</g>
<defs>
<clipPath id="clip0_3_67">
<rect width="60" height="49" fill="white" transform="translate(102 133)"/>
</clipPath>
</defs>
</svg>
