<svg width="264" height="315" viewBox="0 0 264 315" fill="none" xmlns="http://www.w3.org/2000/svg">
<path d="M1.7 1.79999C0.1 3.5 0 15.8 0 157.7C0 305.6 0.1 311.8 1.8 313.3C3.5 314.9 14 315 132.2 315C255.4 315 260.8 314.9 262.3 313.2C263.9 311.5 264 299.2 264 157.3C264 9.39999 263.9 3.19998 262.2 1.69998C260.5 0.100006 250 0 131.8 0C8.6 0 3.2 0.100006 1.7 1.79999Z" fill="#634E42"/>
<path d="M84.0004 174.929V174.887C83.9937 173.876 84.1612 172.874 84.4929 171.939C84.8246 171.005 85.3139 170.158 85.9317 169.448C86.5495 168.738 87.2833 168.18 88.0897 167.806C88.896 167.432 89.7585 167.251 90.6261 167.273C92.901 167.273 94.273 167.988 95.5923 169.292L93.8412 171.753C92.952 170.767 91.7645 170.23 90.5372 170.259C88.5149 170.259 86.9097 172.342 86.9097 174.845V174.887C86.9097 177.579 88.4984 179.557 90.7371 179.557C91.6678 179.59 92.5838 179.281 93.3553 178.673V176.57H90.5536V173.773H96.0418V180.165C94.5436 181.678 92.6261 182.507 90.6438 182.5C86.7081 182.5 84 179.28 84 174.928" fill="white"/>
<path d="M99.0582 174.929V174.887C99.0582 170.701 101.893 167.273 105.792 167.273C109.692 167.273 112.491 170.659 112.491 174.845V174.887C112.491 179.073 109.656 182.501 105.756 182.501C101.856 182.501 99.0582 179.115 99.0582 174.929ZM109.584 174.929V174.887C109.602 174.288 109.516 173.69 109.332 173.131C109.147 172.571 108.869 172.06 108.511 171.628C108.154 171.196 107.726 170.852 107.253 170.617C106.78 170.382 106.271 170.26 105.756 170.258C103.517 170.258 101.965 172.321 101.965 174.844V174.886C101.947 175.485 102.033 176.082 102.217 176.642C102.401 177.202 102.68 177.713 103.037 178.145C103.394 178.577 103.822 178.921 104.295 179.156C104.769 179.391 105.278 179.513 105.792 179.515C108.031 179.515 109.584 177.452 109.584 174.929Z" fill="white"/>
<path d="M115.867 167.525H118.647V179.305H124.95V182.25H115.869L115.867 167.525Z" fill="white"/>
<path d="M127.946 167.525H132.875C136.847 167.525 139.59 170.701 139.59 174.845V174.887C139.59 179.031 136.846 182.25 132.875 182.25H127.946V167.525ZM130.726 170.449V179.326H132.875C135.149 179.326 136.684 177.537 136.684 174.929V174.887C136.71 174.296 136.629 173.705 136.447 173.153C136.265 172.601 135.985 172.1 135.626 171.681C135.267 171.263 134.837 170.937 134.363 170.725C133.889 170.512 133.382 170.418 132.875 170.449H130.726Z" fill="white"/>
<path d="M142.966 167.525H152.499V170.407H145.729V173.394H151.689V176.275H145.729V179.367H152.59V182.249H142.966V167.525Z" fill="white"/>
<path d="M155.967 167.525H158.747V173.962L163.875 167.525H167.234L162.087 173.774L167.467 182.251H164.127L160.21 175.982L158.747 177.75V182.251H155.967L155.967 167.525Z" fill="white"/>
<path d="M169.003 180.106L170.643 177.814C171.781 178.907 172.972 179.602 174.416 179.602C175.554 179.602 176.24 179.076 176.24 178.213V178.171C176.24 177.351 175.808 176.93 173.692 176.299C171.147 175.542 169.503 174.721 169.503 171.798V171.756C169.503 169.084 171.345 167.317 173.927 167.317C175.631 167.285 177.291 167.947 178.621 169.19L177.177 171.63C176.057 170.724 174.956 170.178 173.891 170.178C172.826 170.178 172.266 170.746 172.266 171.461V171.503C172.266 172.471 172.807 172.786 174.992 173.438C177.555 174.217 179 175.29 179 177.856V177.898C179 180.822 177.087 182.463 174.36 182.463C172.387 182.47 170.48 181.631 169.003 180.106" fill="white"/>
<path d="M100.984 189.121H99.7595V188.84H102.469V189.121H101.245V192.933H100.985L100.984 189.121Z" fill="white"/>
<path d="M104.264 188.841H106.763V189.121H104.525V190.731H106.537V191.012H104.525V192.654H106.788V192.935H104.264V188.841Z" fill="white"/>
<path d="M108.629 188.841H108.888V191.531L111.126 188.841H111.483L109.947 190.648L111.548 192.934H111.207L109.761 190.864L108.888 191.893V192.933H108.629V188.841Z" fill="white"/>
<path d="M112.943 192.337L113.114 192.109C113.277 192.306 113.473 192.461 113.689 192.566C113.906 192.67 114.139 192.722 114.373 192.717C114.9 192.717 115.262 192.372 115.262 191.904V191.892C115.262 191.459 115.066 191.208 114.268 191.021C113.425 190.822 113.084 190.489 113.084 189.869V189.858C113.096 189.7 113.134 189.547 113.198 189.406C113.261 189.266 113.348 189.142 113.453 189.042C113.559 188.942 113.68 188.867 113.811 188.822C113.941 188.778 114.078 188.764 114.213 188.782C114.654 188.765 115.084 188.943 115.417 189.279L115.252 189.519C114.966 189.214 114.591 189.049 114.203 189.057C113.685 189.057 113.345 189.402 113.345 189.829V189.84C113.345 190.273 113.536 190.536 114.369 190.734C115.182 190.928 115.523 191.267 115.523 191.863V191.874C115.523 192.535 115.036 192.99 114.357 192.99C113.83 192.998 113.321 192.763 112.942 192.336" fill="white"/>
<path d="M118.281 189.121H117.057V188.84H119.767V189.121H118.542V192.933H118.283L118.281 189.121Z" fill="white"/>
<path d="M121.537 188.016H121.918V188.461H121.537V188.016ZM121.597 188.841H121.856V192.933H121.597V188.841Z" fill="white"/>
<path d="M123.941 188.841H124.2V192.653H126.263V192.934H123.939L123.941 188.841Z" fill="white"/>
<path d="M130.502 191.232V188.841H130.761V191.202C130.761 192.167 131.207 192.722 131.95 192.722C132.662 192.722 133.119 192.219 133.119 191.232V188.841H133.378V191.197C133.378 192.372 132.791 192.997 131.938 192.997C131.739 193.011 131.541 192.973 131.356 192.888C131.171 192.802 131.004 192.671 130.867 192.503C130.73 192.335 130.626 192.134 130.562 191.915C130.498 191.695 130.476 191.462 130.498 191.232H130.502ZM131.316 188.046H131.687V188.49H131.316V188.046ZM132.199 188.046H132.565V188.49H132.199V188.046Z" fill="white"/>
<path d="M135.373 188.841H136.848C137.21 188.819 137.565 188.964 137.837 189.244C138.008 189.446 138.104 189.719 138.103 190.003V190.015C138.103 190.699 137.666 191.091 137.074 191.184L138.234 192.933H137.902L136.784 191.237H135.634V192.933H135.375L135.373 188.841ZM136.818 190.963C137.405 190.963 137.842 190.618 137.842 190.028V190.016C137.842 189.467 137.47 189.122 136.833 189.122H135.634V190.964L136.818 190.963Z" fill="white"/>
<path d="M139.948 191.232V188.841H140.207V191.202C140.207 192.167 140.654 192.722 141.396 192.722C142.109 192.722 142.565 192.219 142.565 191.232V188.841H142.825V191.197C142.825 192.372 142.238 192.997 141.385 192.997C141.186 193.011 140.987 192.973 140.802 192.888C140.617 192.802 140.451 192.671 140.314 192.503C140.177 192.335 140.073 192.134 140.009 191.915C139.945 191.695 139.923 191.462 139.945 191.232H139.948ZM140.762 188.046H141.133V188.49H140.762V188.046ZM141.645 188.046H142.012V188.49H141.645V188.046Z" fill="white"/>
<path d="M144.819 188.841H145.065L147.489 192.401V188.841H147.74V192.934H147.544L145.07 189.297V192.934H144.819V188.841Z" fill="white"/>
<path d="M149.786 188.841H150.045V192.653H152.108V192.934H149.784L149.786 188.841Z" fill="white"/>
<path d="M153.893 188.841H156.392V189.121H154.155V190.731H156.167V191.012H154.155V192.654H156.417V192.935H153.893V188.841Z" fill="white"/>
<path d="M158.259 188.841H159.734C160.096 188.819 160.451 188.963 160.723 189.244C160.894 189.446 160.989 189.719 160.988 190.003V190.015C160.988 190.699 160.552 191.091 159.96 191.184L161.119 192.933H160.788L159.669 191.237H158.52V192.933H158.261L158.259 188.841ZM159.704 190.963C160.291 190.963 160.728 190.618 160.728 190.028V190.016C160.728 189.467 160.356 189.122 159.719 189.122H158.52V190.964L159.704 190.963Z" fill="white"/>
<path d="M162.864 188.016H163.246V188.461H162.864V188.016ZM162.924 188.841H163.184V192.933H162.924V188.841Z" fill="white"/>
<path d="M125.096 135.373V145.183H138.327V150.644H120.32V129.526H140.168V127.519H118.563V152.927H140.168V143.364H126.935V137.288H144.697V158.542H113.496V122H144.697V135.373H125.096Z" fill="white"/>
</svg>
