<svg width="264" height="315" viewBox="0 0 264 315" fill="none" xmlns="http://www.w3.org/2000/svg">
<path d="M1.7 1.8C0.1 3.5 0 15.8 0 157.7C0 305.6 0.1 311.8 1.8 313.3C3.5 314.9 14 315 132.2 315C255.4 315 260.8 314.9 262.3 313.2C263.9 311.5 264 299.2 264 157.3C264 9.4 263.9 3.2 262.2 1.7C260.5 0.0999953 250 -4.69387e-06 131.8 -4.69387e-06C8.6 -4.69387e-06 3.2 0.0999953 1.7 1.8Z" fill="#DF0917"/>
<path d="M47.3125 139.054C47.8723 138.604 48.5387 138.669 49.1518 138.54C55.7092 137.353 62.2665 136.231 68.9039 136.038C72.2626 135.942 75.6212 135.942 78.8999 137.097C79.3531 137.257 79.7796 137.45 80.2061 137.706C82.3652 138.989 82.9516 141.01 81.9387 143.641C80.6859 146.784 78.6867 149.19 76.5275 151.403C71.8361 156.247 66.7448 160.385 61.4669 164.234C61.3069 164.331 61.1736 164.459 61.0137 164.523C60.9337 164.555 60.8538 164.523 60.6405 164.523C62.6397 162.342 64.559 160.257 66.265 157.883C67.8377 155.702 69.3037 153.424 70.0768 150.634C71.063 147.201 70.21 144.411 67.6244 142.518C65.7052 141.107 63.546 140.497 61.3336 140.016C57.4418 139.182 53.4967 139.086 49.5516 139.182C48.8052 138.989 48.0322 139.406 47.3125 139.054Z" fill="white"/>
<path d="M48.885 157.658C47.952 159.198 46.9391 160.642 46.2194 162.342C45.8462 163.208 45.4997 164.106 45.2864 165.068C44.5401 168.212 45.3398 170.778 47.6322 172.51C50.1112 174.403 52.9367 175.044 55.7623 175.526C60.0006 176.231 64.2655 176.199 68.5305 175.943C68.8237 175.911 69.1169 175.943 69.4368 176.135C68.5305 176.328 67.6242 176.52 66.7179 176.713C59.0943 178.124 51.4706 179.407 43.7137 179.311C41.3413 179.279 38.969 179.086 36.6765 178.284C32.8914 176.969 32.0117 174.178 34.1176 170.169C35.6903 167.153 37.9294 164.844 40.1685 162.598C43.6871 159.07 47.4456 155.894 51.364 152.975C51.6039 153.232 52.0038 153.007 52.1904 153.424C52.1904 153.488 52.1637 153.553 52.137 153.585C51.6306 153.617 51.364 153.938 51.3374 154.547C51.1241 154.804 50.9375 155.028 50.7243 155.285C50.3511 155.253 50.2445 155.477 50.2445 155.894L50.2178 155.926C50.1645 155.99 50.1112 156.055 50.0579 156.119L50.0312 156.151C49.3915 156.311 48.9383 156.76 48.885 157.658Z" fill="white"/>
<path d="M179.58 164.812C179.553 165.806 179.02 166.223 178.3 166.319C177.527 166.416 177.021 165.934 176.807 165.036C176.514 163.753 176.488 162.406 176.354 161.059C176.168 159.423 176.034 157.819 175.821 155.926C175.421 156.504 175.395 156.921 175.315 157.338C174.835 159.711 174.435 162.149 173.795 164.491C173.369 166.063 173.022 166.416 172.009 166.351C170.996 166.287 170.57 165.774 170.25 164.266C169.717 161.636 169.21 159.006 168.677 156.407C168.624 156.151 168.544 155.894 168.357 155.638C168.064 158.268 167.771 160.93 167.478 163.561C167.398 164.202 167.345 164.812 167.105 165.389C166.811 166.159 166.252 166.448 165.585 166.319C164.892 166.191 164.492 165.678 164.412 164.844C164.359 164.427 164.386 164.01 164.439 163.593C164.972 159.872 165.505 156.183 166.065 152.494C166.332 150.73 167.131 150.056 168.437 150.249C169.504 150.409 169.983 151.275 170.223 152.398C170.756 154.9 171.29 157.434 171.823 159.936C171.903 160.289 171.983 160.642 172.249 161.027C172.569 159.423 172.916 157.819 173.236 156.183C173.529 154.739 173.769 153.296 174.115 151.885C174.382 150.762 175.155 150.184 176.114 150.217C177.074 150.249 177.767 150.762 177.954 151.949C178.62 155.99 179.18 160.032 179.58 164.106C179.58 164.331 179.58 164.555 179.58 164.812Z" fill="white"/>
<path d="M148.685 157.017C148.685 159.102 148.685 161.219 148.685 163.304C148.685 163.914 148.685 164.491 148.525 165.068C148.312 165.87 147.859 166.255 147.166 166.287C146.419 166.287 145.94 165.87 145.753 165.004C145.646 164.523 145.62 164.042 145.62 163.529C145.62 159.936 145.62 156.343 145.62 152.783C145.62 152.398 145.646 152.013 145.7 151.628C145.939 150.217 147.059 149.671 148.019 150.569C148.365 150.89 148.658 151.307 148.925 151.724C150.391 154.034 151.857 156.375 153.297 158.717C153.457 158.974 153.563 159.327 153.883 159.487C154.123 159.23 154.016 158.91 154.016 158.621C154.016 156.696 154.016 154.739 154.043 152.815C154.043 152.334 154.096 151.82 154.203 151.371C154.389 150.569 154.896 150.184 155.589 150.217C156.255 150.217 156.709 150.634 156.895 151.371C157.002 151.82 157.055 152.334 157.055 152.815C157.055 156.536 157.055 160.257 157.055 164.01C157.055 164.94 157.082 165.934 156.175 166.319C155.269 166.704 154.576 166.127 154.07 165.293C152.524 162.823 150.977 160.353 149.458 157.851C149.272 157.53 149.058 157.241 148.872 156.953C148.792 156.985 148.738 157.017 148.685 157.017Z" fill="white"/>
<path d="M217.591 159.679C217.591 157.434 217.591 155.349 217.591 153.232C217.591 152.815 217.591 152.398 217.618 151.981C217.725 150.826 218.284 150.184 219.137 150.217C219.964 150.249 220.47 150.858 220.577 151.981C220.603 152.269 220.603 152.526 220.603 152.815C220.603 156.568 220.603 160.353 220.603 164.106C220.603 164.972 220.63 165.934 219.75 166.319C218.844 166.704 218.151 166.191 217.618 165.357C216.045 162.887 214.473 160.385 212.9 157.883C212.74 157.626 212.607 157.274 212.313 157.145C212.047 157.37 212.154 157.723 212.154 158.011C212.154 159.904 212.154 161.796 212.154 163.721C212.154 164.299 212.127 164.844 211.94 165.389C211.7 166.063 211.274 166.351 210.714 166.384C210.101 166.416 209.648 166.095 209.381 165.421C209.168 164.876 209.168 164.266 209.168 163.657C209.168 160.064 209.168 156.472 209.168 152.911C209.168 151.885 209.141 150.762 210.154 150.377C211.167 149.992 211.78 150.858 212.313 151.724C213.806 154.098 215.299 156.504 216.818 158.877C217.058 159.07 217.191 159.423 217.591 159.679Z" fill="white"/>
<path d="M195.52 156.504C196.719 154.868 197.759 153.456 198.825 152.045C199.118 151.66 199.412 151.243 199.731 150.89C200.398 150.12 201.118 150.088 201.677 150.698C202.21 151.275 202.317 152.269 201.784 153.103C201.277 153.873 200.664 154.547 200.131 155.285C199.545 156.087 198.425 156.76 198.452 157.691C198.479 158.525 199.491 159.294 200.078 160.064C200.771 160.995 201.491 161.957 202.184 162.887C202.53 163.336 202.797 163.849 202.877 164.459C202.983 165.197 202.664 165.742 202.13 166.095C201.544 166.48 200.958 166.351 200.531 165.806C199.625 164.683 198.745 163.497 197.865 162.31C197.146 161.347 196.426 160.385 195.52 159.198C195.52 160.77 195.52 162.021 195.52 163.304C195.52 163.914 195.52 164.491 195.386 165.068C195.147 165.934 194.667 166.287 193.947 166.287C193.227 166.287 192.774 165.806 192.614 165.036C192.508 164.523 192.481 163.978 192.481 163.465C192.481 159.968 192.481 156.504 192.481 153.007C192.481 152.558 192.508 152.077 192.588 151.66C192.721 150.762 193.174 150.217 193.974 150.184C194.747 150.152 195.253 150.601 195.44 151.532C195.68 152.783 195.52 154.066 195.573 155.317C195.546 155.606 195.52 155.894 195.52 156.504Z" fill="white"/>
<path d="M179.979 163.625C181.126 159.968 182.245 156.343 183.391 152.686C183.498 152.334 183.631 151.949 183.791 151.628C184.244 150.698 184.911 150.12 185.87 150.184C186.83 150.249 187.496 150.858 187.816 151.885C189.016 155.894 190.189 159.904 191.308 163.914C191.655 165.133 191.255 165.967 190.402 166.287C189.522 166.608 188.829 166.095 188.429 164.908C187.87 163.208 187.87 163.208 186.324 163.208C185.977 163.208 185.604 163.24 185.284 163.208C183.951 162.983 182.912 163.208 182.645 165.165C182.538 165.902 181.979 166.416 181.259 166.384C180.539 166.319 180.059 165.87 179.899 165.004L179.979 163.625ZM185.764 154.483C185.71 154.483 185.657 154.483 185.604 154.515C185.177 156.087 184.724 157.658 184.271 159.23C184.191 159.551 184.164 159.776 184.511 159.744C185.337 159.744 186.19 159.744 187.123 159.744C186.643 157.883 186.19 156.183 185.764 154.483Z" fill="white"/>
<path d="M133.065 164.491C133.065 164.106 133.118 163.721 133.225 163.368C134.344 159.711 135.49 156.055 136.61 152.43C136.663 152.269 136.717 152.109 136.797 151.949C137.276 150.89 137.916 150.152 138.982 150.217C140.049 150.281 140.688 151.018 141.035 152.173C141.995 155.349 142.901 158.525 143.834 161.7C144.074 162.502 144.314 163.272 144.474 164.106C144.687 165.229 144.34 165.999 143.567 166.287C142.768 166.608 141.835 166.191 141.701 165.133C141.435 163.08 140.342 163.048 139.062 163.208C138.822 163.24 138.583 163.24 138.369 163.208C137.09 163.048 136.05 163.144 135.81 165.133C135.704 165.999 135.037 166.544 134.211 166.351C133.438 166.191 133.038 165.517 133.065 164.491ZM138.929 154.547C138.876 154.547 138.796 154.515 138.742 154.515C138.263 156.215 137.783 157.947 137.276 159.744C138.183 159.744 139.009 159.744 139.835 159.744C140.129 159.744 140.262 159.615 140.155 159.23C139.729 157.658 139.329 156.087 138.929 154.547Z" fill="white"/>
<path d="M111.527 164.459C111.527 163.978 111.687 163.529 111.82 163.08C112.886 159.551 113.979 156.055 115.045 152.526C115.099 152.398 115.125 152.269 115.179 152.141C115.685 150.762 116.378 150.152 117.418 150.184C118.537 150.217 119.177 151.051 119.524 152.237C120.217 154.483 120.856 156.728 121.496 158.974C121.976 160.642 122.482 162.278 122.909 163.946C123.202 165.1 122.882 165.902 122.083 166.255C121.23 166.64 120.27 166.191 120.11 165.036C119.843 163.176 118.911 163.048 117.684 163.176C116.965 163.272 116.218 163.24 115.499 163.176C114.992 163.144 114.779 163.4 114.646 163.946C114.539 164.459 114.379 164.94 114.192 165.421C113.846 166.191 113.313 166.544 112.593 166.319C111.847 166.063 111.5 165.421 111.527 164.459ZM118.724 159.744C118.244 157.915 117.818 156.183 117.391 154.483C116.778 156.055 116.352 157.562 115.925 159.102C115.792 159.519 115.845 159.744 116.298 159.744C117.018 159.711 117.764 159.744 118.724 159.744Z" fill="white"/>
<path d="M127.6 166.544C126.481 166.544 125.388 166.319 124.402 165.614C123.522 165.004 123.229 164.234 123.495 163.368C123.735 162.566 124.482 162.181 125.414 162.438C126.161 162.63 126.881 162.951 127.627 163.08C128.64 163.24 129.28 162.823 129.466 161.957C129.653 161.091 129.306 160.353 128.347 159.904C127.627 159.551 126.854 159.262 126.134 158.942C124.615 158.236 123.575 157.113 123.602 154.996C123.602 152.975 124.535 151.275 126.161 150.505C127.76 149.767 129.36 149.767 130.906 150.698C131.759 151.211 132.078 152.077 131.839 152.943C131.599 153.745 130.959 154.034 129.999 153.809C129.466 153.681 128.933 153.456 128.373 153.392C127.787 153.328 127.147 153.456 126.934 154.29C126.694 155.189 127.254 155.573 127.787 155.862C128.453 156.215 129.173 156.44 129.839 156.76C132.052 157.851 133.011 159.615 132.718 161.989C132.398 164.491 130.906 166.159 128.667 166.48C128.293 166.512 127.947 166.512 127.6 166.544Z" fill="white"/>
<path d="M222.869 158.364C222.869 156.536 222.843 154.707 222.869 152.879C222.896 151.018 223.402 150.409 224.922 150.377C226.068 150.345 227.188 150.345 228.334 150.377C228.707 150.377 229.08 150.473 229.453 150.601C230.093 150.826 230.44 151.307 230.413 152.141C230.386 152.975 229.986 153.424 229.373 153.617C228.52 153.873 227.614 153.777 226.761 153.713C226.068 153.681 225.775 153.938 225.881 154.772C225.908 154.996 225.908 155.253 225.881 155.509C225.801 156.247 226.068 156.472 226.654 156.44C227.374 156.407 228.121 156.44 228.84 156.536C229.533 156.632 230.04 157.081 230.066 158.043C230.093 159.038 229.64 159.487 228.894 159.711C228.121 159.936 227.321 159.872 226.548 159.84C226.095 159.84 225.881 159.968 225.855 160.578C225.801 162.695 225.775 162.695 227.507 162.695C228.121 162.695 228.734 162.663 229.347 162.823C230.093 162.983 230.493 163.529 230.493 164.395C230.493 165.229 230.093 165.838 229.4 165.934C227.561 166.191 225.721 166.159 223.909 165.934C223.029 165.838 222.869 164.908 222.869 164.01C222.843 162.181 222.869 160.289 222.869 158.364Z" fill="white"/>
<path d="M106.489 160.161C107.182 157.819 107.848 155.477 108.541 153.136C108.728 152.526 108.888 151.949 109.101 151.371C109.474 150.409 110.087 150.088 110.887 150.345C111.713 150.634 111.953 151.339 111.846 152.302C111.793 152.719 111.713 153.136 111.58 153.521C110.38 157.209 109.181 160.898 107.955 164.587C107.875 164.844 107.768 165.1 107.661 165.357C107.395 166.031 106.968 166.448 106.302 166.448C105.636 166.448 105.209 166.031 104.969 165.325C104.463 163.849 104.009 162.406 103.503 160.93C102.677 158.46 101.85 155.99 101.024 153.521C100.837 153.007 100.704 152.462 100.757 151.885C100.837 150.986 101.291 150.537 101.984 150.313C102.65 150.12 103.156 150.409 103.423 151.147C103.956 152.686 104.463 154.29 104.942 155.862C105.396 157.306 105.822 158.749 106.275 160.193C106.355 160.161 106.409 160.161 106.489 160.161Z" fill="white"/>
<path d="M88.3096 158.268C88.3096 156.311 88.3096 154.322 88.3096 152.366C88.3096 151.532 88.4429 150.73 89.1892 150.345C90.3088 149.735 91.295 150.666 91.295 152.398C91.3217 155.413 91.3484 158.46 91.2684 161.476C91.2417 162.47 91.4283 162.855 92.308 162.759C93.081 162.663 93.8807 162.663 94.6804 162.855C95.4001 163.015 95.8532 163.465 95.8799 164.395C95.9065 165.389 95.4267 165.934 94.6804 166.031C92.9211 166.223 91.1884 166.223 89.4291 166.031C88.5761 165.934 88.3096 165.165 88.3096 164.202C88.3096 162.213 88.3096 160.257 88.3096 158.268Z" fill="white"/>
<path d="M203.81 158.204C203.81 156.407 203.81 154.611 203.81 152.815C203.81 152.366 203.836 151.917 203.943 151.468C204.183 150.569 204.663 150.12 205.436 150.184C206.182 150.249 206.689 150.762 206.742 151.596C206.955 156.023 206.955 160.449 206.742 164.876C206.689 165.806 206.156 166.287 205.356 166.287C204.583 166.287 204.103 165.838 203.916 164.908C203.756 164.138 203.81 163.368 203.81 162.598C203.81 161.155 203.81 159.679 203.81 158.204Z" fill="white"/>
<path d="M96.7859 158.268C96.7859 156.375 96.7859 154.483 96.7859 152.59C96.7859 152.077 96.8392 151.596 96.9992 151.147C97.2391 150.505 97.6922 150.217 98.2787 150.217C98.8384 150.217 99.2916 150.473 99.5582 151.115C99.7714 151.596 99.7714 152.141 99.7714 152.654C99.7714 156.44 99.7714 160.225 99.7714 164.042C99.7714 165.036 99.6648 165.999 98.6785 166.287C97.559 166.64 96.7859 165.806 96.7593 164.202C96.7593 162.181 96.7859 160.225 96.7859 158.268Z" fill="white"/>
<path d="M98.2523 149.35C97.2926 149.35 96.5996 148.42 96.6262 147.233C96.6529 146.046 97.3993 145.148 98.3322 145.18C99.2119 145.212 99.9049 146.143 99.9316 147.265C99.9316 148.484 99.2119 149.383 98.2523 149.35Z" fill="white"/>
<path d="M206.955 147.265C206.982 148.452 206.315 149.35 205.409 149.35C204.449 149.383 203.703 148.484 203.703 147.297C203.703 146.111 204.423 145.148 205.356 145.18C206.235 145.18 206.955 146.079 206.955 147.265Z" fill="white"/>
<path d="M47.3123 139.054C48.032 139.406 48.8051 138.989 49.5248 139.214C47.7655 139.503 45.9795 139.535 44.2202 139.503C45.2598 139.406 46.2194 138.508 47.3123 139.054Z" fill="white"/>
<path d="M52.9102 151.917C53.4966 151.468 54.1097 151.018 54.6961 150.537C54.7494 150.634 54.8027 150.698 54.8294 150.794C54.243 151.339 53.8165 152.141 53.0701 152.43C53.0168 152.237 52.9635 152.077 52.9102 151.917Z" fill="white"/>
<path d="M52.217 153.392C52.0304 153.007 51.6039 153.232 51.3906 152.943C51.7105 152.719 52.057 152.462 52.3769 152.237C52.3769 152.558 52.5368 152.719 52.8034 152.686C52.6701 153.039 52.4569 153.232 52.217 153.392Z" fill="white"/>
<path d="M48.8848 157.658C48.9381 156.76 49.3912 156.311 50.0576 156.087C49.7378 156.696 49.3379 157.209 48.8848 157.658Z" fill="white"/>
<path d="M52.7766 152.719C52.51 152.751 52.3501 152.59 52.3501 152.269C52.4834 152.045 52.6966 151.981 52.8832 151.917C52.9365 152.077 52.9898 152.269 53.0432 152.43C52.9898 152.526 52.8832 152.622 52.7766 152.719Z" fill="white"/>
<path d="M51.3643 154.515C51.4176 153.905 51.6841 153.617 52.1639 153.553C51.9773 153.97 51.6575 154.258 51.3643 154.515Z" fill="white"/>
<path d="M50.2714 155.862C50.2447 155.477 50.378 155.221 50.7512 155.253C50.6445 155.509 50.4846 155.734 50.2714 155.862Z" fill="white"/>
<path d="M50.0845 156.055C50.1378 155.99 50.1911 155.926 50.2444 155.862C50.1911 155.958 50.1378 155.99 50.0845 156.055Z" fill="white"/>
</svg>
