<svg width="264" height="315" viewBox="0 0 264 315" fill="none" xmlns="http://www.w3.org/2000/svg">
<path d="M1.7 1.8C0.1 3.5 0 15.8 0 157.7C0 305.6 0.1 311.8 1.8 313.3C3.5 314.9 14 315 132.2 315C255.4 315 260.8 314.9 262.3 313.2C263.9 311.5 264 299.2 264 157.3C264 9.4 263.9 3.2 262.2 1.7C260.5 0.0999953 250 -4.69387e-06 131.8 -4.69387e-06C8.6 -4.69387e-06 3.2 0.0999953 1.7 1.8Z" fill="#1641A6"/>
<path d="M112.523 146.602C112.865 146.602 113.115 146.641 113.273 146.708C113.431 146.776 113.563 146.901 113.695 147.084L121.359 156.874C121.412 156.912 121.438 156.922 121.465 156.912C121.491 156.903 121.504 156.883 121.504 156.845V147.036C121.504 146.747 121.715 146.602 122.123 146.602H124.757C125.192 146.602 125.416 146.747 125.416 147.036V162.607C125.416 162.819 125.337 162.963 125.192 163.04C125.047 163.108 124.863 163.146 124.639 163.146H122.769C122.479 163.146 122.255 163.127 122.097 163.089C121.939 163.05 121.781 162.934 121.636 162.742L114.129 153.222C114.077 153.135 114.024 153.097 113.945 153.097C113.866 153.106 113.84 153.164 113.84 153.27V162.761C113.84 163.011 113.616 163.137 113.155 163.137H110.534C110.073 163.137 109.849 163.011 109.849 162.761V147.248C109.849 146.814 110.126 146.602 110.679 146.602H112.523V146.602Z" fill="white"/>
<path d="M143.88 158.425C143.88 159.177 143.695 159.851 143.313 160.458C142.931 161.065 142.418 161.576 141.759 162C141.101 162.424 140.311 162.742 139.402 162.963C138.493 163.185 137.492 163.301 136.412 163.301C135.332 163.301 134.345 163.185 133.423 162.963C132.501 162.742 131.711 162.424 131.039 162.009C130.368 161.595 129.841 161.084 129.446 160.477C129.051 159.87 128.853 159.186 128.853 158.415V151.227C128.853 150.476 129.037 149.801 129.419 149.194C129.801 148.587 130.328 148.067 131 147.643C131.671 147.209 132.462 146.891 133.383 146.66C134.305 146.439 135.293 146.323 136.373 146.323C137.426 146.323 138.401 146.439 139.31 146.66C140.218 146.882 141.009 147.209 141.693 147.624C142.378 148.048 142.918 148.558 143.3 149.165C143.695 149.772 143.893 150.466 143.893 151.227V158.425H143.88ZM139.705 151.266C139.705 150.64 139.428 150.11 138.875 149.686C138.322 149.252 137.505 149.04 136.399 149.04C135.293 149.04 134.463 149.252 133.871 149.686C133.278 150.119 132.988 150.64 132.988 151.266V158.396C132.988 159.022 133.278 159.543 133.844 159.967C134.424 160.391 135.253 160.593 136.36 160.593C137.387 160.593 138.203 160.381 138.796 159.967C139.389 159.543 139.692 159.022 139.692 158.396V151.266H139.705Z" fill="white"/>
<path d="M155.245 146.602C157.471 146.602 159.196 147.026 160.408 147.865C161.632 148.703 162.238 149.888 162.238 151.401C162.238 152.345 161.909 153.222 161.264 154.012C160.618 154.812 159.868 155.496 159.012 156.064C158.867 156.19 158.84 156.324 158.933 156.469C158.933 156.488 159.038 156.662 159.262 157.009C159.486 157.346 159.762 157.799 160.118 158.367C160.473 158.926 160.882 159.581 161.343 160.314C161.804 161.046 162.291 161.797 162.804 162.568C162.923 162.751 162.936 162.886 162.818 163.002C162.699 163.117 162.528 163.166 162.291 163.166H159.512C159.025 163.166 158.696 163.108 158.537 163.002C158.379 162.896 158.235 162.751 158.116 162.568L154.745 157.018C154.692 156.854 154.534 156.777 154.271 156.777H151.847C151.623 156.777 151.518 156.874 151.518 157.076V162.732C151.518 163.021 151.281 163.166 150.82 163.166H148.041C147.607 163.166 147.383 163.031 147.383 162.761V147.055C147.383 146.747 147.58 146.602 147.975 146.602H155.245V146.602ZM155.574 154.108C155.693 154.108 155.825 154.089 155.983 154.051C156.127 154.012 156.233 153.983 156.312 153.945C156.904 153.607 157.326 153.203 157.616 152.75C157.892 152.297 158.037 151.892 158.037 151.555C158.037 150.89 157.787 150.341 157.286 149.907C156.786 149.474 155.996 149.252 154.929 149.252H152.111C151.887 149.252 151.742 149.281 151.676 149.348C151.597 149.416 151.571 149.512 151.571 149.657V153.733C151.571 153.858 151.597 153.954 151.663 154.012C151.729 154.079 151.86 154.108 152.084 154.108H155.574V154.108Z" fill="white"/>
<path d="M180.017 158.425C180.017 159.177 179.832 159.851 179.451 160.458C179.069 161.065 178.555 161.576 177.896 162C177.238 162.424 176.448 162.742 175.539 162.963C174.63 163.185 173.63 163.301 172.55 163.301C171.47 163.301 170.482 163.185 169.56 162.963C168.638 162.742 167.848 162.424 167.176 162.009C166.505 161.595 165.978 161.084 165.583 160.477C165.188 159.87 164.99 159.186 164.99 158.415V151.227C164.99 150.476 165.175 149.801 165.557 149.194C165.938 148.587 166.465 148.067 167.137 147.643C167.809 147.209 168.599 146.891 169.521 146.66C170.442 146.439 171.43 146.323 172.51 146.323C173.564 146.323 174.538 146.439 175.447 146.66C176.356 146.882 177.146 147.209 177.831 147.624C178.515 148.048 179.055 148.558 179.437 149.165C179.832 149.772 180.03 150.466 180.03 151.227V158.425H180.017ZM175.842 151.266C175.842 150.64 175.565 150.11 175.012 149.686C174.459 149.252 173.643 149.04 172.536 149.04C171.443 149.04 170.601 149.252 170.008 149.686C169.415 150.119 169.126 150.64 169.126 151.266V158.396C169.126 159.022 169.415 159.543 169.982 159.967C170.561 160.391 171.391 160.593 172.497 160.593C173.524 160.593 174.341 160.381 174.933 159.967C175.526 159.543 175.829 159.022 175.829 158.396V151.266H175.842Z" fill="white"/>
<path d="M190.606 146.333C191.264 146.333 191.923 146.371 192.581 146.458C193.24 146.535 193.872 146.67 194.464 146.862C195.057 147.046 195.623 147.306 196.15 147.624C196.677 147.942 197.138 148.356 197.52 148.857C197.612 148.963 197.665 149.079 197.651 149.204C197.638 149.329 197.533 149.435 197.335 149.522L195.241 150.62C195.044 150.688 194.873 150.697 194.715 150.63C194.556 150.572 194.398 150.476 194.254 150.351C193.371 149.474 192.199 149.04 190.737 149.04C189.736 149.04 188.946 149.252 188.354 149.686C187.761 150.119 187.471 150.64 187.471 151.266V158.531C187.471 159.157 187.774 159.658 188.393 160.034C188.999 160.41 189.802 160.593 190.777 160.593C191.659 160.593 192.397 160.41 192.989 160.034C193.582 159.658 193.885 159.119 193.885 158.425V156.758C193.885 156.565 193.766 156.459 193.516 156.459H191.541C191.106 156.459 190.882 156.315 190.882 156.026V154.282C190.882 153.993 191.106 153.848 191.541 153.848H197.296C197.783 153.848 198.033 153.993 198.033 154.282V158.57C198.033 159.321 197.849 159.986 197.48 160.564C197.111 161.142 196.598 161.634 195.939 162.038C195.281 162.443 194.504 162.751 193.608 162.963C192.713 163.175 191.751 163.281 190.698 163.281C189.644 163.281 188.67 163.175 187.787 162.963C186.892 162.751 186.115 162.443 185.456 162.038C184.798 161.634 184.284 161.142 183.915 160.564C183.547 159.986 183.362 159.331 183.362 158.589V151.025C183.362 150.312 183.547 149.666 183.915 149.079C184.284 148.501 184.785 147.999 185.43 147.595C186.075 147.18 186.839 146.862 187.721 146.641C188.63 146.448 189.592 146.333 190.606 146.333Z" fill="white"/>
<path d="M214.245 160.439C214.64 160.439 214.838 160.593 214.838 160.892V162.665C214.838 162.983 214.64 163.146 214.245 163.146H201.826C201.391 163.146 201.167 162.992 201.167 162.693V147.055C201.167 146.747 201.391 146.602 201.826 146.602H214.034C214.205 146.602 214.35 146.631 214.469 146.699C214.587 146.766 214.653 146.872 214.653 147.036V148.78C214.653 149.098 214.456 149.262 214.061 149.262H205.882C205.632 149.262 205.474 149.291 205.408 149.339C205.329 149.397 205.303 149.483 205.303 149.609V152.827C205.303 153.135 205.5 153.28 205.895 153.28H212.638C213.033 153.28 213.231 153.443 213.231 153.761V155.477C213.231 155.785 213.033 155.929 212.638 155.929H205.856C205.632 155.929 205.487 155.958 205.421 156.026C205.342 156.093 205.316 156.19 205.316 156.334V160.034C205.316 160.198 205.369 160.304 205.461 160.352C205.553 160.41 205.724 160.429 205.974 160.429H214.245V160.439Z" fill="white"/>
<path d="M115.525 171.356L110.718 166.923V171.356H110.231V166.365H110.705L115.407 170.71V166.365H115.894V171.356H115.525Z" fill="white"/>
<path d="M121.478 171.433C120.003 171.433 118.936 170.566 118.936 169.544V169.535C118.936 168.513 120.016 167.627 121.504 167.627C122.979 167.627 124.046 168.494 124.046 169.515V169.525C124.033 170.556 122.953 171.433 121.478 171.433ZM123.519 169.535C123.519 168.658 122.624 167.954 121.478 167.954C120.293 167.954 119.45 168.658 119.45 169.515V169.525C119.45 170.402 120.345 171.105 121.491 171.105C122.676 171.105 123.519 170.402 123.519 169.544V169.535ZM120.358 167.106V166.538H121.03V167.106H120.358ZM121.939 167.106V166.538H122.61V167.106H121.939Z" fill="white"/>
<path d="M129.59 168.041C128.445 168.041 127.431 168.677 127.431 169.862V171.356H126.957V167.714H127.431V168.745C127.826 168.099 128.655 167.627 129.63 167.656V168.041H129.59Z" fill="white"/>
<path d="M134.252 171.433C132.777 171.433 131.71 170.566 131.71 169.544V169.535C131.71 168.513 132.79 167.627 134.279 167.627C135.754 167.627 136.82 168.494 136.82 169.515V169.525C136.82 170.556 135.727 171.433 134.252 171.433ZM136.294 169.535C136.294 168.658 135.398 167.954 134.252 167.954C133.067 167.954 132.224 168.658 132.224 169.515V169.525C132.224 170.402 133.12 171.105 134.265 171.105C135.451 171.105 136.294 170.402 136.294 169.544V169.535Z" fill="white"/>
<path d="M141.917 172.502C141.088 172.502 140.324 172.319 139.639 171.943L139.915 171.654C140.508 171.992 141.193 172.165 141.917 172.165C143.063 172.165 143.866 171.683 143.866 170.749V170.219C143.432 170.672 142.773 171.057 141.786 171.057C140.587 171.057 139.402 170.383 139.402 169.342V169.352C139.402 168.301 140.587 167.627 141.786 167.627C142.773 167.627 143.458 168.012 143.866 168.436V167.714H144.34V170.787C144.354 171.895 143.326 172.502 141.917 172.502ZM143.906 169.352C143.906 168.513 142.879 167.964 141.851 167.964C140.811 167.964 139.929 168.494 139.929 169.342V169.352C139.929 170.171 140.824 170.739 141.851 170.739C142.879 170.739 143.906 170.18 143.906 169.352V169.352Z" fill="white"/>
<path d="M149.714 171.105C150.478 171.105 151.004 170.855 151.426 170.537L151.755 170.749C151.255 171.144 150.649 171.433 149.701 171.433C148.397 171.433 147.264 170.672 147.264 169.535V169.525C147.264 168.465 148.278 167.627 149.622 167.627C151.018 167.627 151.9 168.455 151.9 169.535V169.544C151.9 169.592 151.9 169.612 151.887 169.67H147.765C147.857 170.585 148.739 171.105 149.714 171.105ZM151.386 169.361C151.32 168.629 150.741 167.945 149.608 167.945C148.621 167.945 147.87 168.552 147.778 169.361H151.386Z" fill="white"/>
<path d="M154.81 171.356V166.153H155.284V171.356H154.81Z" fill="white"/>
<path d="M158.616 166.769V166.287H159.209V166.769H158.616ZM158.669 171.356V167.714H159.143V171.346H158.669V171.356Z" fill="white"/>
<path d="M166.07 170.797C165.978 170.932 165.86 171.038 165.702 171.134C165.544 171.23 165.359 171.298 165.162 171.346C164.951 171.394 164.727 171.423 164.49 171.423C164.121 171.423 163.766 171.375 163.397 171.279C163.028 171.182 162.712 171.047 162.449 170.893L162.725 170.614C163.002 170.768 163.278 170.884 163.581 170.97C163.884 171.057 164.187 171.096 164.503 171.096C164.846 171.096 165.122 171.038 165.359 170.913C165.596 170.787 165.702 170.623 165.702 170.411V170.402C165.702 170.296 165.662 170.209 165.596 170.132C165.53 170.055 165.425 169.988 165.307 169.93C165.188 169.872 165.043 169.824 164.885 169.785C164.727 169.747 164.569 169.708 164.385 169.67C164.187 169.631 163.976 169.583 163.779 169.535C163.568 169.486 163.397 169.429 163.226 169.352C163.068 169.274 162.936 169.188 162.831 169.082C162.725 168.976 162.686 168.841 162.686 168.677V168.667C162.686 168.523 162.725 168.388 162.804 168.263C162.883 168.138 163.002 168.032 163.147 167.945C163.292 167.858 163.463 167.781 163.66 167.733C163.858 167.685 164.082 167.656 164.319 167.656C164.622 167.656 164.925 167.694 165.241 167.762C165.557 167.829 165.833 167.935 166.084 168.06L165.833 168.349C165.609 168.243 165.359 168.157 165.096 168.089C164.832 168.022 164.569 167.993 164.306 167.993C163.963 167.993 163.687 168.051 163.476 168.176C163.265 168.301 163.173 168.446 163.173 168.629V168.639C163.173 168.735 163.213 168.822 163.292 168.899C163.371 168.976 163.476 169.034 163.594 169.091C163.726 169.14 163.871 169.188 164.042 169.226C164.213 169.265 164.385 169.303 164.556 169.342C164.753 169.38 164.951 169.429 165.149 169.477C165.346 169.525 165.517 169.592 165.675 169.67C165.833 169.747 165.952 169.843 166.044 169.949C166.136 170.055 166.189 170.19 166.189 170.354V170.363C166.202 170.527 166.149 170.672 166.07 170.797ZM165.043 171.279L164.279 172.406L163.739 172.223L164.622 171.279H165.043Z" fill="white"/>
<path d="M169.191 166.769V166.288H169.784V166.769H169.191ZM169.257 171.356V167.714H169.731V171.346H169.257V171.356Z" fill="white"/>
<path d="M180.096 171.356V169.197C180.096 168.417 179.543 167.954 178.621 167.954C177.778 167.954 177.054 168.427 177.054 169.236V171.356H176.58V169.178C176.58 168.427 176.013 167.954 175.131 167.954C174.249 167.954 173.538 168.523 173.538 169.255V171.356H173.063V167.714H173.538V168.359C173.854 167.983 174.301 167.627 175.197 167.627C176.066 167.627 176.606 167.993 176.87 168.407C177.186 168.003 177.726 167.627 178.661 167.627C179.846 167.627 180.57 168.234 180.57 169.149V171.356H180.096V171.356Z" fill="white"/>
<path d="M190.632 166.702V171.356H190.131V166.702H187.748V166.355H193.015V166.702H190.632Z" fill="white"/>
<path d="M196.69 171.105C197.454 171.105 197.98 170.855 198.402 170.537L198.731 170.749C198.231 171.144 197.625 171.433 196.677 171.433C195.373 171.433 194.24 170.672 194.24 169.535V169.525C194.24 168.465 195.254 167.627 196.598 167.627C197.994 167.627 198.876 168.455 198.876 169.535V169.544C198.876 169.592 198.876 169.612 198.863 169.67H194.741C194.82 170.585 195.715 171.105 196.69 171.105ZM198.349 169.361C198.283 168.629 197.704 167.945 196.571 167.945C195.584 167.945 194.833 168.552 194.741 169.361H198.349Z" fill="white"/>
<path d="M203.314 171.423C202.589 171.423 201.799 171.211 201.272 170.893L201.549 170.614C202.089 170.922 202.695 171.096 203.327 171.096C203.999 171.096 204.525 170.826 204.525 170.402V170.392C204.525 169.968 203.906 169.804 203.208 169.67C202.405 169.496 201.496 169.323 201.496 168.667V168.658C201.496 168.07 202.168 167.656 203.129 167.656C203.722 167.656 204.394 167.81 204.894 168.051L204.644 168.34C204.183 168.118 203.643 167.974 203.116 167.974C202.431 167.974 201.984 168.243 201.984 168.61V168.619C201.984 169.024 202.655 169.178 203.366 169.323C204.17 169.486 204.999 169.698 204.999 170.344V170.354C205.026 171.009 204.262 171.423 203.314 171.423Z" fill="white"/>
<path d="M209.556 171.414C208.793 171.414 208.16 171.105 208.16 170.411V168.032H207.436V167.714H208.16V166.548H208.634V167.714H210.373V168.032H208.634V170.373C208.634 170.893 209.056 171.076 209.622 171.076C209.872 171.076 210.07 171.038 210.36 170.951V171.279C210.109 171.375 209.859 171.414 209.556 171.414Z" fill="white"/>
<path d="M213.244 166.769V166.288H213.836V166.769H213.244ZM213.296 171.356V167.714H213.77V171.346H213.296V171.356Z" fill="white"/>
<path d="M78.0051 149.994C78.0051 149.108 77.0174 148.385 75.8058 148.385C74.5942 148.385 73.6064 149.108 73.6064 149.994C73.6064 150.746 74.3176 151.372 75.2658 151.545C75.2395 151.593 75.2263 151.642 75.2263 151.69V172.348C75.2263 172.579 75.4897 172.772 75.8058 172.772C76.1218 172.772 76.3852 172.579 76.3852 172.348V151.69C76.3852 151.642 76.3721 151.593 76.3457 151.545C77.3071 151.362 78.0051 150.736 78.0051 149.994ZM75.8058 150.774C75.2131 150.774 74.739 150.418 74.739 149.994C74.739 149.56 75.2263 149.214 75.8058 149.214C76.3984 149.214 76.8725 149.57 76.8725 149.994C76.8857 150.418 76.3984 150.774 75.8058 150.774Z" fill="white"/>
<path d="M101.091 156.373C101.328 154.821 100.815 152.152 97.3379 151.468C97.3116 150.784 97.0745 149.454 95.7971 148.375C94.7698 147.508 93.308 146.997 91.4379 146.862C91.056 145.995 89.6732 144.049 85.2614 144.251C84.7477 143.635 83.3649 142.324 80.731 142.132C79.4009 142.035 77.9654 142.372 76.6879 143.066C76.0426 142.276 74.6993 141.418 72.4605 141.611C71.3279 141.708 70.4719 142.026 69.8397 142.401C69.8265 142.411 69.8002 142.411 69.787 142.421C69.7739 142.43 69.7344 142.459 69.6685 142.498C69.2866 142.748 68.9837 143.008 68.773 143.249C68.7071 143.317 68.6281 143.394 68.5491 143.471C66.9687 142.758 63.0442 141.351 59.1855 143.008L59.0801 143.057C55.2082 144.752 54.9449 147.132 55.037 148.125C54.26 148.327 52.9036 148.818 52.008 149.859C51.152 150.832 50.9149 152.056 51.2837 153.482C50.3355 153.858 48.5312 154.889 48.4522 157.23C48.3995 158.82 49.3741 159.947 51.6129 160.853C51.4417 161.74 51.2574 163.975 53.3513 165.401C55.1161 166.605 56.9335 166.808 60.3839 166.133C60.7395 166.972 61.7009 168.639 63.9529 169.756C66.0732 170.807 68.773 171.105 71.9995 170.643C72.1444 170.623 72.2629 170.566 72.3551 170.498C72.3815 170.479 72.3946 170.469 72.4078 170.45C72.421 170.44 72.421 170.431 72.4341 170.431C72.4736 170.383 72.5 170.334 72.5263 170.277C72.5263 170.267 72.5263 170.257 72.5263 170.257C72.5263 170.238 72.5395 170.219 72.5395 170.199V159.909C73.5404 159.707 74.2647 158.993 74.1462 158.174C74.0277 157.442 73.2243 156.845 72.2234 156.768C70.8933 156.652 69.7607 157.413 69.7607 158.367C69.7607 159.109 70.4455 159.726 71.3806 159.909V166.056H67.3375V163.532C68.3384 163.329 69.0627 162.616 68.9442 161.797C68.8257 161.065 68.0223 160.468 67.0214 160.391C65.6913 160.275 64.5587 161.036 64.5587 161.99C64.5587 162.732 65.2435 163.349 66.1786 163.532V166.914H66.2181H67.3507H71.3937V169.718C68.7071 170.055 66.4683 169.804 64.7431 168.947C62.1618 167.665 61.556 165.459 61.556 165.44C61.5165 165.305 61.4111 165.179 61.2399 165.112C61.0819 165.035 60.8844 165.016 60.7 165.054C56.9071 165.864 55.6165 165.584 54.2995 164.688C52.2714 163.301 53.0353 160.728 53.0484 160.709C53.1143 160.487 52.9694 160.256 52.6928 160.15C50.612 159.389 49.7824 158.55 49.835 157.259C49.9272 154.86 52.2056 154.262 52.2978 154.234C52.6402 154.157 52.8245 153.896 52.7455 153.646C52.3109 152.326 52.4558 151.227 53.1801 150.399C54.1678 149.262 55.9326 148.963 55.9457 148.963C56.1169 148.934 56.275 148.857 56.3803 148.751C56.4725 148.645 56.512 148.51 56.4725 148.375C56.4594 148.346 55.735 145.697 59.8308 143.885L59.923 143.847C63.11 142.478 66.5341 143.702 67.8906 144.299C67.2585 145.138 66.6922 146.255 66.521 147.614C64.664 147.884 63.4129 148.799 63.3471 148.847C63.0837 149.04 63.0969 149.358 63.3603 149.551C63.4919 149.647 63.6632 149.695 63.8344 149.695C64.0056 149.695 64.1899 149.647 64.3216 149.551C64.3348 149.541 65.7044 148.539 67.5219 148.539C69.3919 148.539 70.6036 149.175 70.6167 149.185C70.9196 149.348 71.3411 149.3 71.5649 149.088C71.7888 148.867 71.723 148.558 71.4332 148.395C71.3806 148.366 70.0241 147.643 67.9038 147.556C68.0882 146.361 68.6413 145.388 69.2076 144.656C69.5105 144.232 70.4192 143.394 70.6431 143.24C71.1172 142.941 71.7888 142.671 72.6975 142.584C75.1471 142.372 75.8056 143.827 75.8714 143.991C75.9373 144.155 76.1085 144.29 76.3455 144.338C76.5694 144.386 76.8196 144.338 76.9908 144.222C78.1234 143.442 79.4931 143.028 80.6783 143.114C83.2728 143.307 84.3 144.907 84.3395 144.964C84.458 145.157 84.7346 145.282 85.0243 145.253C89.7522 144.897 90.3053 147.286 90.3185 147.392C90.358 147.624 90.6346 147.807 90.9507 147.816C92.6759 147.884 93.9797 148.289 94.8489 149.011C96.2317 150.167 96.0736 151.805 96.0605 151.815C96.0341 152.075 96.2712 152.307 96.6268 152.345C100.525 152.836 99.827 156.296 99.8006 156.44C99.7743 156.585 99.827 156.739 99.9587 156.845C100.986 157.693 101.473 158.531 101.394 159.34C101.341 159.89 101.025 160.333 100.736 160.651C99.669 159.417 98.0886 158.608 96.0473 158.28C95.6786 158.223 95.323 158.396 95.244 158.656C95.1649 158.926 95.3888 159.186 95.7576 159.244C97.7067 159.552 99.1027 160.381 99.9587 161.691C99.9719 161.72 99.985 161.759 100.011 161.788C100.011 161.797 100.038 161.807 100.051 161.836C100.209 162.086 100.341 162.356 100.459 162.645C100.485 162.703 100.512 162.751 100.564 162.799C100.881 163.744 100.946 165.276 99.2739 167.107C97.1272 169.458 94.3353 169.679 93.1368 169.66C93.0446 168.86 92.6759 167.714 91.4906 166.972C92.5573 166.307 93.3212 165.42 93.7426 164.332C93.848 164.071 93.6373 163.792 93.2685 163.724C92.9129 163.647 92.531 163.802 92.4388 164.071C92.0437 165.112 91.2931 165.912 90.2132 166.461C88.725 167.212 87.1051 167.232 87.0788 167.232C86.71 167.232 86.4071 167.453 86.4071 167.723C86.4071 167.993 86.71 168.215 87.0788 168.215C87.1578 168.215 88.6855 168.205 90.3185 167.569C91.4906 168.099 91.7672 169.236 91.8198 169.93C91.7935 169.978 91.7672 170.036 91.7672 170.093C91.675 171.394 89.5152 172.637 84.8794 172.483C80.5861 172.348 80.5203 170.411 80.5203 170.19C80.5203 170.074 80.4808 169.968 80.3886 169.891V163.185H85.4984H85.5379V160.13C86.5388 159.928 87.2632 159.215 87.1446 158.396C87.0261 157.664 86.2228 157.066 85.2219 156.989C83.8917 156.874 82.7591 157.635 82.7591 158.589C82.7591 159.331 83.444 159.947 84.379 160.13V162.327H80.4018V156.199C81.4027 155.997 82.127 155.284 82.0085 154.465C81.8899 153.733 81.0866 153.135 80.0857 153.058C78.7556 152.942 77.623 153.704 77.623 154.658C77.623 155.399 78.3078 156.016 79.2428 156.199V169.949C79.2033 170.007 79.1902 170.065 79.177 170.132C79.177 170.161 78.5448 173.273 84.3 173.456C84.5765 173.466 84.8531 173.466 85.1165 173.466C89.5678 173.466 92.2544 172.223 92.9129 170.903C93.0315 170.835 93.1105 170.749 93.15 170.643C94.6645 170.672 97.9437 170.373 100.42 167.656C103.027 164.794 102 162.482 101.421 161.605C101.895 161.219 102.632 160.468 102.737 159.437C102.764 158.406 102.25 157.375 101.091 156.373ZM70.8933 158.512C70.7484 157.962 71.4069 157.481 72.1576 157.587C72.579 157.645 72.9214 157.895 73.0004 158.203C73.1453 158.753 72.4868 159.234 71.7361 159.128C71.3147 159.071 70.9723 158.82 70.8933 158.512ZM66.9424 162.751C66.1917 162.857 65.5332 162.376 65.6781 161.826C65.7571 161.518 66.0995 161.267 66.521 161.21C67.2716 161.104 67.9301 161.585 67.7853 162.135C67.7062 162.443 67.3638 162.693 66.9424 162.751ZM83.8259 158.743C83.681 158.194 84.3395 157.712 85.0902 157.818C85.5116 157.876 85.854 158.126 85.933 158.435C86.0779 158.984 85.4194 159.466 84.6687 159.36C84.2473 159.302 83.9049 159.051 83.8259 158.743ZM78.6765 154.812C78.5317 154.262 79.1902 153.781 79.9408 153.887C80.3623 153.945 80.7047 154.195 80.7837 154.503C80.9286 155.053 80.2701 155.534 79.5194 155.428C79.098 155.371 78.7556 155.12 78.6765 154.812Z" fill="white"/>
<path d="M87.8954 149.377C89.3178 150.264 89.6733 151.324 89.6733 151.333C89.7392 151.565 90.0289 151.719 90.3318 151.719C90.3845 151.719 90.4372 151.719 90.4767 151.709C90.8454 151.651 91.0693 151.382 90.9903 151.121C90.9771 151.064 90.5425 149.743 88.7646 148.626C86.9341 147.489 84.5372 147.633 84.4318 147.643C84.0631 147.672 83.7865 147.913 83.826 148.183C83.8655 148.452 84.1816 148.655 84.5635 148.635C84.5767 148.626 86.5126 148.51 87.8954 149.377Z" fill="white"/>
<path d="M56.5382 159.032C55.7875 157.779 56.1036 156.71 56.1036 156.7C56.1826 156.469 56.0246 156.238 55.748 156.141C55.7085 156.122 55.6559 156.113 55.6032 156.103C55.2344 156.035 54.8788 156.209 54.7867 156.469C54.7735 156.527 54.3521 157.857 55.2871 159.427C56.2485 161.036 58.4873 161.672 58.5927 161.701C58.9351 161.797 59.3302 161.672 59.4619 161.412C59.5936 161.161 59.4224 160.872 59.0668 160.776C59.0536 160.776 57.2625 160.256 56.5382 159.032Z" fill="white"/>
<path d="M73.2112 158.232C73.2112 158.743 72.6449 159.157 71.9469 159.157C71.2489 159.157 70.6826 158.743 70.6826 158.232C70.6826 157.722 71.2489 157.307 71.9469 157.307C72.6449 157.298 73.2112 157.712 73.2112 158.232Z" fill="white"/>
<path d="M56.8147 156.373C56.8147 156.883 56.2484 157.298 55.5504 157.298C54.8524 157.298 54.2861 156.883 54.2861 156.373C54.2861 155.862 54.8524 155.448 55.5504 155.448C56.2484 155.448 56.8147 155.862 56.8147 156.373Z" fill="white"/>
<path d="M96.4817 158.724C96.4817 159.234 95.9154 159.649 95.2174 159.649C94.5194 159.649 93.9531 159.234 93.9531 158.724C93.9531 158.213 94.5194 157.799 95.2174 157.799C95.9022 157.799 96.4817 158.213 96.4817 158.724Z" fill="white"/>
<path d="M87.6057 167.82C87.6057 168.33 87.0394 168.745 86.3414 168.745C85.6434 168.745 85.0771 168.33 85.0771 167.82C85.0771 167.309 85.6434 166.895 86.3414 166.895C87.0394 166.885 87.6057 167.299 87.6057 167.82Z" fill="white"/>
<path d="M64.677 149.493C64.677 150.004 64.1107 150.418 63.4127 150.418C62.7147 150.418 62.1484 150.004 62.1484 149.493C62.1484 148.982 62.7147 148.568 63.4127 148.568C64.1107 148.568 64.677 148.982 64.677 149.493Z" fill="white"/>
<path d="M91.7937 151.719C91.7937 152.229 91.2274 152.644 90.5294 152.644C89.8314 152.644 89.2651 152.229 89.2651 151.719C89.2651 151.208 89.8314 150.794 90.5294 150.794C91.2142 150.794 91.7937 151.208 91.7937 151.719Z" fill="white"/>
<path d="M80.9944 154.658C80.9944 155.168 80.4281 155.583 79.7301 155.583C79.0321 155.583 78.4658 155.168 78.4658 154.658C78.4658 154.147 79.0321 153.733 79.7301 153.733C80.4281 153.733 80.9944 154.147 80.9944 154.658Z" fill="white"/>
</svg>
