<svg width="264" height="315" viewBox="0 0 264 315" fill="none" xmlns="http://www.w3.org/2000/svg">
<path d="M1.7 1.79999C0.1 3.5 0 15.8 0 157.7C0 305.6 0.1 311.8 1.8 313.3C3.5 314.9 14 315 132.2 315C255.4 315 260.8 314.9 262.3 313.2C263.9 311.5 264 299.2 264 157.3C264 9.39999 263.9 3.19998 262.2 1.69998C260.5 0.100006 250 0 131.8 0C8.6 0 3.2 0.100006 1.7 1.79999Z" fill="#54829C"/>
<g clip-path="url(#clip0_3_115)">
<path fill-rule="evenodd" clip-rule="evenodd" d="M138.11 151.924C139.187 151.222 140.422 150.804 141.702 150.708C142.982 150.613 144.265 150.842 145.434 151.377C146.603 151.911 147.619 152.732 148.39 153.765C149.16 154.798 149.66 156.01 149.844 157.288H137.677C137.394 157.288 137.123 157.401 136.923 157.603C136.722 157.804 136.61 158.078 136.61 158.363C136.61 158.647 136.722 158.921 136.923 159.122C137.123 159.324 137.394 159.437 137.677 159.437H150.982V159.433H150.986C151.126 159.432 151.264 159.404 151.393 159.35C151.522 159.296 151.64 159.217 151.738 159.117C151.837 159.017 151.915 158.898 151.968 158.768C152.021 158.638 152.048 158.498 152.047 158.358V158.28C152.027 156.522 151.539 154.803 150.635 153.299C149.732 151.795 148.444 150.562 146.907 149.728C145.37 148.895 143.639 148.49 141.895 148.557C140.15 148.624 138.455 149.16 136.985 150.109C136.399 150.488 135.855 150.928 135.361 151.423C134.452 152.332 133.73 153.413 133.238 154.604C132.745 155.796 132.492 157.073 132.493 158.363H132.497C132.503 160.239 133.041 162.074 134.048 163.653C135.055 165.231 136.49 166.487 138.182 167.272C139.874 168.058 141.755 168.34 143.601 168.086C145.448 167.832 147.184 167.052 148.605 165.838C148.714 165.749 148.805 165.637 148.871 165.512C148.938 165.386 148.979 165.248 148.992 165.107C149.005 164.965 148.99 164.822 148.947 164.686C148.905 164.551 148.836 164.425 148.744 164.316C148.653 164.207 148.541 164.118 148.415 164.054C148.289 163.989 148.151 163.95 148.01 163.94C147.869 163.929 147.728 163.947 147.594 163.992C147.46 164.038 147.336 164.109 147.23 164.203C145.762 165.451 143.884 166.099 141.965 166.022C140.046 165.944 138.226 165.146 136.863 163.784C136.153 163.074 135.589 162.23 135.205 161.299C134.82 160.369 134.623 159.371 134.624 158.364H134.628C134.629 157.083 134.948 155.822 135.558 154.698C136.167 153.573 137.047 152.62 138.116 151.926L138.11 151.924Z" fill="white"/>
<path fill-rule="evenodd" clip-rule="evenodd" d="M129.022 163.069C129.185 163.081 129.337 163.155 129.448 163.276C129.558 163.396 129.619 163.555 129.618 163.719L129.615 163.726C129.614 163.787 129.604 163.847 129.586 163.905C129.553 164.006 129.497 164.098 129.422 164.172C129.362 164.231 129.291 164.278 129.213 164.31C129.135 164.341 129.052 164.357 128.968 164.356L128.961 164.353C128.791 164.35 128.629 164.28 128.511 164.157C128.393 164.034 128.328 163.869 128.331 163.698C128.334 163.527 128.404 163.365 128.526 163.246C128.648 163.127 128.812 163.061 128.981 163.064L128.988 163.067H129.018L129.022 163.069ZM156.043 151.016L155.795 152.493C155.844 152.522 155.889 152.558 155.929 152.598C155.987 152.658 156.034 152.73 156.065 152.808C156.097 152.887 156.113 152.971 156.112 153.055C156.111 153.14 156.093 153.224 156.06 153.301C156.027 153.379 155.979 153.45 155.919 153.509C155.83 153.596 155.719 153.655 155.598 153.681C155.554 153.69 155.51 153.694 155.465 153.694L155.461 153.692C155.292 153.688 155.132 153.617 155.015 153.495C154.898 153.374 154.833 153.21 154.834 153.041L154.837 153.034C154.841 152.864 154.911 152.703 155.032 152.585C155.153 152.467 155.315 152.401 155.484 152.403L155.49 152.406C155.6 152.408 155.707 152.438 155.801 152.494L156.049 151.017C155.898 150.974 155.743 150.949 155.586 150.94C153.979 147.977 151.437 145.636 148.361 144.288C145.285 142.941 141.851 142.662 138.6 143.497C135.35 144.332 132.468 146.233 130.41 148.9C128.353 151.566 127.236 154.847 127.236 158.224C127.236 158.508 127.348 158.782 127.548 158.983C127.749 159.185 128.02 159.298 128.303 159.298C128.586 159.298 128.858 159.185 129.058 158.983C129.258 158.782 129.371 158.508 129.371 158.224C129.37 155.327 130.327 152.513 132.09 150.224C133.854 147.935 136.323 146.301 139.11 145.58C141.897 144.859 144.843 145.091 147.485 146.241C150.126 147.39 152.313 149.391 153.7 151.929C153.495 152.259 153.385 152.64 153.383 153.029L153.38 153.035H153.383C153.379 153.594 153.596 154.132 153.985 154.53C154.375 154.928 154.905 155.154 155.461 155.159L155.467 155.162V155.159C155.975 155.163 156.467 154.981 156.851 154.647C157.236 154.313 157.487 153.851 157.559 153.345C157.63 152.839 157.517 152.324 157.24 151.895C156.963 151.467 156.541 151.154 156.052 151.015L156.043 151.016ZM134.091 171.405C134.193 171.47 134.296 171.533 134.4 171.596C136.692 172.969 139.304 173.707 141.972 173.734C144.639 173.762 147.266 173.077 149.585 171.75C151.904 170.423 153.832 168.502 155.173 166.181C156.515 163.86 157.221 161.224 157.221 158.539C157.221 158.254 157.109 157.98 156.908 157.779C156.708 157.577 156.437 157.464 156.154 157.464C155.871 157.464 155.599 157.577 155.399 157.779C155.199 157.98 155.086 158.254 155.086 158.539C155.086 161.435 154.129 164.25 152.366 166.539C150.603 168.828 148.133 170.462 145.345 171.183C142.558 171.904 139.612 171.672 136.97 170.522C134.328 169.373 132.142 167.371 130.754 164.834C130.959 164.504 131.069 164.123 131.072 163.733L131.075 163.727H131.072C131.075 163.168 130.859 162.63 130.469 162.232C130.079 161.834 129.548 161.608 128.993 161.603L128.986 161.6V161.603C128.695 161.601 128.406 161.66 128.138 161.776C127.902 161.88 127.687 162.026 127.502 162.207C127.212 162.494 127.011 162.861 126.923 163.261C126.836 163.661 126.866 164.079 127.01 164.462C127.155 164.846 127.407 165.178 127.736 165.42C128.065 165.662 128.457 165.802 128.863 165.823C130.103 168.101 131.901 170.023 134.085 171.407L134.091 171.405Z" fill="white"/>
<path fill-rule="evenodd" clip-rule="evenodd" d="M79.0011 158.224V172.305C78.9985 172.532 79.0431 172.756 79.1321 172.965C79.216 173.166 79.3372 173.349 79.4893 173.504C79.6457 173.658 79.8282 173.782 80.0281 173.871C80.2257 173.96 80.44 174.004 80.6562 174.001C80.874 174.004 81.0898 173.959 81.2884 173.869C81.4729 173.786 81.6393 173.668 81.7778 173.519C81.9134 173.369 82.0173 173.192 82.0832 173C82.1634 172.778 82.2037 172.543 82.2023 172.306V165.231L83.1435 165.846C83.869 166.321 84.6556 166.692 85.4814 166.952C86.324 167.216 87.2017 167.349 88.0842 167.346C89.2951 167.353 90.4944 167.109 91.6068 166.627C92.6799 166.166 93.6549 165.501 94.4787 164.669C95.3022 163.83 95.9607 162.842 96.4195 161.757C96.8871 160.636 97.1274 159.432 97.1263 158.217C97.1252 157.001 96.8826 155.798 96.4129 154.678C95.9525 153.597 95.2936 152.613 94.4709 151.778C93.6478 150.944 92.6727 150.277 91.599 149.814C90.4857 149.335 89.286 149.093 88.0752 149.103C86.8682 149.093 85.6722 149.335 84.5628 149.814C82.3904 150.755 80.6579 152.497 79.7203 154.682C79.2372 155.799 78.9919 157.006 78.9999 158.225L79.0011 158.224ZM82.2023 158.224C82.1965 157.431 82.354 156.646 82.6648 155.918C82.9633 155.217 83.3932 154.581 83.9311 154.044C84.4712 153.512 85.1049 153.087 85.7999 152.789C86.5227 152.481 87.2995 152.323 88.0842 152.323C88.8689 152.323 89.6456 152.481 90.3685 152.789C91.062 153.085 91.6931 153.512 92.2277 154.047C92.7693 154.596 93.198 155.247 93.4893 155.964C93.7806 156.68 93.9289 157.447 93.9256 158.221C93.9285 159.004 93.774 159.78 93.4714 160.501C93.1795 161.202 92.7576 161.84 92.2283 162.382C91.6954 162.924 91.0632 163.357 90.3667 163.657C89.6412 163.964 88.8619 164.123 88.0746 164.123C87.2874 164.123 86.5081 163.964 85.7826 163.657C85.0908 163.354 84.4616 162.923 83.9275 162.386C83.3911 161.847 82.9623 161.209 82.6642 160.507C82.3551 159.785 82.1976 159.007 82.2017 158.222L82.2023 158.224ZM99.7313 145.46C99.7316 145.694 99.7807 145.924 99.8754 146.138C99.9655 146.354 100.096 146.55 100.259 146.717C100.43 146.883 100.63 147.016 100.85 147.108C101.07 147.205 101.308 147.255 101.548 147.255C101.786 147.255 102.021 147.205 102.239 147.108C102.461 147.014 102.665 146.881 102.84 146.714C103.007 146.549 103.141 146.354 103.234 146.138C103.329 145.925 103.378 145.694 103.378 145.461C103.378 145.22 103.331 144.982 103.239 144.759C103.147 144.537 103.012 144.336 102.842 144.166C102.667 143.997 102.464 143.861 102.241 143.765C102.023 143.671 101.787 143.624 101.55 143.626C101.31 143.624 101.073 143.671 100.852 143.765C100.632 143.859 100.432 143.994 100.261 144.163C100.098 144.33 99.968 144.527 99.8789 144.744C99.7816 144.97 99.7318 145.214 99.7325 145.46H99.7313ZM103.135 165.511V150.937C103.135 150.726 103.095 150.516 103.016 150.32C102.937 150.131 102.824 149.959 102.681 149.812C102.542 149.665 102.375 149.547 102.189 149.466C101.999 149.385 101.793 149.344 101.586 149.347C101.367 149.342 101.149 149.383 100.946 149.466C100.749 149.55 100.57 149.671 100.418 149.822C100.268 149.972 100.145 150.148 100.058 150.342C99.9737 150.529 99.9308 150.731 99.9325 150.936V165.509C99.9318 165.716 99.9721 165.921 100.051 166.112C100.13 166.303 100.246 166.477 100.392 166.622C100.548 166.771 100.73 166.889 100.928 166.972C101.123 167.057 101.332 167.1 101.544 167.1C101.756 167.1 101.966 167.057 102.161 166.972C102.351 166.894 102.524 166.778 102.671 166.633C102.815 166.488 102.93 166.316 103.01 166.127C103.094 165.932 103.137 165.722 103.135 165.509V165.511ZM120.664 157.974V165.572C120.661 165.784 120.704 165.994 120.791 166.187C120.876 166.376 120.995 166.548 121.144 166.694C121.295 166.837 121.473 166.949 121.666 167.024C121.875 167.106 122.097 167.147 122.321 167.144C122.533 167.145 122.742 167.104 122.938 167.024C123.117 166.951 123.279 166.841 123.414 166.703C123.555 166.553 123.667 166.38 123.747 166.19C123.831 165.995 123.873 165.784 123.872 165.571V157.878C123.88 156.701 123.657 155.535 123.217 154.445C122.801 153.41 122.195 152.464 121.431 151.656C120.664 150.86 119.749 150.224 118.739 149.785C117.162 149.1 115.416 148.912 113.732 149.247C112.047 149.581 110.503 150.421 109.303 151.657C108.532 152.463 107.921 153.409 107.502 154.445C107.061 155.534 106.838 156.701 106.847 157.878V165.572C106.844 165.781 106.887 165.988 106.974 166.178C107.061 166.368 107.184 166.539 107.336 166.682C107.492 166.828 107.674 166.943 107.872 167.023C108.073 167.103 108.287 167.144 108.504 167.142C108.715 167.144 108.925 167.103 109.12 167.023C109.303 166.95 109.469 166.841 109.608 166.702C109.748 166.561 109.859 166.394 109.935 166.209C110.015 166.007 110.056 165.79 110.054 165.572V157.892C110.05 157.15 110.186 156.413 110.454 155.722C110.705 155.068 111.076 154.467 111.547 153.951C112.021 153.435 112.598 153.025 113.241 152.749C113.92 152.461 114.651 152.317 115.388 152.325C116.087 152.32 116.78 152.46 117.424 152.735C118.068 153.01 118.649 153.414 119.131 153.924C119.6 154.421 119.976 154.998 120.243 155.628C120.524 156.292 120.681 157.003 120.704 157.725L120.711 157.883L120.664 157.976L120.664 157.974Z" fill="white"/>
<path fill-rule="evenodd" clip-rule="evenodd" d="M160.644 143.692V158.217C160.638 159.432 160.881 160.636 161.358 161.752C162.275 163.955 164.015 165.706 166.203 166.63C167.317 167.104 168.514 167.349 169.723 167.349C170.933 167.349 172.13 167.104 173.244 166.63C174.317 166.169 175.292 165.505 176.115 164.672C176.938 163.833 177.597 162.845 178.055 161.76C178.527 160.639 178.77 159.434 178.77 158.217C178.77 156.999 178.527 155.795 178.055 154.674C177.139 152.487 175.413 150.745 173.243 149.817C171.298 148.994 169.129 148.881 167.111 149.499C166.285 149.758 165.499 150.13 164.774 150.605L163.828 151.222L163.847 143.699C163.85 143.465 163.809 143.231 163.727 143.011C163.651 142.812 163.536 142.629 163.391 142.472C163.254 142.325 163.089 142.207 162.905 142.126C162.494 141.959 162.034 141.957 161.621 142.121C161.433 142.202 161.264 142.322 161.125 142.472C160.976 142.633 160.858 142.82 160.776 143.023C160.689 143.236 160.645 143.463 160.647 143.693L160.644 143.692ZM163.847 158.224C163.841 157.431 163.998 156.646 164.309 155.918C164.607 155.217 165.036 154.581 165.573 154.044C166.109 153.514 166.737 153.089 167.427 152.789C168.151 152.482 168.929 152.324 169.715 152.324C170.501 152.324 171.279 152.482 172.004 152.789C172.694 153.089 173.322 153.514 173.858 154.044C174.395 154.581 174.822 155.219 175.113 155.922C175.564 157.004 175.686 158.195 175.463 159.346C175.24 160.497 174.682 161.555 173.86 162.386C173.326 162.922 172.696 163.353 172.005 163.657C171.281 163.964 170.503 164.122 169.717 164.122C168.931 164.122 168.152 163.964 167.428 163.657C166.736 163.354 166.107 162.923 165.573 162.386C165.036 161.847 164.607 161.209 164.308 160.507C163.999 159.786 163.841 159.008 163.845 158.222L163.847 158.224ZM181.355 145.46C181.355 145.694 181.404 145.924 181.499 146.138C181.589 146.354 181.719 146.55 181.883 146.717C182.054 146.883 182.254 147.016 182.473 147.108C182.692 147.205 182.929 147.255 183.168 147.255C183.407 147.255 183.643 147.205 183.862 147.108C184.085 147.014 184.289 146.881 184.464 146.714C184.631 146.549 184.764 146.354 184.857 146.138C184.952 145.925 185.002 145.694 185.001 145.461C185.001 145.22 184.954 144.982 184.862 144.759C184.77 144.537 184.635 144.336 184.465 144.166C184.291 143.997 184.087 143.861 183.864 143.765C183.646 143.671 183.411 143.624 183.174 143.626C182.934 143.624 182.696 143.671 182.475 143.765C182.255 143.859 182.055 143.994 181.885 144.163C181.721 144.33 181.591 144.527 181.502 144.744C181.405 144.97 181.355 145.214 181.356 145.46H181.355ZM184.759 165.511V150.937C184.762 150.729 184.724 150.522 184.646 150.329C184.569 150.136 184.454 149.96 184.308 149.812C184.169 149.665 184.002 149.547 183.816 149.466C183.626 149.385 183.42 149.344 183.213 149.347C182.994 149.342 182.776 149.383 182.573 149.466C182.376 149.55 182.198 149.671 182.046 149.822C181.895 149.972 181.773 150.148 181.686 150.342C181.601 150.529 181.558 150.731 181.56 150.936V165.509C181.559 165.716 181.6 165.921 181.679 166.112C181.758 166.303 181.874 166.477 182.02 166.622C182.176 166.771 182.357 166.889 182.556 166.972C182.75 167.057 182.96 167.1 183.172 167.1C183.384 167.1 183.594 167.057 183.788 166.972C183.979 166.893 184.152 166.778 184.299 166.633C184.442 166.488 184.557 166.316 184.637 166.127C184.722 165.932 184.764 165.722 184.762 165.509L184.759 165.511Z" fill="white"/>
</g>
<defs>
<clipPath id="clip0_3_115">
<rect width="106" height="32" fill="white" transform="translate(79 142)"/>
</clipPath>
</defs>
</svg>
