<svg width="264" height="315" viewBox="0 0 264 315" fill="none" xmlns="http://www.w3.org/2000/svg">
<path d="M1.7 1.79999C0.1 3.5 0 15.8 0 157.7C0 305.6 0.1 311.8 1.8 313.3C3.5 314.9 14 315 132.2 315C255.4 315 260.8 314.9 262.3 313.2C263.9 311.5 264 299.2 264 157.3C264 9.39999 263.9 3.19998 262.2 1.69998C260.5 0.100006 250 0 131.8 0C8.6 0 3.2 0.100006 1.7 1.79999Z" fill="#104A60"/>
<g clip-path="url(#clip0_3_177)">
<path d="M132.095 137.167C132.817 137.167 133.514 137.446 134.056 137.951C134.599 137.447 135.296 137.169 136.017 137.167H139.356C132.84 133.584 125.44 132.219 118.166 133.258C114.159 133.819 110.393 135.604 107.326 138.396C107.348 138.427 107.37 138.457 107.39 138.488C107.522 138.296 107.673 138.119 107.839 137.96C108.384 137.447 109.088 137.165 109.816 137.167H114.511C115.203 137.162 115.874 137.423 116.4 137.9C116.932 137.429 117.603 137.169 118.296 137.167H122.081C122.812 137.141 123.529 137.377 124.118 137.836C124.671 137.863 125.226 137.903 125.783 137.955C126.328 137.446 127.029 137.166 127.755 137.167H132.095Z" fill="white"/>
<path d="M141.231 137.185C141.651 137.233 142.057 137.375 142.423 137.6C142.878 137.316 143.397 137.166 143.926 137.165H147.164C142.406 131.84 135.94 128.596 129.039 128.074C122.139 127.551 115.304 129.788 109.88 134.343C113.368 132.5 128.758 127.563 141.231 137.185Z" fill="white"/>
<path d="M141.882 173.663C141.473 173.896 141.098 174.19 140.77 174.538C140.639 174.715 140.572 174.93 140.936 175.053C139.943 174.899 140.984 173.866 141.205 172.141C141.212 172.083 142.025 171.362 142.029 171.302C142.029 171.268 141.229 171.898 141.231 171.863C141.251 171.568 141.244 171.271 141.208 170.977C141.204 170.945 141.652 170.316 141.646 170.284C141.64 170.252 141.187 170.828 141.182 170.8C141.09 170.352 140.96 169.915 140.793 169.492C140.807 169.545 140.827 169.627 140.85 169.72C140.864 169.772 140.86 169.826 140.84 169.875C140.82 169.924 140.785 169.965 140.74 169.989C140.695 170.014 140.644 170.021 140.595 170.01C140.545 169.999 140.501 169.971 140.469 169.929V169.929C140.469 169.929 141.034 170.789 141.036 170.826C141.038 171.303 140.989 171.778 140.891 172.243C140.882 172.287 140.153 171.224 140.143 171.268C140.133 171.313 140.841 172.469 140.83 172.517C140.728 172.948 140.579 173.366 140.386 173.761C140.371 173.79 140.35 173.816 140.325 173.837C140.3 173.857 140.271 173.872 140.24 173.88C140.21 173.887 140.178 173.888 140.147 173.881C140.116 173.875 140.086 173.862 140.061 173.842C137.379 171.81 139.693 168.846 140.826 167.591C140.854 167.56 140.89 167.537 140.929 167.526C140.968 167.515 141.01 167.516 141.049 167.529C141.087 167.542 141.122 167.566 141.149 167.598C141.175 167.631 141.193 167.67 141.199 167.713C141.479 169.539 144.111 172.125 141.882 173.663Z" fill="white"/>
<path d="M141.354 181.404C140.717 181.407 140.082 181.346 139.457 181.221C133.253 183.937 125.429 185.643 118.457 182.874C122.95 184.238 130.401 183.37 137.409 180.478C136.472 179.96 135.686 179.181 135.136 178.224C134.487 179.327 133.533 180.19 132.404 180.696C130.111 181.64 127.568 181.64 125.275 180.696C124.774 180.469 124.306 180.168 123.885 179.801C123.727 180.095 123.523 180.357 123.282 180.577C122.801 181.001 122.195 181.233 121.569 181.233H120.693C120.311 181.246 119.931 181.175 119.575 181.025C119.22 180.876 118.897 180.651 118.627 180.364C118.457 180.191 118.301 180.003 118.161 179.801C118.128 179.75 118.097 179.708 118.064 179.657L116.968 177.84C116.798 177.797 116.631 177.752 116.465 177.705V178.411C116.466 178.806 116.387 179.198 116.235 179.559C116.083 179.921 115.86 180.244 115.581 180.507C115.073 180.98 114.418 181.238 113.741 181.232H112.817C112.112 181.24 111.431 180.956 110.92 180.439C110.598 180.106 110.365 179.688 110.245 179.228C109.963 179.527 109.655 179.797 109.325 180.036C119.907 189.583 134.353 188.737 144.146 180.978C143.241 181.269 142.299 181.412 141.354 181.404Z" fill="white"/>
<path d="M107.42 155.64C106.041 155.665 104.668 155.444 103.359 154.984C102.273 154.613 101.318 153.904 100.617 152.95C99.9322 151.929 99.5868 150.696 99.6345 149.445V140.199C99.6344 140.117 99.6514 140.036 99.6843 139.962C99.7172 139.887 99.7652 139.822 99.8248 139.77C99.9493 139.65 100.112 139.586 100.28 139.589H104.974C105.142 139.586 105.305 139.65 105.429 139.77C105.489 139.822 105.537 139.888 105.57 139.962C105.603 140.036 105.62 140.117 105.62 140.199V149.355C105.605 149.591 105.637 149.827 105.714 150.049C105.79 150.271 105.91 150.473 106.064 150.644C106.451 150.938 106.916 151.096 107.393 151.096C107.87 151.096 108.335 150.938 108.723 150.644C108.877 150.473 108.996 150.271 109.072 150.049C109.149 149.827 109.181 149.591 109.167 149.355V140.199C109.167 140.117 109.184 140.036 109.217 139.962C109.25 139.887 109.297 139.822 109.357 139.77C109.482 139.65 109.644 139.586 109.812 139.589H114.507C114.674 139.586 114.837 139.65 114.962 139.77C115.021 139.822 115.069 139.888 115.102 139.962C115.135 140.036 115.152 140.117 115.152 140.199V149.444C115.2 150.695 114.854 151.928 114.17 152.948C113.472 153.9 112.522 154.609 111.442 154.983C110.146 155.442 108.786 155.664 107.42 155.64V155.64Z" fill="white"/>
<path d="M118.296 155.414C118.128 155.417 117.965 155.352 117.841 155.233C117.781 155.18 117.733 155.115 117.7 155.041C117.667 154.966 117.65 154.885 117.65 154.803V140.202C117.65 140.12 117.667 140.039 117.7 139.964C117.733 139.89 117.781 139.825 117.841 139.772C117.965 139.653 118.128 139.588 118.296 139.591H122.081C122.329 139.567 122.576 139.639 122.778 139.793C122.885 139.887 122.981 139.993 123.066 140.109L127.114 146.371V140.2C127.114 140.118 127.131 140.037 127.164 139.962C127.197 139.888 127.245 139.823 127.304 139.77C127.429 139.651 127.592 139.586 127.759 139.589H132.095C132.263 139.586 132.425 139.651 132.55 139.77C132.609 139.823 132.657 139.888 132.69 139.962C132.723 140.037 132.74 140.118 132.74 140.2V154.801C132.74 154.883 132.723 154.964 132.69 155.039C132.657 155.113 132.609 155.178 132.55 155.231C132.425 155.35 132.263 155.415 132.095 155.412H128.31C128.061 155.436 127.813 155.359 127.615 155.197C127.472 155.054 127.376 154.952 127.328 154.892L123.28 149.127V154.801C123.28 154.883 123.263 154.964 123.23 155.039C123.197 155.113 123.149 155.178 123.089 155.231C122.965 155.35 122.802 155.415 122.634 155.412L118.296 155.414Z" fill="white"/>
<path d="M136.022 155.414C135.854 155.417 135.691 155.352 135.567 155.233C135.507 155.18 135.459 155.115 135.427 155.041C135.394 154.966 135.377 154.885 135.377 154.803V140.202C135.377 140.12 135.394 140.039 135.427 139.964C135.46 139.89 135.507 139.825 135.567 139.772C135.692 139.653 135.854 139.588 136.022 139.591H140.907C141.075 139.588 141.237 139.653 141.362 139.772C141.421 139.825 141.469 139.89 141.502 139.964C141.535 140.039 141.552 140.12 141.552 140.202V154.803C141.552 154.885 141.535 154.966 141.502 155.041C141.469 155.115 141.421 155.18 141.362 155.233C141.237 155.352 141.075 155.417 140.907 155.414H136.022Z" fill="white"/>
<path d="M148.55 155.414C148.382 155.417 148.219 155.352 148.095 155.233C148.035 155.18 147.987 155.115 147.954 155.041C147.921 154.966 147.904 154.885 147.904 154.803V144.449H143.928C143.76 144.452 143.597 144.387 143.473 144.268C143.413 144.216 143.365 144.15 143.332 144.076C143.299 144.002 143.282 143.921 143.282 143.839V140.199C143.282 140.117 143.299 140.036 143.332 139.962C143.365 139.887 143.413 139.822 143.473 139.77C143.597 139.65 143.76 139.586 143.928 139.589H157.965C158.133 139.586 158.295 139.65 158.42 139.77C158.479 139.822 158.527 139.888 158.56 139.962C158.593 140.036 158.61 140.117 158.61 140.199V143.839C158.61 143.921 158.593 144.002 158.56 144.076C158.527 144.15 158.479 144.216 158.42 144.268C158.295 144.387 158.133 144.452 157.965 144.449H153.988V154.803C153.988 154.885 153.971 154.966 153.939 155.04C153.906 155.114 153.858 155.18 153.798 155.232C153.673 155.352 153.511 155.416 153.343 155.413L148.55 155.414Z" fill="white"/>
<path d="M99.2671 164.283C99.1983 164.285 99.1316 164.258 99.0806 164.209C99.0561 164.188 99.0363 164.161 99.0227 164.131C99.0091 164.1 99.002 164.067 99.002 164.034V158.054C99.0021 158.021 99.0092 157.987 99.0228 157.957C99.0364 157.927 99.0561 157.9 99.0806 157.879C99.1316 157.83 99.1984 157.803 99.2671 157.805H101.267C101.336 157.803 101.403 157.83 101.454 157.879C101.479 157.9 101.498 157.927 101.512 157.957C101.525 157.987 101.533 158.021 101.533 158.054V164.033C101.533 164.066 101.525 164.1 101.512 164.13C101.498 164.16 101.479 164.187 101.454 164.208C101.403 164.257 101.336 164.284 101.267 164.283L99.2671 164.283Z" fill="white"/>
<path d="M102.874 164.283C102.805 164.285 102.738 164.258 102.687 164.209C102.663 164.188 102.643 164.161 102.629 164.131C102.616 164.1 102.609 164.067 102.609 164.034V158.054C102.609 158.021 102.616 157.987 102.629 157.957C102.643 157.927 102.663 157.9 102.687 157.879C102.738 157.83 102.805 157.803 102.874 157.805H104.423C104.524 157.795 104.625 157.825 104.707 157.888C104.751 157.926 104.79 157.97 104.825 158.018L106.482 160.582V158.054C106.483 158.021 106.49 157.987 106.503 157.957C106.517 157.927 106.537 157.9 106.561 157.879C106.612 157.83 106.679 157.803 106.748 157.805H108.524C108.593 157.803 108.659 157.83 108.711 157.879C108.735 157.9 108.755 157.927 108.768 157.957C108.782 157.987 108.789 158.021 108.789 158.054V164.033C108.789 164.066 108.782 164.1 108.768 164.13C108.755 164.16 108.735 164.187 108.711 164.208C108.66 164.257 108.593 164.284 108.524 164.282H106.975C106.873 164.292 106.771 164.261 106.691 164.194C106.632 164.136 106.592 164.094 106.573 164.069L104.915 161.709V164.033C104.915 164.066 104.908 164.1 104.895 164.13C104.881 164.16 104.862 164.187 104.837 164.208C104.786 164.257 104.72 164.284 104.651 164.282L102.874 164.283Z" fill="white"/>
<path d="M111.768 164.283C111.659 164.29 111.551 164.254 111.465 164.182C111.402 164.129 111.355 164.059 111.328 163.98L109.484 158.075C109.478 158.053 109.474 158.031 109.474 158.008C109.474 157.98 109.48 157.953 109.491 157.929C109.502 157.904 109.518 157.882 109.538 157.864C109.58 157.825 109.634 157.803 109.69 157.805H111.514C111.609 157.797 111.704 157.823 111.784 157.878C111.865 157.933 111.926 158.015 111.958 158.11L112.889 161.553L113.821 158.11C113.853 158.015 113.914 157.933 113.995 157.878C114.075 157.823 114.17 157.797 114.265 157.805H116.089C116.145 157.803 116.199 157.825 116.241 157.864C116.261 157.882 116.277 157.904 116.288 157.929C116.299 157.953 116.305 157.98 116.305 158.008C116.304 158.031 116.301 158.053 116.295 158.075L114.451 163.98C114.419 164.075 114.358 164.156 114.278 164.211C114.198 164.267 114.103 164.292 114.007 164.285L111.768 164.283Z" fill="white"/>
<path d="M117.251 164.283C117.182 164.285 117.115 164.258 117.064 164.209C117.039 164.188 117.02 164.161 117.006 164.131C116.993 164.1 116.985 164.067 116.985 164.033V158.054C116.985 158.021 116.993 157.987 117.006 157.957C117.02 157.927 117.04 157.9 117.064 157.879C117.115 157.83 117.182 157.803 117.251 157.804H122.282C122.35 157.803 122.417 157.83 122.468 157.879C122.493 157.9 122.512 157.927 122.526 157.957C122.54 157.987 122.547 158.021 122.547 158.054V159.36C122.547 159.393 122.54 159.426 122.526 159.457C122.512 159.487 122.493 159.514 122.468 159.535C122.417 159.584 122.35 159.611 122.282 159.609H119.34V160.192H122.068C122.137 160.191 122.204 160.217 122.255 160.266C122.279 160.287 122.299 160.314 122.313 160.345C122.326 160.375 122.334 160.409 122.334 160.442V161.647C122.334 161.681 122.326 161.714 122.313 161.745C122.299 161.775 122.279 161.802 122.255 161.823C122.204 161.872 122.137 161.898 122.068 161.897H119.34V162.48H122.361C122.43 162.479 122.496 162.506 122.547 162.554C122.572 162.576 122.592 162.603 122.605 162.633C122.619 162.663 122.626 162.696 122.626 162.73V164.035C122.626 164.068 122.619 164.102 122.605 164.132C122.592 164.162 122.572 164.189 122.547 164.21C122.496 164.259 122.43 164.286 122.361 164.284L117.251 164.283Z" fill="white"/>
<path d="M126.391 164.378C125.782 164.397 125.174 164.303 124.596 164.1C124.188 163.959 123.823 163.707 123.537 163.369C123.315 163.101 123.183 162.762 123.164 162.406C123.164 162.378 123.17 162.351 123.181 162.327C123.192 162.302 123.208 162.28 123.228 162.262C123.269 162.223 123.324 162.201 123.38 162.203H125.243C125.325 162.198 125.407 162.212 125.484 162.244C125.547 162.277 125.608 162.316 125.665 162.36C125.73 162.403 125.797 162.442 125.866 162.476C125.941 162.512 126.02 162.537 126.101 162.55C126.377 162.592 126.657 162.576 126.926 162.503C127.06 162.458 127.127 162.395 127.127 162.314C127.126 162.275 127.115 162.237 127.095 162.205C127.075 162.172 127.047 162.146 127.014 162.129C126.893 162.062 126.762 162.017 126.627 161.994C126.444 161.954 126.189 161.915 125.862 161.878C125.402 161.825 124.95 161.71 124.518 161.536C124.175 161.403 123.872 161.174 123.641 160.874C123.43 160.578 123.321 160.213 123.332 159.842C123.328 159.435 123.463 159.041 123.712 158.731C123.994 158.388 124.355 158.129 124.76 157.98C125.262 157.791 125.792 157.7 126.324 157.711C126.765 157.704 127.204 157.765 127.629 157.891C127.971 157.993 128.295 158.152 128.59 158.362C128.825 158.528 129.028 158.74 129.188 158.987C129.314 159.174 129.389 159.395 129.404 159.625C129.404 159.653 129.398 159.68 129.387 159.705C129.376 159.729 129.36 159.751 129.34 159.769C129.302 159.807 129.251 159.828 129.198 159.829H127.234C127.159 159.832 127.084 159.819 127.013 159.792C126.952 159.763 126.894 159.726 126.842 159.681C126.786 159.636 126.725 159.6 126.66 159.574C126.553 159.531 126.438 159.51 126.322 159.514C126.2 159.505 126.077 159.528 125.964 159.582C125.931 159.599 125.902 159.626 125.882 159.659C125.862 159.693 125.852 159.732 125.852 159.771C125.853 159.803 125.862 159.834 125.878 159.861C125.893 159.889 125.914 159.912 125.94 159.929C126.038 159.995 126.148 160.039 126.263 160.059C126.42 160.095 126.646 160.132 126.94 160.17C127.477 160.216 128.006 160.336 128.514 160.526C128.856 160.648 129.157 160.875 129.377 161.178C129.564 161.477 129.659 161.83 129.647 162.188C129.653 162.62 129.5 163.039 129.22 163.354C128.899 163.705 128.5 163.965 128.059 164.109C127.52 164.294 126.957 164.385 126.391 164.378V164.378Z" fill="white"/>
<path d="M132.079 164.283C132.01 164.285 131.943 164.258 131.892 164.209C131.868 164.188 131.848 164.161 131.835 164.131C131.821 164.1 131.814 164.067 131.814 164.033V159.794H130.186C130.117 159.796 130.05 159.769 129.999 159.72C129.975 159.699 129.955 159.672 129.941 159.641C129.928 159.611 129.921 159.578 129.921 159.544V158.054C129.921 158.021 129.928 157.987 129.941 157.957C129.955 157.927 129.975 157.9 129.999 157.879C130.05 157.83 130.117 157.803 130.186 157.804H135.933C136.002 157.803 136.069 157.83 136.12 157.879C136.144 157.9 136.164 157.927 136.177 157.957C136.191 157.987 136.198 158.021 136.198 158.054V159.544C136.198 159.578 136.191 159.611 136.178 159.641C136.164 159.672 136.144 159.699 136.12 159.72C136.069 159.769 136.002 159.796 135.933 159.794H134.305V164.033C134.305 164.067 134.298 164.1 134.284 164.131C134.271 164.161 134.251 164.188 134.226 164.209C134.175 164.258 134.109 164.285 134.04 164.283H132.079Z" fill="white"/>
<path d="M137.169 164.283C137.1 164.285 137.033 164.258 136.982 164.209C136.957 164.188 136.938 164.161 136.924 164.131C136.91 164.1 136.903 164.067 136.903 164.033V158.054C136.903 158.021 136.911 157.987 136.924 157.957C136.938 157.927 136.957 157.9 136.982 157.879C137.033 157.83 137.1 157.803 137.169 157.805H138.718C138.825 157.796 138.931 157.832 139.012 157.906C139.058 157.952 139.101 158.001 139.139 158.054L140.561 160.275L141.983 158.054C142.021 158.001 142.064 157.952 142.11 157.906C142.192 157.832 142.297 157.796 142.404 157.805H143.954C144.022 157.803 144.089 157.83 144.14 157.879C144.165 157.9 144.184 157.927 144.198 157.957C144.211 157.987 144.218 158.021 144.218 158.054V164.033C144.218 164.066 144.211 164.1 144.198 164.13C144.184 164.16 144.165 164.187 144.14 164.208C144.089 164.257 144.022 164.284 143.954 164.282H142.177C142.109 164.284 142.042 164.257 141.991 164.208C141.966 164.187 141.946 164.16 141.933 164.13C141.919 164.1 141.912 164.066 141.912 164.033V161.497L141.265 162.496C141.227 162.552 141.182 162.603 141.132 162.649C141.068 162.704 140.985 162.733 140.902 162.727H140.216C140.132 162.733 140.05 162.705 139.985 162.649C139.936 162.603 139.891 162.552 139.853 162.496L139.206 161.497V164.033C139.206 164.066 139.199 164.1 139.185 164.13C139.172 164.16 139.152 164.187 139.128 164.208C139.077 164.257 139.01 164.284 138.941 164.282L137.169 164.283Z" fill="white"/>
<path d="M145.563 164.283C145.494 164.285 145.428 164.258 145.377 164.209C145.352 164.188 145.332 164.161 145.319 164.131C145.305 164.1 145.298 164.067 145.298 164.033V158.054C145.298 158.021 145.305 157.987 145.319 157.957C145.332 157.927 145.352 157.9 145.377 157.879C145.428 157.83 145.494 157.803 145.563 157.804H150.594C150.663 157.803 150.729 157.83 150.781 157.879C150.805 157.9 150.825 157.927 150.838 157.957C150.852 157.987 150.859 158.021 150.859 158.054V159.36C150.859 159.393 150.852 159.426 150.838 159.457C150.825 159.487 150.805 159.514 150.781 159.535C150.729 159.584 150.663 159.61 150.594 159.609H147.65V160.192H150.378C150.447 160.191 150.514 160.217 150.565 160.266C150.589 160.287 150.609 160.314 150.623 160.345C150.636 160.375 150.643 160.409 150.644 160.442V161.647C150.643 161.681 150.636 161.714 150.623 161.745C150.609 161.775 150.589 161.802 150.565 161.823C150.514 161.872 150.447 161.898 150.378 161.897H147.65V162.48H150.671C150.74 162.479 150.806 162.506 150.857 162.554C150.882 162.576 150.902 162.603 150.915 162.633C150.929 162.663 150.936 162.696 150.936 162.73V164.035C150.936 164.068 150.929 164.102 150.915 164.132C150.902 164.162 150.882 164.189 150.857 164.21C150.806 164.259 150.74 164.286 150.671 164.284L145.563 164.283Z" fill="white"/>
<path d="M152.103 164.283C152.034 164.285 151.967 164.258 151.916 164.209C151.892 164.188 151.872 164.161 151.858 164.131C151.845 164.1 151.838 164.067 151.838 164.034V158.054C151.838 158.021 151.845 157.987 151.858 157.957C151.872 157.927 151.892 157.9 151.916 157.879C151.967 157.83 152.034 157.803 152.103 157.805H153.652C153.753 157.795 153.854 157.825 153.936 157.888C153.98 157.926 154.019 157.97 154.054 158.018L155.711 160.582V158.054C155.712 158.021 155.719 157.987 155.732 157.957C155.746 157.927 155.766 157.9 155.79 157.879C155.841 157.83 155.908 157.803 155.977 157.805H157.753C157.822 157.803 157.889 157.83 157.94 157.879C157.964 157.9 157.984 157.927 157.997 157.957C158.011 157.987 158.018 158.021 158.018 158.054V164.033C158.018 164.066 158.011 164.1 157.997 164.13C157.984 164.16 157.964 164.187 157.94 164.208C157.889 164.257 157.822 164.284 157.753 164.282H156.204C156.102 164.292 156 164.261 155.92 164.194C155.861 164.136 155.821 164.094 155.802 164.069L154.144 161.709V164.033C154.144 164.066 154.137 164.1 154.124 164.13C154.11 164.16 154.091 164.187 154.066 164.208C154.015 164.257 153.949 164.284 153.88 164.282L152.103 164.283Z" fill="white"/>
<path d="M160.881 164.283C160.813 164.285 160.746 164.258 160.695 164.209C160.67 164.188 160.651 164.161 160.637 164.131C160.623 164.1 160.616 164.067 160.616 164.033V159.794H158.988C158.92 159.796 158.853 159.769 158.802 159.72C158.777 159.699 158.757 159.672 158.744 159.641C158.73 159.611 158.723 159.578 158.723 159.544V158.054C158.723 158.021 158.73 157.987 158.744 157.957C158.758 157.927 158.777 157.9 158.802 157.879C158.853 157.83 158.92 157.803 158.988 157.804H164.736C164.804 157.803 164.871 157.83 164.922 157.879C164.947 157.9 164.966 157.927 164.98 157.957C164.994 157.987 165.001 158.021 165.001 158.054V159.544C165.001 159.578 164.994 159.611 164.98 159.641C164.967 159.672 164.947 159.699 164.922 159.72C164.871 159.769 164.804 159.796 164.736 159.794H163.108V164.033C163.108 164.067 163.1 164.1 163.087 164.131C163.073 164.161 163.053 164.188 163.029 164.209C162.978 164.258 162.911 164.284 162.842 164.283H160.881Z" fill="white"/>
<path d="M104.668 178.98C103.729 179.009 102.796 178.816 101.936 178.415C101.231 178.075 100.638 177.52 100.23 176.822C99.8232 176.088 99.5955 175.258 99.568 174.407C99.5557 173.904 99.5496 173.371 99.5496 172.805C99.5496 172.24 99.5557 171.701 99.568 171.187C99.5947 170.338 99.8225 169.511 100.23 168.78C100.64 168.085 101.237 167.536 101.943 167.204C102.802 166.81 103.731 166.62 104.666 166.648C105.416 166.632 106.164 166.748 106.88 166.99C107.441 167.179 107.967 167.47 108.434 167.851C108.798 168.15 109.106 168.519 109.341 168.939C109.517 169.24 109.626 169.58 109.659 169.933C109.666 169.979 109.661 170.026 109.645 170.07C109.629 170.114 109.603 170.152 109.568 170.181C109.484 170.248 109.382 170.281 109.277 170.275H108.206C108.114 170.284 108.022 170.26 107.943 170.208C107.875 170.142 107.822 170.06 107.789 169.968C107.663 169.644 107.482 169.347 107.253 169.094C106.972 168.784 106.632 168.542 106.255 168.383C105.75 168.178 105.211 168.082 104.669 168.1C103.835 168.057 103.013 168.317 102.337 168.837C102.02 169.144 101.771 169.521 101.606 169.941C101.442 170.362 101.366 170.815 101.386 171.27C101.349 172.286 101.349 173.303 101.386 174.319C101.366 174.778 101.442 175.236 101.609 175.661C101.775 176.086 102.027 176.467 102.347 176.777C103.019 177.3 103.839 177.563 104.671 177.522C105.258 177.532 105.841 177.416 106.384 177.179C106.868 176.966 107.282 176.606 107.573 176.143C107.881 175.611 108.032 174.994 108.008 174.37V173.65H105.285C105.176 173.655 105.069 173.615 104.986 173.539C104.947 173.501 104.916 173.455 104.895 173.403C104.875 173.351 104.866 173.295 104.868 173.239V172.696C104.866 172.64 104.875 172.584 104.895 172.533C104.916 172.481 104.947 172.434 104.986 172.397C105.069 172.321 105.176 172.281 105.285 172.285H109.388C109.5 172.278 109.611 172.318 109.696 172.397C109.733 172.436 109.761 172.483 109.78 172.534C109.799 172.586 109.807 172.641 109.804 172.696V174.341C109.824 175.202 109.613 176.051 109.197 176.79C108.772 177.505 108.156 178.069 107.427 178.409C106.558 178.811 105.616 179.006 104.668 178.98V178.98Z" fill="white"/>
<path d="M112.818 178.808C112.762 178.812 112.706 178.804 112.653 178.785C112.6 178.766 112.551 178.736 112.509 178.696C112.474 178.66 112.445 178.616 112.427 178.568C112.408 178.519 112.399 178.466 112.4 178.414V167.229C112.398 167.174 112.406 167.119 112.425 167.067C112.444 167.016 112.473 166.969 112.509 166.93C112.594 166.851 112.705 166.81 112.818 166.818H117.247C118.392 166.753 119.529 167.07 120.496 167.726C121.158 168.303 121.581 169.133 121.674 170.037C121.767 170.941 121.524 171.848 120.995 172.564C120.487 173.144 119.826 173.547 119.098 173.72L121.893 178.277C121.926 178.333 121.945 178.398 121.948 178.465C121.947 178.512 121.936 178.558 121.915 178.599C121.895 178.641 121.866 178.677 121.83 178.705C121.756 178.771 121.663 178.807 121.567 178.808H120.695C120.614 178.815 120.532 178.805 120.454 178.779C120.376 178.752 120.304 178.71 120.242 178.653C120.151 178.557 120.066 178.454 119.988 178.345L117.356 173.994H114.177V178.414C114.179 178.467 114.169 178.52 114.148 178.569C114.128 178.618 114.097 178.662 114.059 178.696C113.971 178.775 113.857 178.814 113.742 178.808H112.818ZM114.177 172.539H117.172C117.886 172.594 118.597 172.405 119.203 172.001C119.413 171.799 119.582 171.553 119.697 171.278C119.813 171.004 119.873 170.706 119.874 170.405C119.875 170.105 119.816 169.807 119.702 169.532C119.588 169.256 119.421 169.009 119.212 168.806C118.606 168.392 117.889 168.2 117.17 168.258H114.177V172.539Z" fill="white"/>
<path d="M128.845 178.98C127.932 179.005 127.024 178.833 126.176 178.474C125.465 178.162 124.867 177.616 124.47 176.916C124.043 176.107 123.812 175.197 123.798 174.27C123.786 173.767 123.78 173.285 123.78 172.822C123.78 172.36 123.786 171.877 123.798 171.375C123.812 170.449 124.053 169.543 124.496 168.745C124.912 168.044 125.52 167.494 126.238 167.169C127.906 166.473 129.761 166.473 131.429 167.169C132.149 167.496 132.76 168.045 133.181 168.745C133.63 169.54 133.868 170.448 133.871 171.375C133.895 171.877 133.907 172.36 133.907 172.822C133.907 173.285 133.895 173.767 133.871 174.27C133.869 175.198 133.641 176.109 133.208 176.916C132.807 177.615 132.207 178.16 131.495 178.474C130.653 178.832 129.751 179.004 128.845 178.98ZM128.845 177.524C129.663 177.56 130.466 177.28 131.104 176.736C131.423 176.405 131.672 176.007 131.836 175.567C132 175.127 132.075 174.656 132.056 174.183C132.08 173.669 132.092 173.21 132.092 172.805C132.092 172.4 132.08 171.946 132.056 171.443C132.061 170.771 131.901 170.11 131.593 169.524C131.327 169.052 130.931 168.676 130.459 168.448C129.947 168.221 129.398 168.105 128.843 168.105C128.289 168.105 127.74 168.221 127.228 168.448C126.756 168.676 126.36 169.052 126.094 169.524C125.784 170.111 125.619 170.771 125.613 171.443C125.601 171.946 125.594 172.4 125.594 172.805C125.594 173.21 125.601 173.669 125.613 174.183C125.594 174.657 125.67 175.129 125.836 175.569C126.001 176.009 126.253 176.407 126.575 176.736C127.217 177.279 128.023 177.559 128.845 177.524Z" fill="white"/>
<path d="M141.35 178.98C140.452 179.004 139.558 178.829 138.727 178.466C138.021 178.148 137.43 177.599 137.039 176.899C136.616 176.066 136.412 175.128 136.449 174.183V167.229C136.447 167.174 136.455 167.119 136.474 167.067C136.493 167.016 136.521 166.969 136.558 166.93C136.643 166.851 136.754 166.81 136.867 166.818H137.79C137.905 166.812 138.019 166.852 138.107 166.93C138.147 166.967 138.178 167.014 138.198 167.065C138.218 167.117 138.228 167.173 138.226 167.229V174.221C138.19 174.674 138.246 175.13 138.39 175.558C138.534 175.987 138.763 176.378 139.06 176.705C139.72 177.228 140.521 177.511 141.344 177.511C142.168 177.511 142.969 177.228 143.628 176.705C143.929 176.379 144.159 175.989 144.305 175.56C144.451 175.132 144.508 174.675 144.472 174.221V167.229C144.47 167.173 144.479 167.117 144.499 167.065C144.52 167.014 144.551 166.967 144.59 166.93C144.673 166.854 144.78 166.814 144.89 166.818H145.834C145.943 166.814 146.05 166.854 146.133 166.93C146.172 166.967 146.203 167.014 146.223 167.065C146.244 167.117 146.253 167.173 146.251 167.229V174.183C146.288 175.128 146.084 176.066 145.661 176.899C145.272 177.596 144.684 178.145 143.982 178.466C143.148 178.83 142.252 179.005 141.35 178.98V178.98Z" fill="white"/>
<path d="M149.699 178.808C149.643 178.812 149.587 178.804 149.534 178.785C149.481 178.766 149.433 178.736 149.391 178.696C149.355 178.66 149.326 178.616 149.308 178.567C149.289 178.519 149.28 178.466 149.281 178.414V167.229C149.279 167.174 149.287 167.119 149.306 167.067C149.325 167.016 149.354 166.969 149.391 166.93C149.475 166.851 149.586 166.81 149.699 166.818H154.309C155.104 166.8 155.895 166.939 156.641 167.229C157.256 167.467 157.789 167.893 158.175 168.454C158.554 169.053 158.744 169.763 158.719 170.484C158.744 171.201 158.554 171.908 158.175 172.503C157.787 173.059 157.254 173.482 156.641 173.718C155.895 174.008 155.104 174.148 154.309 174.13H151.097V178.412C151.098 178.465 151.088 178.518 151.067 178.567C151.047 178.616 151.017 178.66 150.979 178.694C150.89 178.773 150.776 178.812 150.661 178.806L149.699 178.808ZM151.078 172.693H154.218C154.93 172.748 155.639 172.549 156.233 172.128C156.459 171.929 156.638 171.677 156.754 171.391C156.871 171.105 156.922 170.794 156.904 170.483C156.921 170.174 156.87 169.866 156.757 169.581C156.644 169.296 156.471 169.042 156.251 168.839C155.658 168.401 154.94 168.195 154.22 168.256H151.081L151.078 172.693Z" fill="white"/>
</g>
<defs>
<clipPath id="clip0_3_177">
<rect width="66" height="59" fill="white" transform="translate(99 128)"/>
</clipPath>
</defs>
</svg>
