<svg width="560" height="421" viewBox="0 0 560 421" fill="none" xmlns="http://www.w3.org/2000/svg">
<path d="M3.60606 2.40571C0.212121 4.67777 0 21.1168 0 210.767C0 408.437 0.212121 416.723 3.81818 418.728C7.42424 420.866 29.697 421 280.424 421C541.758 421 553.212 420.866 556.394 418.594C559.788 416.322 560 399.883 560 210.233C560 12.5632 559.788 4.27682 556.182 2.27206C552.576 0.133648 530.303 -3.06964e-06 279.576 -3.06964e-06C18.2424 -3.06964e-06 6.78788 0.133648 3.60606 2.40571Z" fill="#074E9A"/>
<path d="M152.912 212.015H148.164L148.139 209.247H152.062C152.756 209.247 153.318 209.162 153.75 208.993C154.19 208.824 154.512 208.578 154.715 208.257C154.918 207.927 155.02 207.521 155.02 207.038C155.02 206.488 154.918 206.044 154.715 205.705C154.512 205.367 154.19 205.121 153.75 204.969C153.318 204.808 152.76 204.728 152.074 204.728H149.662V220H145.523V201.516H152.074C153.183 201.516 154.173 201.617 155.045 201.82C155.917 202.023 156.657 202.337 157.267 202.76C157.884 203.183 158.354 203.712 158.676 204.347C158.997 204.981 159.158 205.73 159.158 206.594C159.158 207.347 158.989 208.049 158.65 208.701C158.32 209.353 157.787 209.882 157.051 210.288C156.314 210.694 155.328 210.914 154.093 210.948L152.912 212.015ZM152.747 220H147.11L148.608 216.801H152.747C153.382 216.801 153.898 216.699 154.296 216.496C154.694 216.293 154.986 216.018 155.172 215.671C155.358 215.324 155.451 214.935 155.451 214.503C155.451 213.995 155.362 213.555 155.185 213.183C155.015 212.81 154.744 212.522 154.372 212.319C154.008 212.116 153.521 212.015 152.912 212.015H149.205L149.23 209.247H153.763L154.728 210.339C155.904 210.313 156.843 210.504 157.546 210.91C158.257 211.308 158.769 211.833 159.082 212.484C159.395 213.136 159.552 213.826 159.552 214.554C159.552 215.756 159.294 216.763 158.777 217.575C158.261 218.379 157.495 218.984 156.479 219.391C155.472 219.797 154.228 220 152.747 220ZM170.089 216.687V206.264H174.075V220H170.343L170.089 216.687ZM170.508 213.881L171.6 213.855C171.6 214.778 171.49 215.629 171.27 216.407C171.058 217.186 170.736 217.863 170.305 218.438C169.882 219.014 169.353 219.463 168.718 219.784C168.091 220.097 167.359 220.254 166.521 220.254C165.844 220.254 165.222 220.161 164.655 219.975C164.097 219.78 163.614 219.479 163.208 219.073C162.802 218.659 162.489 218.13 162.269 217.486C162.049 216.835 161.938 216.056 161.938 215.15V206.264H165.899V215.176C165.899 215.531 165.942 215.836 166.026 216.09C166.119 216.335 166.242 216.538 166.395 216.699C166.555 216.86 166.75 216.979 166.979 217.055C167.215 217.131 167.474 217.169 167.753 217.169C168.455 217.169 169.006 217.025 169.403 216.737C169.81 216.441 170.093 216.048 170.254 215.557C170.423 215.057 170.508 214.499 170.508 213.881ZM180.626 209.463V220H176.665V206.264H180.385L180.626 209.463ZM184.727 206.162L184.663 209.856C184.494 209.831 184.274 209.81 184.003 209.793C183.732 209.768 183.499 209.755 183.305 209.755C182.797 209.755 182.357 209.818 181.984 209.945C181.62 210.064 181.316 210.242 181.07 210.479C180.833 210.715 180.656 211.012 180.537 211.367C180.419 211.714 180.359 212.116 180.359 212.573L179.61 212.205C179.61 211.299 179.699 210.47 179.877 209.717C180.055 208.964 180.313 208.312 180.651 207.762C180.99 207.203 181.405 206.771 181.896 206.467C182.386 206.162 182.945 206.01 183.571 206.01C183.774 206.01 183.982 206.022 184.193 206.048C184.405 206.073 184.583 206.111 184.727 206.162ZM193.22 216.725V210.834C193.22 210.419 193.156 210.064 193.029 209.768C192.902 209.471 192.703 209.239 192.433 209.069C192.162 208.9 191.811 208.815 191.379 208.815C191.015 208.815 190.698 208.879 190.427 209.006C190.164 209.133 189.961 209.315 189.817 209.552C189.682 209.789 189.614 210.081 189.614 210.428H185.653C185.653 209.81 185.793 209.234 186.072 208.701C186.352 208.168 186.749 207.698 187.266 207.292C187.79 206.886 188.417 206.573 189.145 206.353C189.872 206.124 190.689 206.01 191.595 206.01C192.67 206.01 193.626 206.192 194.464 206.556C195.31 206.911 195.979 207.449 196.47 208.168C196.961 208.879 197.206 209.776 197.206 210.859V216.61C197.206 217.44 197.253 218.091 197.346 218.565C197.447 219.031 197.591 219.437 197.777 219.784V220H193.778C193.592 219.602 193.452 219.111 193.359 218.527C193.266 217.935 193.22 217.334 193.22 216.725ZM193.715 211.621L193.74 213.805H191.772C191.332 213.805 190.951 213.86 190.63 213.97C190.317 214.08 190.063 214.232 189.868 214.427C189.674 214.613 189.53 214.833 189.437 215.087C189.352 215.332 189.31 215.603 189.31 215.899C189.31 216.179 189.377 216.433 189.513 216.661C189.648 216.881 189.834 217.055 190.071 217.182C190.308 217.309 190.583 217.372 190.896 217.372C191.413 217.372 191.853 217.271 192.217 217.067C192.589 216.864 192.877 216.619 193.08 216.331C193.283 216.035 193.385 215.76 193.385 215.506L194.337 217.156C194.185 217.495 193.998 217.846 193.778 218.21C193.558 218.565 193.279 218.9 192.94 219.213C192.602 219.518 192.191 219.767 191.709 219.962C191.235 220.157 190.664 220.254 189.995 220.254C189.132 220.254 188.349 220.08 187.646 219.733C186.944 219.378 186.381 218.891 185.958 218.273C185.543 217.656 185.336 216.945 185.336 216.141C185.336 215.421 185.467 214.782 185.729 214.224C185.992 213.665 186.385 213.191 186.91 212.802C187.443 212.412 188.112 212.12 188.916 211.926C189.72 211.723 190.66 211.621 191.734 211.621H193.715ZM203.744 218.413L207.337 206.264H211.603L206.08 222.057C205.962 222.404 205.801 222.776 205.598 223.174C205.403 223.572 205.136 223.952 204.798 224.316C204.468 224.68 204.045 224.977 203.528 225.205C203.012 225.434 202.377 225.548 201.624 225.548C201.243 225.548 200.947 225.527 200.735 225.484C200.532 225.451 200.261 225.391 199.923 225.307L199.91 222.425C200.02 222.425 200.118 222.425 200.202 222.425C200.295 222.433 200.388 222.438 200.481 222.438C200.955 222.438 201.336 222.387 201.624 222.285C201.92 222.184 202.149 222.031 202.31 221.828C202.479 221.633 202.614 221.384 202.716 221.079L203.744 218.413ZM202.538 206.264L205.382 216.039L205.864 220.241L203.186 220.381L198.272 206.264H202.538ZM217.176 206.264V220H213.202V206.264H217.176ZM233.934 216.179C233.934 215.925 233.853 215.701 233.692 215.506C233.54 215.311 233.261 215.133 232.854 214.973C232.457 214.812 231.894 214.651 231.166 214.49C230.48 214.346 229.841 214.16 229.249 213.932C228.657 213.695 228.14 213.411 227.7 213.081C227.26 212.743 226.917 212.345 226.672 211.888C226.426 211.422 226.304 210.893 226.304 210.301C226.304 209.725 226.426 209.179 226.672 208.663C226.926 208.147 227.29 207.69 227.764 207.292C228.246 206.894 228.83 206.581 229.516 206.353C230.21 206.124 230.997 206.01 231.877 206.01C233.087 206.01 234.132 206.2 235.013 206.581C235.893 206.953 236.57 207.478 237.044 208.155C237.518 208.824 237.755 209.59 237.755 210.453H233.794C233.794 210.098 233.726 209.789 233.591 209.526C233.455 209.264 233.248 209.061 232.969 208.917C232.689 208.765 232.321 208.688 231.864 208.688C231.509 208.688 231.196 208.752 230.925 208.879C230.662 208.997 230.455 209.162 230.303 209.374C230.159 209.586 230.087 209.831 230.087 210.11C230.087 210.305 230.129 210.483 230.214 210.644C230.307 210.796 230.447 210.94 230.633 211.075C230.827 211.202 231.077 211.316 231.382 211.418C231.695 211.52 232.076 211.617 232.524 211.71C233.481 211.888 234.353 212.137 235.14 212.459C235.935 212.781 236.57 213.225 237.044 213.792C237.526 214.359 237.768 215.108 237.768 216.039C237.768 216.648 237.628 217.207 237.349 217.715C237.078 218.223 236.684 218.667 236.168 219.048C235.652 219.429 235.034 219.725 234.314 219.937C233.595 220.148 232.783 220.254 231.877 220.254C230.582 220.254 229.486 220.021 228.589 219.556C227.692 219.09 227.015 218.506 226.558 217.804C226.109 217.093 225.885 216.365 225.885 215.62H229.604C229.621 216.077 229.736 216.45 229.947 216.737C230.167 217.025 230.451 217.237 230.798 217.372C231.145 217.499 231.534 217.562 231.966 217.562C232.397 217.562 232.757 217.503 233.045 217.385C233.333 217.266 233.553 217.105 233.705 216.902C233.857 216.691 233.934 216.45 233.934 216.179ZM244.153 206.264V220H240.18V206.264H244.153ZM239.938 202.709C239.938 202.133 240.142 201.664 240.548 201.3C240.954 200.927 241.487 200.741 242.147 200.741C242.808 200.741 243.341 200.927 243.747 201.3C244.162 201.664 244.369 202.133 244.369 202.709C244.369 203.276 244.162 203.746 243.747 204.118C243.341 204.482 242.808 204.664 242.147 204.664C241.487 204.664 240.954 204.482 240.548 204.118C240.142 203.746 239.938 203.276 239.938 202.709ZM258.118 216.915V220H247.581V216.915H258.118ZM257.953 208.473L249.282 220H246.591V217.715L255.236 206.264H257.953V208.473ZM256.595 206.264V209.349H246.819V206.264H256.595ZM264.517 206.264V220H260.543V206.264H264.517ZM260.302 202.709C260.302 202.133 260.505 201.664 260.911 201.3C261.317 200.927 261.851 200.741 262.511 200.741C263.171 200.741 263.704 200.927 264.11 201.3C264.525 201.664 264.732 202.133 264.732 202.709C264.732 203.276 264.525 203.746 264.11 204.118C263.704 204.482 263.171 204.664 262.511 204.664C261.851 204.664 261.317 204.482 260.911 204.118C260.505 203.746 260.302 203.276 260.302 202.709ZM271.258 209.196V220H267.284V206.264H271.017L271.258 209.196ZM270.737 212.649L269.747 212.675C269.747 211.642 269.874 210.715 270.128 209.895C270.382 209.074 270.742 208.375 271.207 207.8C271.681 207.216 272.244 206.771 272.896 206.467C273.556 206.162 274.284 206.01 275.079 206.01C275.722 206.01 276.311 206.103 276.844 206.289C277.377 206.475 277.834 206.776 278.215 207.19C278.604 207.597 278.9 208.138 279.104 208.815C279.307 209.484 279.408 210.309 279.408 211.291V220H275.422V211.278C275.422 210.703 275.341 210.258 275.181 209.945C275.02 209.632 274.783 209.412 274.47 209.285C274.165 209.158 273.793 209.095 273.353 209.095C272.887 209.095 272.489 209.188 272.159 209.374C271.829 209.552 271.558 209.801 271.347 210.123C271.135 210.445 270.979 210.821 270.877 211.253C270.784 211.685 270.737 212.15 270.737 212.649ZM292.649 206.264V220H288.676V206.264H292.649ZM288.435 202.709C288.435 202.133 288.638 201.664 289.044 201.3C289.45 200.927 289.983 200.741 290.644 200.741C291.304 200.741 291.837 200.927 292.243 201.3C292.658 201.664 292.865 202.133 292.865 202.709C292.865 203.276 292.658 203.746 292.243 204.118C291.837 204.482 291.304 204.664 290.644 204.664C289.983 204.664 289.45 204.482 289.044 204.118C288.638 203.746 288.435 203.276 288.435 202.709ZM301.244 217.169C301.667 217.169 302.035 217.089 302.349 216.928C302.662 216.767 302.903 216.543 303.072 216.255C303.25 215.959 303.339 215.603 303.339 215.188H307.071C307.071 216.187 306.813 217.067 306.297 217.829C305.789 218.591 305.104 219.188 304.24 219.619C303.377 220.042 302.404 220.254 301.32 220.254C300.254 220.254 299.323 220.08 298.527 219.733C297.732 219.378 297.067 218.883 296.534 218.248C296.001 217.613 295.599 216.877 295.328 216.039C295.066 215.193 294.935 214.279 294.935 213.297V212.967C294.935 211.993 295.066 211.084 295.328 210.237C295.599 209.391 296.001 208.65 296.534 208.016C297.067 207.381 297.728 206.89 298.515 206.543C299.31 206.188 300.241 206.01 301.308 206.01C302.433 206.01 303.428 206.226 304.291 206.657C305.163 207.089 305.844 207.711 306.335 208.523C306.826 209.327 307.071 210.297 307.071 211.431H303.339C303.339 210.991 303.258 210.597 303.098 210.25C302.945 209.895 302.708 209.615 302.387 209.412C302.074 209.201 301.684 209.095 301.219 209.095C300.736 209.095 300.339 209.201 300.025 209.412C299.721 209.615 299.488 209.899 299.327 210.263C299.166 210.627 299.056 211.041 298.997 211.507C298.938 211.964 298.908 212.451 298.908 212.967V213.297C298.908 213.822 298.938 214.321 298.997 214.795C299.056 215.26 299.166 215.671 299.327 216.026C299.496 216.382 299.733 216.661 300.038 216.864C300.343 217.067 300.745 217.169 301.244 217.169ZM299.848 219.924H302.856L302.704 220.673C303.187 220.757 303.627 220.961 304.024 221.282C304.422 221.612 304.621 222.141 304.621 222.869C304.621 223.335 304.52 223.754 304.316 224.126C304.122 224.507 303.83 224.833 303.44 225.104C303.06 225.374 302.581 225.582 302.006 225.726C301.439 225.869 300.774 225.941 300.013 225.941L299.924 223.745C300.178 223.745 300.398 223.707 300.584 223.631C300.779 223.563 300.931 223.453 301.041 223.301C301.16 223.157 301.219 222.962 301.219 222.717C301.219 222.488 301.16 222.311 301.041 222.184C300.923 222.057 300.732 221.959 300.47 221.892C300.207 221.824 299.869 221.777 299.454 221.752L299.848 219.924ZM313.216 206.264V220H309.242V206.264H313.216ZM309.001 202.709C309.001 202.133 309.204 201.664 309.61 201.3C310.017 200.927 310.55 200.741 311.21 200.741C311.87 200.741 312.403 200.927 312.81 201.3C313.224 201.664 313.432 202.133 313.432 202.709C313.432 203.276 313.224 203.746 312.81 204.118C312.403 204.482 311.87 204.664 311.21 204.664C310.55 204.664 310.017 204.482 309.61 204.118C309.204 203.746 309.001 203.276 309.001 202.709ZM319.957 209.196V220H315.983V206.264H319.716L319.957 209.196ZM319.437 212.649L318.446 212.675C318.446 211.642 318.573 210.715 318.827 209.895C319.081 209.074 319.441 208.375 319.906 207.8C320.38 207.216 320.943 206.771 321.595 206.467C322.255 206.162 322.983 206.01 323.778 206.01C324.422 206.01 325.01 206.103 325.543 206.289C326.076 206.475 326.533 206.776 326.914 207.19C327.303 207.597 327.6 208.138 327.803 208.815C328.006 209.484 328.107 210.309 328.107 211.291V220H324.121V211.278C324.121 210.703 324.041 210.258 323.88 209.945C323.719 209.632 323.482 209.412 323.169 209.285C322.864 209.158 322.492 209.095 322.052 209.095C321.586 209.095 321.188 209.188 320.858 209.374C320.528 209.552 320.257 209.801 320.046 210.123C319.834 210.445 319.678 210.821 319.576 211.253C319.483 211.685 319.437 212.15 319.437 212.649ZM344.446 216.725V210.834C344.446 210.419 344.383 210.064 344.256 209.768C344.129 209.471 343.93 209.239 343.659 209.069C343.388 208.9 343.037 208.815 342.605 208.815C342.242 208.815 341.924 208.879 341.653 209.006C341.391 209.133 341.188 209.315 341.044 209.552C340.909 209.789 340.841 210.081 340.841 210.428H336.88C336.88 209.81 337.02 209.234 337.299 208.701C337.578 208.168 337.976 207.698 338.492 207.292C339.017 206.886 339.643 206.573 340.371 206.353C341.099 206.124 341.916 206.01 342.821 206.01C343.896 206.01 344.853 206.192 345.69 206.556C346.537 206.911 347.205 207.449 347.696 208.168C348.187 208.879 348.433 209.776 348.433 210.859V216.61C348.433 217.44 348.479 218.091 348.572 218.565C348.674 219.031 348.818 219.437 349.004 219.784V220H345.005C344.819 219.602 344.679 219.111 344.586 218.527C344.493 217.935 344.446 217.334 344.446 216.725ZM344.941 211.621L344.967 213.805H342.999C342.559 213.805 342.178 213.86 341.856 213.97C341.543 214.08 341.289 214.232 341.095 214.427C340.9 214.613 340.756 214.833 340.663 215.087C340.578 215.332 340.536 215.603 340.536 215.899C340.536 216.179 340.604 216.433 340.739 216.661C340.875 216.881 341.061 217.055 341.298 217.182C341.535 217.309 341.81 217.372 342.123 217.372C342.639 217.372 343.079 217.271 343.443 217.067C343.816 216.864 344.104 216.619 344.307 216.331C344.51 216.035 344.611 215.76 344.611 215.506L345.563 217.156C345.411 217.495 345.225 217.846 345.005 218.21C344.785 218.565 344.506 218.9 344.167 219.213C343.828 219.518 343.418 219.767 342.936 219.962C342.462 220.157 341.89 220.254 341.222 220.254C340.358 220.254 339.576 220.08 338.873 219.733C338.171 219.378 337.608 218.891 337.185 218.273C336.77 217.656 336.562 216.945 336.562 216.141C336.562 215.421 336.694 214.782 336.956 214.224C337.218 213.665 337.612 213.191 338.137 212.802C338.67 212.412 339.339 212.12 340.143 211.926C340.947 211.723 341.886 211.621 342.961 211.621H344.941ZM354.971 218.413L358.563 206.264H362.829L357.307 222.057C357.188 222.404 357.027 222.776 356.824 223.174C356.63 223.572 356.363 223.952 356.024 224.316C355.694 224.68 355.271 224.977 354.755 225.205C354.239 225.434 353.604 225.548 352.851 225.548C352.47 225.548 352.174 225.527 351.962 225.484C351.759 225.451 351.488 225.391 351.149 225.307L351.137 222.425C351.247 222.425 351.344 222.425 351.429 222.425C351.522 222.433 351.615 222.438 351.708 222.438C352.182 222.438 352.563 222.387 352.851 222.285C353.147 222.184 353.375 222.031 353.536 221.828C353.705 221.633 353.841 221.384 353.942 221.079L354.971 218.413ZM353.765 206.264L356.608 216.039L357.091 220.241L354.412 220.381L349.499 206.264H353.765ZM368.402 206.264V220H364.429V206.264H368.402ZM375.347 209.463V220H371.386V206.264H375.105L375.347 209.463ZM379.447 206.162L379.384 209.856C379.215 209.831 378.994 209.81 378.724 209.793C378.453 209.768 378.22 209.755 378.025 209.755C377.518 209.755 377.077 209.818 376.705 209.945C376.341 210.064 376.036 210.242 375.791 210.479C375.554 210.715 375.376 211.012 375.258 211.367C375.139 211.714 375.08 212.116 375.08 212.573L374.331 212.205C374.331 211.299 374.42 210.47 374.598 209.717C374.775 208.964 375.034 208.312 375.372 207.762C375.711 207.203 376.125 206.771 376.616 206.467C377.107 206.162 377.666 206.01 378.292 206.01C378.495 206.01 378.702 206.022 378.914 206.048C379.126 206.073 379.303 206.111 379.447 206.162ZM388.816 216.928V200.5H392.803V220H389.223L388.816 216.928ZM380.26 213.297V213.03C380.26 211.989 380.374 211.041 380.603 210.187C380.84 209.323 381.182 208.583 381.631 207.965C382.088 207.339 382.651 206.856 383.319 206.518C383.988 206.179 384.754 206.01 385.617 206.01C386.413 206.01 387.107 206.188 387.699 206.543C388.292 206.89 388.795 207.381 389.21 208.016C389.633 208.642 389.976 209.382 390.238 210.237C390.501 211.084 390.7 212.002 390.835 212.992V213.449C390.708 214.397 390.509 215.282 390.238 216.103C389.976 216.924 389.633 217.647 389.21 218.273C388.795 218.891 388.287 219.378 387.687 219.733C387.094 220.08 386.396 220.254 385.592 220.254C384.729 220.254 383.963 220.08 383.294 219.733C382.634 219.386 382.079 218.9 381.631 218.273C381.182 217.647 380.84 216.911 380.603 216.064C380.374 215.218 380.26 214.296 380.26 213.297ZM384.221 213.03V213.297C384.221 213.839 384.259 214.342 384.335 214.808C384.42 215.273 384.555 215.684 384.741 216.039C384.927 216.395 385.173 216.674 385.478 216.877C385.782 217.072 386.155 217.169 386.595 217.169C387.187 217.169 387.674 217.034 388.055 216.763C388.436 216.483 388.723 216.098 388.918 215.607C389.113 215.117 389.214 214.545 389.223 213.894V212.561C389.223 212.019 389.168 211.532 389.058 211.101C388.948 210.669 388.783 210.305 388.562 210.009C388.351 209.713 388.084 209.488 387.763 209.336C387.441 209.175 387.06 209.095 386.62 209.095C386.188 209.095 385.82 209.196 385.516 209.399C385.211 209.594 384.961 209.869 384.767 210.225C384.58 210.58 384.441 210.999 384.348 211.481C384.263 211.955 384.221 212.472 384.221 213.03ZM399.734 206.264V220H395.761V206.264H399.734ZM406.691 200.487V220H402.718V200.487H406.691ZM415.413 206.264L409.434 213.17L406.272 216.344L404.686 213.665L407.25 210.352L410.64 206.264H415.413ZM411.224 220L407.352 213.69L410.195 211.469L415.769 220H411.224Z" fill="white"/>
</svg>
