<svg xmlns="http://www.w3.org/2000/svg" width="148.254" height="28.296" viewBox="0 0 148.254 28.296">
  <path id="Path_4937" data-name="Path 4937" d="M42.083,184.918v23.461h-.83V184.918Zm-1.66,2.421v18.62h-.83v-18.62Zm-1.659,2.419V203.54h-.83V189.758ZM56.157,210.8V197.083H43.742V210.8h-.83V182.5h.83v13.753H56.157V182.5h.83v28.3Zm1.659-2.39V184.92h.83v23.487Zm1.659-2.447v-18.62h.83v18.62Zm1.659-2.419V189.758h.83V203.54Zm-16.563-8.119v-10.5h.83V194.6h9.1L54.5,184.92h.83v10.5Zm1.659-1.659v-6.424h.83v5.6h5.776v-5.6h.83v6.424Zm1.659-1.66v-2.345h.83v1.521h2.459v-1.521h.83V192.1Zm7.437,5.808v10.5H54.5v-9.676h-9.1l.006,9.676h-.83v-10.5Zm-1.662,1.669v6.379h-.83V200.4H47.061v5.56h-.83V199.57Zm-1.657,1.65v2.311h-.83v-1.486H48.72v1.486h-.83V201.23Zm25.8-4.383v1.37q0,1.994-.048,3.556-.048,1.538-.144,3.028a7.635,7.635,0,0,1,.889-.048h2.163a7.626,7.626,0,0,1,.889.048q-.1-1.489-.144-3.028-.048-1.562-.048-3.556v-3.268q0-2,.048-3.533.048-1.562.144-3.124-.408.049-.889.1-.481.024-1.081.024t-1.081-.024q-.481-.048-.889-.1.1,1.562.144,3.1.048,1.514.048,3.509-.7.024-1.514.048h-4.3q-.865-.024-1.49-.048,0-2,.024-3.509.048-1.538.168-3.1-.409.049-.889.1-.481.024-1.082.024t-1.081-.024q-.481-.048-.889-.1.1,1.562.144,3.124.049,1.538.048,3.533v3.268q0,1.994-.048,3.556-.048,1.538-.144,3.028a7.628,7.628,0,0,1,.889-.048H69.8a7.632,7.632,0,0,1,.889.048q-.1-1.489-.144-3.028-.049-1.562-.048-3.556v-1.37q.913-.048,1.826-.072t1.827-.024q.913,0,1.826.048Zm12.281-4.038q-.625,1.442-1.177,2.86-.553,1.394-1.082,2.86h4.4q-.529-1.466-1.057-2.86Q90.661,194.251,90.085,192.809ZM98.592,204.8q-.577-.048-1.106-.048H95.443q-.5,0-1.009.048-.385-1.177-.793-2.4t-.865-2.452q-.769-.024-1.538-.024-.769-.024-1.538-.024-.625,0-1.25.024-.625,0-1.25.024-.48,1.226-.889,2.452t-.745,2.4a3.5,3.5,0,0,0-.577-.048H83.86a4.434,4.434,0,0,0-.625.048q.288-.624.769-1.73t1.057-2.5q.577-1.394,1.226-2.98.673-1.61,1.322-3.244.673-1.634,1.3-3.22.648-1.586,1.177-2.956.24.048.457.1a4.415,4.415,0,0,0,.913,0q.217-.049.457-.1.769,2.042,1.634,4.374.89,2.331,1.779,4.59.889,2.235,1.73,4.253T98.592,204.8Zm1.874-9.853v3.268q0,1.994-.048,3.556-.048,1.538-.144,3.028c.128-.016.281-.032.456-.048h7.234q.961.024,1.61.048a1.764,1.764,0,0,1-.072-.36,7.456,7.456,0,0,1,0-1.2q.024-.217.072-.481-1.394.168-2.764.24t-2.739.072q-.024-.937-.048-2.211v-5.912q0-2,.048-3.533.048-1.562.144-3.124-.409.049-.889.1-.481.024-1.081.024t-1.082-.024q-.481-.048-.889-.1.1,1.562.144,3.124Q100.467,192.954,100.466,194.948Zm14.756,2.379h.048q1.226,1.875,2.4,3.773,1.178,1.875,2.4,3.7.529-.048,1.033-.048h2.139q.553,0,1.25.048-.481-.576-1.274-1.706-.793-1.154-1.73-2.5-.913-1.37-1.851-2.788t-1.706-2.6q.481-.577,1.346-1.562.865-1.009,1.8-2.067.961-1.058,1.8-1.971t1.25-1.322q-.409.049-.77.1-.336.024-.673.024t-.673-.024l-.673-.1q-.313.457-1.009,1.37-.7.889-1.562,1.971t-1.8,2.235q-.937,1.129-1.754,2.091V193.65q0-1.754.024-3.2a18,18,0,0,1,.168-2.163q-.409.049-.889.1-.48.024-1.081.024t-1.081-.024q-.481-.048-.89-.1.1,1.562.144,3.124.049,1.538.048,3.533v3.268q0,1.994-.048,3.556-.048,1.538-.144,3.028a7.636,7.636,0,0,1,.89-.048h2.162a7.631,7.631,0,0,1,.889.048,26.859,26.859,0,0,1-.168-2.98Q115.222,199.947,115.222,197.327Zm18.312,2.908a4.1,4.1,0,0,1-.216,1.394,3.384,3.384,0,0,1-.577,1.033,2.447,2.447,0,0,1-1.85.841h-.7q-.289-.024-.625-.048,0-.313-.024-.793V201.6q0-.576-.024-1.178v-2.451q.024-.553.024-1.057H130q.241-.024.577-.024a2.769,2.769,0,0,1,2.187.841A3.537,3.537,0,0,1,133.534,200.235Zm-.168-7.762a3.479,3.479,0,0,1-.24,1.346,2.942,2.942,0,0,1-.625.961,2.683,2.683,0,0,1-.889.553,2.627,2.627,0,0,1-.986.193h-1.081q0-.625-.024-1.2v-1.25q0-.625.024-1.538t.072-1.8a2.248,2.248,0,0,1,.432-.048q.217-.024.745-.024a2.672,2.672,0,0,1,1.2.24,2.126,2.126,0,0,1,.793.6,2.011,2.011,0,0,1,.433.889A3.927,3.927,0,0,1,133.366,192.473Zm-7.4,2.475v3.268q0,1.994-.048,3.556-.048,1.538-.144,3.028a9.66,9.66,0,0,1,1.081-.048H128.2q.913,0,1.73.024.841.024,1.8.024a9.942,9.942,0,0,0,2.091-.216,4.764,4.764,0,0,0,1.778-.817,4.046,4.046,0,0,0,1.25-1.49,4.694,4.694,0,0,0,.481-2.211,3.3,3.3,0,0,0-.481-1.826,4.048,4.048,0,0,0-1.13-1.25,4.676,4.676,0,0,0-1.418-.7,5.047,5.047,0,0,0-1.3-.264v-.048a6.422,6.422,0,0,0,1.226-.361,4.757,4.757,0,0,0,1.274-.721,4.232,4.232,0,0,0,1.01-1.178,3.409,3.409,0,0,0,.408-1.706,3.626,3.626,0,0,0-.36-1.682,2.763,2.763,0,0,0-.986-1.154,4.483,4.483,0,0,0-1.538-.673,8.347,8.347,0,0,0-1.97-.216q-1.033,0-2.163.072-1.129.048-2.163.048-.6,0-1.081-.024-.481-.048-.889-.1.1,1.562.144,3.124Q125.965,192.954,125.964,194.948Zm19.129-2.139q-.625,1.442-1.177,2.86-.553,1.394-1.082,2.86h4.4q-.528-1.466-1.057-2.86Q145.67,194.251,145.093,192.809ZM153.6,204.8q-.577-.048-1.105-.048h-2.043c-.336,0-.673.016-1.009.048q-.385-1.177-.793-2.4t-.865-2.452q-.769-.024-1.538-.024-.769-.024-1.538-.024-.624,0-1.249.024-.625,0-1.25.024-.48,1.226-.889,2.452t-.745,2.4a3.5,3.5,0,0,0-.577-.048h-1.129a4.431,4.431,0,0,0-.625.048q.288-.624.769-1.73t1.058-2.5q.576-1.394,1.225-2.98.673-1.61,1.322-3.244.673-1.634,1.3-3.22.649-1.586,1.177-2.956.24.048.456.1a4.418,4.418,0,0,0,.913,0c.144-.032.3-.064.457-.1q.769,2.042,1.634,4.374.889,2.331,1.779,4.59.889,2.235,1.73,4.253T153.6,204.8Zm2.091-11.727q0,1.826-.072,3.821-.048,1.971-.144,3.677-.072,1.683-.144,2.86a13.2,13.2,0,0,1-.12,1.369q.553-.048,1.106-.048h.553a3.492,3.492,0,0,1,.577.048q-.024-.264-.048-.7-.024-.456-.048-1.154t-.048-1.706v-6.657q.024-.7.048-1.394,5.551,5.84,10.5,11.607a8.1,8.1,0,0,1,.937-.048q.505,0,.985.048v-6.128q.024-1.538.072-3.1t.12-3.316q.072-1.778.193-3.966a4.915,4.915,0,0,1-2.163,0,7.064,7.064,0,0,1,.072.937q.048.7.048,1.658.024.961.024,2.115.024,1.13.024,2.307v4.422q-2.691-2.907-5.263-5.72-2.547-2.812-5.167-5.72a4.915,4.915,0,0,1-2.163,0q.024.866.072,2T155.691,193.074Zm21.22,4.254h.048q1.225,1.875,2.4,3.773,1.177,1.875,2.4,3.7.529-.048,1.033-.048h2.139q.553,0,1.25.048-.481-.576-1.274-1.706-.793-1.154-1.73-2.5-.914-1.37-1.851-2.787t-1.706-2.6q.481-.577,1.346-1.562.865-1.009,1.8-2.067.961-1.058,1.8-1.971t1.249-1.322q-.408.049-.769.1-.336.024-.673.024t-.673-.024l-.673-.1q-.313.457-1.009,1.37-.7.889-1.562,1.971t-1.8,2.235q-.938,1.129-1.754,2.091V193.65q0-1.754.024-3.2a18,18,0,0,1,.168-2.163q-.409.049-.889.1-.481.024-1.082.024t-1.081-.024q-.48-.048-.889-.1.1,1.562.144,3.124.049,1.538.048,3.533v3.268q0,1.994-.048,3.556-.048,1.538-.144,3.028a7.635,7.635,0,0,1,.889-.048h2.163a7.634,7.634,0,0,1,.889.048,26.891,26.891,0,0,1-.168-2.98Q176.912,199.947,176.912,197.327Z" transform="translate(-37.934 -182.501)" fill="#bababa"/>
</svg>
