<svg xmlns="http://www.w3.org/2000/svg" width="52.998" height="52" viewBox="0 0 52.998 52">
  <g id="Group_3606" data-name="Group 3606" transform="translate(-134.002 -262)">
    <g id="Group_3600" data-name="Group 3600">
      <path id="Path_7537" data-name="Path 7537" d="M139.319,268.51a1,1,0,0,1-.755-1.655,2.671,2.671,0,0,1,.3-.3,1,1,0,1,1,1.3,1.521.724.724,0,0,0-.083.083A1,1,0,0,1,139.319,268.51Z" fill="#00598d"/>
    </g>
    <g id="Group_3601" data-name="Group 3601">
      <path id="Path_7538" data-name="Path 7538" d="M169.93,314a5.991,5.991,0,0,1-5.831-4.571l-2.16-8.821a1.995,1.995,0,0,0-3.877,0l-2.161,8.823a5.958,5.958,0,0,1-2.12,3.3,6.007,6.007,0,0,1-9.58-3.5l-1.005-4.877c-.507-2.466-1.048-5.1-1.525-7.4a19.9,19.9,0,0,0-4.022-8.787,15.932,15.932,0,0,1-1.6-17.966,1,1,0,0,1,1.744.979,13.932,13.932,0,0,0,1.4,15.714,21.839,21.839,0,0,1,4.438,9.656c.477,2.3,1.019,4.936,1.526,7.4l1.005,4.876A4.008,4.008,0,0,0,150.07,312a4.05,4.05,0,0,0,2.476-.849,3.972,3.972,0,0,0,1.412-2.2l2.161-8.824a3.995,3.995,0,0,1,7.763,0l2.159,8.818a4,4,0,0,0,5.795,2.563A14.025,14.025,0,0,1,167,300.8V298a1,1,0,0,1,2,0v2.8a11.808,11.808,0,0,0,5.04,9.864,1,1,0,0,1,.181,1.519A5.9,5.9,0,0,1,169.93,314Z" fill="#00598d"/>
    </g>
    <g id="Group_3602" data-name="Group 3602">
      <path id="Path_7539" data-name="Path 7539" d="M168,295a1,1,0,0,1-1-1v-2a1,1,0,0,1,.684-.948l9-3a.988.988,0,0,1,.631,0l2.131.708a19.286,19.286,0,0,1,1.36-1.872,13.952,13.952,0,0,0,3.138-10.15,14,14,0,0,0-18.479-11.981,16.572,16.572,0,0,1-10.932,0,14.061,14.061,0,0,0-5.8-.7,13.814,13.814,0,0,0-5.567,1.736,1,1,0,1,1-.978-1.744,15.823,15.823,0,0,1,6.37-1.985,15.993,15.993,0,0,1,6.624.8,14.558,14.558,0,0,0,9.628,0,15.992,15.992,0,0,1,17.539,25.292,16.548,16.548,0,0,0-1.593,2.3,1,1,0,0,1-1.184.454L177,290.054l-8,2.667V294A1,1,0,0,1,168,295Z" fill="#00598d"/>
    </g>
    <g id="Group_3603" data-name="Group 3603">
      <path id="Path_7540" data-name="Path 7540" d="M160,272a24.309,24.309,0,0,1-11.52-3.146,1,1,0,0,1,1.04-1.708,20.668,20.668,0,0,0,20.96,0,1,1,0,1,1,1.04,1.708A24.309,24.309,0,0,1,160,272Z" fill="#00598d"/>
    </g>
    <g id="Group_3604" data-name="Group 3604">
      <path id="Path_7541" data-name="Path 7541" d="M177,314a1.032,1.032,0,0,1-.215-.023,11.251,11.251,0,0,1-3.851-1.646A13.825,13.825,0,0,1,167,300.8V298a1,1,0,0,1,2,0v2.8a11.808,11.808,0,0,0,5.04,9.864,9.266,9.266,0,0,0,2.96,1.309c4.648-1.149,8-5.809,8-11.173v-8.079l-8-2.667-8,2.667V294a1,1,0,0,1-2,0v-2a1,1,0,0,1,.684-.948l9-3a.988.988,0,0,1,.631,0l9,3A1,1,0,0,1,187,292v8.8c0,6.377-4.115,11.919-9.783,13.177A1.058,1.058,0,0,1,177,314Z" fill="#00598d"/>
    </g>
    <g id="Group_3605" data-name="Group 3605">
      <path id="Path_7542" data-name="Path 7542" d="M176,304a1,1,0,0,1-.707-.293l-2-2a1,1,0,0,1,1.414-1.414L176,301.586l4.293-4.293a1,1,0,0,1,1.414,1.414l-5,5A1,1,0,0,1,176,304Z" fill="#00598d"/>
    </g>
  </g>
</svg>
