<svg xmlns="http://www.w3.org/2000/svg" width="20" height="22" viewBox="0 0 20 22">
  <path id="icon_calendar" data-name="icon / calendar" d="M17,22H3a2.946,2.946,0,0,1-3-3V5A2.947,2.947,0,0,1,3,2H5V1A.947.947,0,0,1,6,0,.947.947,0,0,1,7,1V2h6V1a1,1,0,0,1,2,0V2h2a2.947,2.947,0,0,1,3,3V19a2.946,2.946,0,0,1-3,3ZM2,10v9a.947.947,0,0,0,1,1H17a.947.947,0,0,0,1-1V10ZM3,4A.947.947,0,0,0,2,5V8H18V5a.947.947,0,0,0-1-1H15V5a1,1,0,0,1-2,0V4H7V5A.947.947,0,0,1,6,6,.947.947,0,0,1,5,5V4Z" transform="translate(0 0)" fill="#fff"/>
</svg>
