<svg id="Group_3625" data-name="Group 3625" xmlns="http://www.w3.org/2000/svg" width="36.348" height="35.664" viewBox="0 0 36.348 35.664">
  <g id="Group_3600" data-name="Group 3600" transform="translate(2.961 2.963)">
    <path id="Path_7537" data-name="Path 7537" d="M139.005,267.822a.686.686,0,0,1-.518-1.135,1.832,1.832,0,0,1,.2-.2.686.686,0,1,1,.89,1.043.5.5,0,0,0-.057.057A.683.683,0,0,1,139.005,267.822Z" transform="translate(-138.32 -266.319)" fill="#00598d"/>
  </g>
  <g id="Group_3601" data-name="Group 3601" transform="translate(0 5.267)">
    <path id="Path_7538" data-name="Path 7538" d="M158.643,300.076a4.109,4.109,0,0,1-4-3.135l-1.481-6.05a1.368,1.368,0,0,0-2.659,0l-1.482,6.051a4.086,4.086,0,0,1-1.454,2.261,4.12,4.12,0,0,1-6.57-2.4l-.689-3.345c-.348-1.691-.719-3.5-1.046-5.077a13.646,13.646,0,0,0-2.758-6.026,10.927,10.927,0,0,1-1.1-12.322.686.686,0,0,1,1.2.671,9.555,9.555,0,0,0,.959,10.777A14.978,14.978,0,0,1,140.6,288.1c.327,1.579.7,3.385,1.047,5.077l.689,3.344a2.749,2.749,0,0,0,2.682,2.183,2.778,2.778,0,0,0,1.7-.582,2.724,2.724,0,0,0,.968-1.505l1.482-6.052a2.74,2.74,0,0,1,5.324,0l1.481,6.048a2.744,2.744,0,0,0,3.974,1.758,9.619,9.619,0,0,1-3.317-7.349V289.1a.686.686,0,0,1,1.372,0v1.92a8.1,8.1,0,0,0,3.457,6.765.687.687,0,0,1,.124,1.042,4.05,4.05,0,0,1-2.943,1.246Z" transform="translate(-134.002 -269.68)" fill="#00598d"/>
  </g>
  <g id="Group_3602" data-name="Group 3602" transform="translate(5.266 0)">
    <path id="Path_7539" data-name="Path 7539" d="M159.731,284.633a.686.686,0,0,1-.686-.686v-1.372a.684.684,0,0,1,.469-.65l6.173-2.057a.677.677,0,0,1,.433,0l1.462.486a13.231,13.231,0,0,1,.933-1.284,9.569,9.569,0,0,0,2.152-6.961,9.6,9.6,0,0,0-12.674-8.217,11.366,11.366,0,0,1-7.5,0,9.644,9.644,0,0,0-3.976-.479A9.474,9.474,0,0,0,142.7,264.6a.686.686,0,1,1-.671-1.2,10.852,10.852,0,0,1,4.369-1.361,10.969,10.969,0,0,1,4.543.549,9.984,9.984,0,0,0,6.6,0,10.968,10.968,0,0,1,12.029,17.346,11.351,11.351,0,0,0-1.093,1.577.686.686,0,0,1-.812.311l-1.766-.586-5.487,1.829v.877A.686.686,0,0,1,159.731,284.633Z" transform="translate(-141.68 -262)" fill="#00598d"/>
  </g>
  <g id="Group_3603" data-name="Group 3603" transform="translate(9.6 3.429)">
    <path id="Path_7540" data-name="Path 7540" d="M156.23,270.429a16.672,16.672,0,0,1-7.9-2.158.686.686,0,0,1,.713-1.171,14.175,14.175,0,0,0,14.375,0,.686.686,0,1,1,.713,1.171A16.672,16.672,0,0,1,156.23,270.429Z" transform="translate(-148 -267)" fill="#00598d"/>
  </g>
  <g id="Group_3604" data-name="Group 3604" transform="translate(22.631 17.832)">
    <path id="Path_7541" data-name="Path 7541" d="M173.858,305.832a.707.707,0,0,1-.147-.016,7.716,7.716,0,0,1-2.641-1.129,9.482,9.482,0,0,1-4.07-7.908v-1.92a.686.686,0,1,1,1.372,0v1.92a8.1,8.1,0,0,0,3.457,6.765,6.356,6.356,0,0,0,2.03.9,7.719,7.719,0,0,0,5.487-7.663v-5.541l-5.487-1.829-5.487,1.829v.877a.686.686,0,1,1-1.372,0v-1.372a.684.684,0,0,1,.469-.65l6.173-2.057a.677.677,0,0,1,.433,0l6.174,2.058a.685.685,0,0,1,.468.65v6.035c0,4.374-2.822,8.174-6.71,9.037A.725.725,0,0,1,173.858,305.832Z" transform="translate(-167 -288)" fill="#00598d"/>
  </g>
  <g id="Group_3605" data-name="Group 3605" transform="translate(26.746 24.004)">
    <path id="Path_7542" data-name="Path 7542" d="M175.057,301.8a.684.684,0,0,1-.485-.2l-1.372-1.372a.686.686,0,0,1,.97-.97l.887.887L178,297.2a.686.686,0,1,1,.97.97l-3.429,3.429A.684.684,0,0,1,175.057,301.8Z" transform="translate(-173 -297)" fill="#00598d"/>
  </g>
</svg>
