<svg id="Group_3626" data-name="Group 3626" xmlns="http://www.w3.org/2000/svg" width="30.177" height="41.152" viewBox="0 0 30.177 41.152">
  <g id="Group_3566" data-name="Group 3566" transform="translate(0 6.147)">
    <path id="Path_7505" data-name="Path 7505" d="M155.146-483.867h-9.814a3.622,3.622,0,0,1-3.417-2.4c-.141-.405-.289-.959-.46-1.6a14.176,14.176,0,0,0-1.336-3.756,9.634,9.634,0,0,1-2.068-7.055,9.426,9.426,0,0,1,.392-1.887.684.684,0,0,1,.861-.446.685.685,0,0,1,.447.861,8.086,8.086,0,0,0-.335,1.611,8.269,8.269,0,0,0,1.772,6.057,13.757,13.757,0,0,1,1.592,4.26c.157.59.306,1.146.429,1.5a2.247,2.247,0,0,0,2.122,1.479h9.814a.686.686,0,0,1,.686.686A.686.686,0,0,1,155.146-483.867Z" transform="translate(-138 501.041)" fill="#00598d"/>
  </g>
  <g id="Group_3567" data-name="Group 3567" transform="translate(3.594 0)">
    <path id="Path_7506" data-name="Path 7506" d="M162.491-486.683h-2.956a.686.686,0,0,1-.686-.686.686.686,0,0,1,.686-.686h2.956a2.25,2.25,0,0,0,2.124-1.484c.121-.35.27-.906.427-1.5a13.765,13.765,0,0,1,1.591-4.26,8.269,8.269,0,0,0,1.773-6.058,8.053,8.053,0,0,0-7.179-7.247,7.748,7.748,0,0,0-3.3.411,9.515,9.515,0,0,1-6.381,0,7.759,7.759,0,0,0-3.3-.411,7.759,7.759,0,0,0-3.907,1.507.687.687,0,0,1-.959-.142.686.686,0,0,1,.143-.959,9.112,9.112,0,0,1,4.6-1.772,9.111,9.111,0,0,1,3.883.482,8.149,8.149,0,0,0,5.47,0,9.109,9.109,0,0,1,3.884-.482,9.426,9.426,0,0,1,8.418,8.473,9.633,9.633,0,0,1-2.068,7.056,14.2,14.2,0,0,0-1.335,3.756c-.171.641-.319,1.194-.457,1.595A3.625,3.625,0,0,1,162.491-486.683Z" transform="translate(-143.24 510.003)" fill="#00598d"/>
  </g>
  <g id="Group_3568" data-name="Group 3568" transform="translate(8.065 2.883)">
    <path id="Path_7507" data-name="Path 7507" d="M156.783-502.7a14.128,14.128,0,0,1-6.694-1.828.686.686,0,0,1-.229-.941.686.686,0,0,1,.942-.23,12.956,12.956,0,0,0,5.981,1.628,12.956,12.956,0,0,0,5.981-1.628.687.687,0,0,1,.942.23.686.686,0,0,1-.229.941A14.128,14.128,0,0,1,156.783-502.7Z" transform="translate(-149.76 505.799)" fill="#00598d"/>
  </g>
  <g id="Group_3569" data-name="Group 3569" transform="translate(7.489 21.949)">
    <path id="Path_7508" data-name="Path 7508" d="M159.228-458.8H153.81a.687.687,0,0,1-.607-.366c-1.311-2.49-2.127-4.048-3.43-6.537a.692.692,0,0,1-.077-.271l-.775-11.3a.687.687,0,0,1,.183-.515.687.687,0,0,1,.5-.217h8.971a.686.686,0,0,1,.686.686.686.686,0,0,1-.686.686H150.34l.715,10.419c1.2,2.293,1.992,3.8,3.169,6.041h4.591c1.177-2.239,1.968-3.748,3.169-6.041l.715-10.419H161.32a.686.686,0,0,1-.686-.686.686.686,0,0,1,.686-.686h2.112a.687.687,0,0,1,.5.217.687.687,0,0,1,.183.515l-.775,11.3a.692.692,0,0,1-.077.271c-1.3,2.49-2.119,4.047-3.43,6.537A.687.687,0,0,1,159.228-458.8Z" transform="translate(-148.92 478)" fill="#00598d"/>
  </g>
  <g id="Group_3570" data-name="Group 3570" transform="translate(6.173 24.692)">
    <path id="Path_7509" data-name="Path 7509" d="M164.147-471.257l-.058,0-16.46-1.372a.686.686,0,0,1-.626-.741.681.681,0,0,1,.74-.627l16.46,1.372a.686.686,0,0,1,.626.741A.685.685,0,0,1,164.147-471.257Z" transform="translate(-147 474.001)" fill="#00598d"/>
  </g>
  <g id="Group_3571" data-name="Group 3571" transform="translate(6.173 28.12)">
    <path id="Path_7510" data-name="Path 7510" d="M164.147-466.257l-.058,0-16.46-1.372a.686.686,0,0,1-.626-.741.679.679,0,0,1,.74-.627l16.46,1.372a.686.686,0,0,1,.626.741A.685.685,0,0,1,164.147-466.257Z" transform="translate(-147 469.001)" fill="#00598d"/>
  </g>
  <g id="Group_3572" data-name="Group 3572" transform="translate(12.331 32.051)">
    <path id="Path_7511" data-name="Path 7511" d="M166.282-461.027c-.021,0-.042,0-.062,0L156.6-461.9a.686.686,0,0,1-.622-.745.692.692,0,0,1,.745-.621l9.615.871a.685.685,0,0,1,.621.745A.686.686,0,0,1,166.282-461.027Z" transform="translate(-155.98 463.269)" fill="#00598d"/>
  </g>
  <g id="Group_3573" data-name="Group 3573" transform="translate(6.858 31.551)">
    <path id="Path_7512" data-name="Path 7512" d="M151.5-462.374a.619.619,0,0,1-.062,0l-2.812-.254a.686.686,0,0,1-.621-.745.694.694,0,0,1,.745-.621l2.811.254a.686.686,0,0,1,.622.745A.687.687,0,0,1,151.5-462.374Z" transform="translate(-148 463.999)" fill="#00598d"/>
  </g>
  <g id="Group_3574" data-name="Group 3574" transform="translate(7.544 34.98)">
    <path id="Path_7513" data-name="Path 7513" d="M162.717-456.257c-.024,0-.048,0-.072,0l-13.031-1.372a.685.685,0,0,1-.61-.754.69.69,0,0,1,.753-.611l13.031,1.372a.685.685,0,0,1,.61.754A.686.686,0,0,1,162.717-456.257Z" transform="translate(-149 459)" fill="#00598d"/>
  </g>
  <ellipse id="Ellipse_400" data-name="Ellipse 400" cx="0.686" cy="0.686" rx="0.686" ry="0.686" transform="translate(1.694 3.617)" fill="#00598d"/>
</svg>
