<svg id="Group_3624" data-name="Group 3624" xmlns="http://www.w3.org/2000/svg" width="44.526" height="43.784" viewBox="0 0 44.526 43.784">
  <g id="Group_3576" data-name="Group 3576" transform="translate(6.107 22.255)">
    <path id="Path_7514" data-name="Path 7514" d="M10.993,33.585a.742.742,0,0,1-.728-.6l-.021-.1a.742.742,0,1,1,1.454-.3l.024.119a.741.741,0,0,1-.587.87A.77.77,0,0,1,10.993,33.585Z" transform="translate(-10.229 -31.989)" fill="#00598d"/>
  </g>
  <g id="Group_3577" data-name="Group 3577" transform="translate(7.184 25.142)">
    <path id="Path_7515" data-name="Path 7515" d="M20.57,54.522a3.866,3.866,0,0,1-3.777-3.08c-.438-2.105-1.069-5.179-1.573-7.651a12.412,12.412,0,0,0-2.487-5.428,9.587,9.587,0,0,1-.954-1.372.742.742,0,1,1,1.288-.738,8.25,8.25,0,0,0,.81,1.164,13.888,13.888,0,0,1,2.8,6.073c.5,2.474,1.135,5.545,1.573,7.653a2.374,2.374,0,0,0,3.792,1.387,2.328,2.328,0,0,0,.839-1.3l1.342-5.5a2.615,2.615,0,0,1,5.078,0l.3,1.2a.742.742,0,0,1-1.441.356l-.3-1.2a1.13,1.13,0,0,0-2.2,0l-1.342,5.5a3.856,3.856,0,0,1-3.749,2.941Z" transform="translate(-11.68 -35.879)" fill="#00598d"/>
  </g>
  <g id="Group_3578" data-name="Group 3578" transform="translate(6.011 11.131)">
    <path id="Path_7516" data-name="Path 7516" d="M32.541,49.653a3.849,3.849,0,0,1-3.748-2.94l-.356-1.455a.742.742,0,1,1,1.441-.353l.356,1.455a2.373,2.373,0,0,0,4.63-.083c.439-2.11,1.069-5.181,1.573-7.651a13.886,13.886,0,0,1,2.8-6.075,8.551,8.551,0,0,0,1.94-6.068,4.018,4.018,0,0,0-.35,1.65.742.742,0,1,1-1.484,0,4.086,4.086,0,0,0-4.082-4.082.742.742,0,0,1,0-1.484,4.084,4.084,0,0,0,2.891-1.195,4.005,4.005,0,0,0,.4-.468A8.557,8.557,0,0,0,29.8,18.948a10.477,10.477,0,0,1-6.9,0,8.511,8.511,0,0,0-3.56-.43A8.64,8.64,0,0,0,11.578,26a.742.742,0,0,1-1.472-.186,10.132,10.132,0,0,1,9.109-8.772,9.993,9.993,0,0,1,4.176.506,9,9,0,0,0,5.926,0,10.049,10.049,0,0,1,10.72,2.761.741.741,0,0,1,.1.861,5.518,5.518,0,0,1-2.1,2.142,5.607,5.607,0,0,1,2.043,2.043,5.634,5.634,0,0,1,.885-1.158,2.27,2.27,0,0,1,.173-.152.741.741,0,0,1,1.179.377,9.821,9.821,0,0,1,.322,1.757,10.038,10.038,0,0,1-2.259,7.316,12.409,12.409,0,0,0-2.488,5.431c-.5,2.468-1.135,5.542-1.573,7.65a3.849,3.849,0,0,1-3.777,3.078Z" transform="translate(-10.1 -16.999)" fill="#00598d"/>
  </g>
  <g id="Group_3579" data-name="Group 3579" transform="translate(14.664 14.249)">
    <path id="Path_7517" data-name="Path 7517" d="M29.359,24.555a15.283,15.283,0,0,1-7.243-1.978.742.742,0,0,1,.771-1.268,14.022,14.022,0,0,0,6.472,1.762,14.022,14.022,0,0,0,6.472-1.762.742.742,0,0,1,.771,1.268A15.283,15.283,0,0,1,29.359,24.555Z" transform="translate(-21.76 -21.201)" fill="#00598d"/>
  </g>
  <g id="Group_3580" data-name="Group 3580" transform="translate(0 21.521)">
    <path id="Path_7518" data-name="Path 7518" d="M4.968,32.484H2.742a.742.742,0,1,1,0-1.484H4.968a.742.742,0,1,1,0,1.484Z" transform="translate(-2 -31)" fill="#00598d"/>
  </g>
  <g id="Group_3581" data-name="Group 3581" transform="translate(40.816 21.521)">
    <path id="Path_7519" data-name="Path 7519" d="M59.968,32.484H57.742a.742.742,0,1,1,0-1.484h2.226a.742.742,0,1,1,0,1.484Z" transform="translate(-57 -31)" fill="#00598d"/>
  </g>
  <g id="Group_3582" data-name="Group 3582" transform="translate(21.521 0)">
    <path id="Path_7520" data-name="Path 7520" d="M31.742,5.711A.742.742,0,0,1,31,4.968V2.742a.742.742,0,1,1,1.484,0V4.968A.742.742,0,0,1,31.742,5.711Z" transform="translate(-31 -2)" fill="#00598d"/>
  </g>
  <g id="Group_3583" data-name="Group 3583" transform="translate(2.883 31.168)">
    <path id="Path_7521" data-name="Path 7521" d="M6.628,46.6a.742.742,0,0,1-.372-1.385L8.184,44.1a.742.742,0,1,1,.742,1.285L7,46.5A.736.736,0,0,1,6.628,46.6Z" transform="translate(-5.885 -44)" fill="#00598d"/>
  </g>
  <g id="Group_3584" data-name="Group 3584" transform="translate(38.231 10.76)">
    <path id="Path_7522" data-name="Path 7522" d="M54.26,19.1a.742.742,0,0,1-.372-1.385L55.816,16.6a.742.742,0,0,1,.742,1.285L54.63,19A.74.74,0,0,1,54.26,19.1Z" transform="translate(-53.516 -16.499)" fill="#00598d"/>
  </g>
  <g id="Group_3585" data-name="Group 3585" transform="translate(10.76 2.883)">
    <path id="Path_7523" data-name="Path 7523" d="M18.356,9.3a.741.741,0,0,1-.643-.371L16.6,7a.742.742,0,1,1,1.285-.742L19,8.184A.741.741,0,0,1,18.356,9.3Z" transform="translate(-16.5 -5.885)" fill="#00598d"/>
  </g>
  <g id="Group_3586" data-name="Group 3586" transform="translate(31.168 2.883)">
    <path id="Path_7524" data-name="Path 7524" d="M44.741,9.3A.741.741,0,0,1,44.1,8.184l1.113-1.928A.742.742,0,0,1,46.5,7L45.385,8.926A.741.741,0,0,1,44.741,9.3Z" transform="translate(-44 -5.885)" fill="#00598d"/>
  </g>
  <g id="Group_3587" data-name="Group 3587" transform="translate(2.883 10.76)">
    <path id="Path_7525" data-name="Path 7525" d="M8.554,19.1a.74.74,0,0,1-.37-.1L6.256,17.885A.742.742,0,1,1,7,16.6l1.928,1.113A.742.742,0,0,1,8.554,19.1Z" transform="translate(-5.885 -16.499)" fill="#00598d"/>
  </g>
  <g id="Group_3588" data-name="Group 3588" transform="translate(38.231 31.168)">
    <path id="Path_7526" data-name="Path 7526" d="M56.186,46.6a.736.736,0,0,1-.37-.1l-1.928-1.113A.742.742,0,1,1,54.63,44.1l1.928,1.113a.742.742,0,0,1-.372,1.385Z" transform="translate(-53.516 -44)" fill="#00598d"/>
  </g>
  <g id="Group_3589" data-name="Group 3589" transform="translate(0 21.521)">
    <path id="Path_7527" data-name="Path 7527" d="M4.968,32.484H2.742a.742.742,0,1,1,0-1.484H4.968a.742.742,0,1,1,0,1.484Z" transform="translate(-2 -31)" fill="#00598d"/>
  </g>
  <g id="Group_3590" data-name="Group 3590" transform="translate(40.816 21.521)">
    <path id="Path_7528" data-name="Path 7528" d="M59.968,32.484H57.742a.742.742,0,1,1,0-1.484h2.226a.742.742,0,1,1,0,1.484Z" transform="translate(-57 -31)" fill="#00598d"/>
  </g>
  <g id="Group_3591" data-name="Group 3591" transform="translate(21.521 0)">
    <path id="Path_7529" data-name="Path 7529" d="M31.742,5.711A.742.742,0,0,1,31,4.968V2.742a.742.742,0,1,1,1.484,0V4.968A.742.742,0,0,1,31.742,5.711Z" transform="translate(-31 -2)" fill="#00598d"/>
  </g>
  <g id="Group_3592" data-name="Group 3592" transform="translate(2.883 31.168)">
    <path id="Path_7530" data-name="Path 7530" d="M6.628,46.6a.742.742,0,0,1-.372-1.385L8.184,44.1a.742.742,0,1,1,.742,1.285L7,46.5A.736.736,0,0,1,6.628,46.6Z" transform="translate(-5.885 -44)" fill="#00598d"/>
  </g>
  <g id="Group_3593" data-name="Group 3593" transform="translate(38.231 10.76)">
    <path id="Path_7531" data-name="Path 7531" d="M54.26,19.1a.742.742,0,0,1-.372-1.385L55.816,16.6a.742.742,0,0,1,.742,1.285L54.63,19A.74.74,0,0,1,54.26,19.1Z" transform="translate(-53.516 -16.499)" fill="#00598d"/>
  </g>
  <g id="Group_3594" data-name="Group 3594" transform="translate(10.76 2.883)">
    <path id="Path_7532" data-name="Path 7532" d="M18.356,9.3a.741.741,0,0,1-.643-.371L16.6,7a.742.742,0,1,1,1.285-.742L19,8.184A.741.741,0,0,1,18.356,9.3Z" transform="translate(-16.5 -5.885)" fill="#00598d"/>
  </g>
  <g id="Group_3595" data-name="Group 3595" transform="translate(31.168 2.883)">
    <path id="Path_7533" data-name="Path 7533" d="M44.741,9.3A.741.741,0,0,1,44.1,8.184l1.113-1.928A.742.742,0,0,1,46.5,7L45.385,8.926A.741.741,0,0,1,44.741,9.3Z" transform="translate(-44 -5.885)" fill="#00598d"/>
  </g>
  <g id="Group_3596" data-name="Group 3596" transform="translate(2.883 10.76)">
    <path id="Path_7534" data-name="Path 7534" d="M8.554,19.1a.74.74,0,0,1-.37-.1L6.256,17.885A.742.742,0,1,1,7,16.6l1.928,1.113A.742.742,0,0,1,8.554,19.1Z" transform="translate(-5.885 -16.499)" fill="#00598d"/>
  </g>
  <g id="Group_3597" data-name="Group 3597" transform="translate(38.231 31.168)">
    <path id="Path_7535" data-name="Path 7535" d="M56.186,46.6a.736.736,0,0,1-.37-.1l-1.928-1.113A.742.742,0,1,1,54.63,44.1l1.928,1.113a.742.742,0,0,1-.372,1.385Z" transform="translate(-53.516 -44)" fill="#00598d"/>
  </g>
  <g id="Group_3598" data-name="Group 3598" transform="translate(30.426 11.874)">
    <path id="Path_7536" data-name="Path 7536" d="M48.566,29.132a.742.742,0,0,1-.742-.742,4.086,4.086,0,0,0-4.082-4.082.742.742,0,1,1,0-1.484,4.084,4.084,0,0,0,2.891-1.195,4.185,4.185,0,0,0,.69-.925,4.093,4.093,0,0,0,.5-1.962.742.742,0,1,1,1.484,0,4.072,4.072,0,0,0,4.082,4.082.742.742,0,1,1,0,1.484,4.063,4.063,0,0,0-2.739,1.054.669.669,0,0,1-.1.1,4.094,4.094,0,0,0-1.244,2.932A.742.742,0,0,1,48.566,29.132Zm-2.045-5.564a5.607,5.607,0,0,1,2.043,2.043,5.634,5.634,0,0,1,.885-1.158c.034-.034.066-.063.1-.09a.44.44,0,0,1,.032-.033,5.616,5.616,0,0,1,1.029-.765,5.525,5.525,0,0,1-2.042-2.043,5.526,5.526,0,0,1-2.045,2.045Z" transform="translate(-43 -18)" fill="#00598d"/>
  </g>
</svg>
